<?xml version="1.0" encoding="utf-8"?>
<!-- Generator: Adobe Illustrator 22.0.0, SVG Export Plug-In . SVG Version: 6.00 Build 0)  -->
<svg version="1.0" id="Lager_1" xmlns="http://www.w3.org/2000/svg" xmlns:xlink="http://www.w3.org/1999/xlink" x="0px" y="0px"
	 viewBox="0 0 300 300" style="enable-background:new 0 0 300 300;" xml:space="preserve">
<style type="text/css">
	.st0{fill:#E97F02;}
	.st1{fill:none;}
	.st2{fill:#F8CA00;}
</style>
<g>
	<path class="st0" d="M100,236.6l-12.5,21.6L75,279.9c-22.8-13.2-41.7-32.2-54.9-54.9l21.6-12.5L63.4,200
		C72.2,215.2,84.8,227.8,100,236.6z"/>
</g>
<g>
	<path class="st1" d="M155.2,0.1l-0.9,25l-0.9,25l-0.3,10l-0.5,15l-2.6,75l-2.6-75l-0.5-15l-0.3-10l-0.9-25l-0.9-25
		C146.5,0,148.3,0,150,0S153.5,0,155.2,0.1z"/>
</g>
<path class="st2" d="M150,150l-37.5,65c-11.4-6.6-20.9-16.1-27.5-27.5L150,150z"/>
<path class="st1" d="M150,150l-37.5,65c-11.4-6.6-20.9-16.1-27.5-27.5L150,150z"/>
<path class="st1" d="M150,150l-37.5,65c-11.4-6.6-20.9-16.1-27.5-27.5L150,150z"/>
<path class="st2" d="M300,150c0,82.8-67.2,150-150,150c-27.3,0-53-7.3-75-20.1l12.5-21.7l12.5-21.6l5-8.7l7.5-13l37.5-65l2.6-75
	l0.5-15l0.3-10l0.9-25l0.9-25C235.7,2.8,300,68.9,300,150z"/>
<path class="st0" d="M150,150l-65,37.5L72,195l-8.7,5l-21.7,12.5L20.1,225C7.3,203,0,177.3,0,150C0,68.9,64.3,2.8,144.8,0.1l0.9,25
	l0.9,25l0.3,10l0.5,15L150,150z"/>
<path class="st0" d="M112.5,215l-7.5,13l-5,8.7c-15.2-8.8-27.8-21.4-36.6-36.6l8.7-5l13-7.5C91.6,198.9,101.1,208.4,112.5,215z"/>
<path class="st2" d="M100,236.6l-12.5,21.6c-19-11-34.8-26.8-45.8-45.8L63.4,200C72.2,215.2,84.8,227.8,100,236.6z"/>
<path class="st1" d="M150,150l-37.5,65c-11.4-6.6-20.9-16.1-27.5-27.5L150,150z"/>
<g>
</g>
<g>
</g>
<g>
</g>
<g>
</g>
<g>
</g>
<g>
</g>
<g>
</g>
<g>
</g>
<g>
</g>
<g>
</g>
<g>
</g>
<g>
</g>
<g>
</g>
<g>
</g>
<g>
</g>
</svg>
