<?xml version="1.0" encoding="utf-8"?>
<!-- Generator: Adobe Illustrator 22.0.0, SVG Export Plug-In . SVG Version: 6.00 Build 0)  -->
<svg version="1.1"
	 id="svg13063" inkscape:version="0.92.4 (5da689c313, 2019-01-14)" sodipodi:docname="Simple world map.svg" xmlns:cc="http://creativecommons.org/ns#" xmlns:dc="http://purl.org/dc/elements/1.1/" xmlns:inkscape="http://www.inkscape.org/namespaces/inkscape" xmlns:rdf="http://www.w3.org/1999/02/22-rdf-syntax-ns#" xmlns:sodipodi="http://sodipodi.sourceforge.net/DTD/sodipodi-0.dtd" xmlns:svg="http://www.w3.org/2000/svg"
	 xmlns="http://www.w3.org/2000/svg" xmlns:xlink="http://www.w3.org/1999/xlink" x="0px" y="0px" viewBox="0 0 494.7 265.7"
	 style="enable-background:new 0 0 494.7 265.7;" xml:space="preserve">
<style type="text/css">
	.st0{opacity:0.5;fill:#F7F7F7;}
	.st1{opacity:0.5;}
	.st2{fill:#FFCE00;}
	.st3{fill:#E97F02;}
</style>
<rect class="st0" width="494.7" height="265.7"/>
<g class="st1">
	<polygon class="st2" points="402.2,66 401.8,68.4 395.3,69.8 392.9,74.7 395.3,69.8 401.8,68.4 402.2,66 397.7,65.3 396,62.5 
		397.7,65.3 	"/>
	<polygon class="st2" points="397.5,55.8 397.5,55.8 399.2,61.8 399.2,61.8 	"/>
	<polygon class="st2" points="299.7,75.6 298.3,77.7 299.7,75.6 	"/>
	<polygon class="st2" points="369.8,58.1 369.8,58.1 367.9,62.5 367.9,62.5 	"/>
	<polygon class="st2" points="341.7,78.7 349.2,75.9 349.2,75.9 341.7,78.7 	"/>
	<polygon class="st2" points="336.8,74 333.6,76.6 330.4,76.7 327,72.3 322.4,73.2 316.9,69.4 312.7,70.3 312.7,70.3 316.9,69.4 
		322.4,73.2 327,72.3 330.4,76.7 333.6,76.6 336.8,74 344.4,73.6 349.2,75.9 349.2,75.9 344.4,73.6 	"/>
	<polygon class="st2" points="332.4,79.8 332.4,79.9 334,79.4 338,80.7 334,79.4 337.2,78.5 337.5,76.4 337.5,76.4 337.2,78.5 	"/>
	<polygon class="st2" points="338.4,82.1 339.5,85 338.4,82.1 	"/>
	<polygon class="st2" points="287.4,97.2 288.2,96.8 288.2,96.7 288.2,96.8 	"/>
	<polygon class="st2" points="286.3,88.5 284.9,91.2 284.9,91.2 286.3,88.5 	"/>
	<polygon class="st2" points="290.5,92.5 290.4,92.6 289.7,92.9 290.4,92.6 299,97 290.5,92.6 	"/>
	<polygon class="st2" points="301.6,97.6 300,97.6 303,97.6 304.1,99 303,97.6 	"/>
	<polygon class="st2" points="328.4,101.6 328.5,101.6 326.2,98.8 326.2,98.7 326.2,98.8 	"/>
	<polygon class="st2" points="303.4,118.5 298.9,117.9 298.9,117.9 303.4,118.5 303,120.2 305.9,118.6 303,120.2 	"/>
	<polygon class="st2" points="343.5,90.9 343.6,88.9 347,86.5 343.6,88.9 	"/>
	<polygon class="st2" points="346.6,96.1 346.6,96.1 342.1,100.2 	"/>
	<polygon class="st2" points="372.3,106 372.3,106 370.3,103.4 	"/>
	<polygon class="st2" points="249.8,63.3 249.8,63.3 250.9,64.8 250.9,64.8 	"/>
	<polygon class="st2" points="269,48.8 269,48.8 267.5,49.2 	"/>
	<polygon class="st2" points="261.2,75.3 260.8,74.7 261.2,75.3 264.9,74.6 265.9,77 265.9,77 264.4,73.3 264.9,74.6 	"/>
	<polygon class="st2" points="260.4,31.3 262.2,35.6 260.4,31.3 	"/>
	<polygon class="st2" points="395.7,117.8 398.6,121.7 395.7,117.8 	"/>
	<polygon class="st2" points="347.9,70.1 347.9,70.1 355.4,64.3 360.8,60.3 360.7,60.3 355.4,64.3 355.4,64.3 	"/>
	<polygon class="st2" points="275.9,201.8 274.5,203.2 272.1,203.2 272.1,203.3 274.5,203.3 275.9,201.8 275.9,199.9 275.9,199.9 	
		"/>
	<polygon class="st2" points="241.3,68.3 241.3,68.3 241.5,67.6 	"/>
	<polygon class="st2" points="243,65.8 241.7,66.4 241.7,66.4 243,65.8 244.8,65.8 245.6,68 245.6,68 244.9,65.8 	"/>
	<polygon class="st2" points="242.5,62.8 242.2,64 242.5,62.8 	"/>
	<polygon class="st2" points="258.7,68.5 258.7,68.3 258.7,68.3 	"/>
	<polygon class="st2" points="307.3,74.8 310.4,74 313.1,76.2 315.8,75.2 320.2,75.2 330.5,83.5 330.5,83.5 333.9,84.4 333.9,84.4 
		333.9,84.4 330.6,83.5 320.2,75.2 315.8,75.2 313.1,76.2 313.1,76.2 310.4,74 307.3,74.8 304.9,72.8 305.1,70.2 308.7,68.4 
		305.7,66.4 300.6,68.4 298.3,65.5 298.3,59.7 298.3,59.7 298.3,65.5 300.6,68.4 300.6,73.7 302.1,76.2 302.1,76.2 304.3,80.1 
		304.3,80.1 307,84.9 312,84.9 312.1,83.2 312.1,83.2 312.3,78.9 	"/>
	<polygon class="st2" points="322.6,84 322.2,83.9 322.6,84 324.3,86.7 324.3,86.7 	"/>
	<polygon class="st2" points="358.7,96.3 368.4,99.6 369.3,100 371.4,100.7 	"/>
	<rect x="315.9" y="55.2" transform="matrix(0.9758 -0.2188 0.2188 0.9758 -4.9055 70.5148)" class="st2" width="0" height="4.5"/>
	<polygon class="st2" points="378.8,98.6 382.6,100.2 385.1,101.3 384,104.3 384,104.3 385.2,101.3 	"/>
	<polygon class="st2" points="372.3,102.9 373.1,101.3 373.1,101.3 	"/>
	<polygon class="st2" points="390.6,110.5 390.6,110.5 394.7,112.5 	"/>
	<polygon class="st2" points="394.6,125.7 395.9,124.5 398.6,121.7 	"/>
	<polygon class="st2" points="295.4,144.7 306.3,135.6 298.5,142 298.6,142 	"/>
	<polygon class="st2" points="132.1,146.3 139.3,145.5 137,145.7 	"/>
	<polygon class="st2" points="295.8,129 295.8,129 299.3,133 297.5,131 	"/>
	<polygon class="st2" points="299.3,133 306.4,135.5 306.4,135.5 	"/>
	<polygon class="st2" points="255.6,65.6 253.8,67.1 253.8,67.1 256.3,65.1 256.2,65.1 	"/>
	<polygon class="st2" points="278.2,170.4 278.1,170.4 277,172.6 264.6,166.5 264.6,166.5 267.6,167.9 277,172.6 	"/>
	<rect x="284.6" y="165.6" class="st2" width="0" height="4.4"/>
	<polygon class="st2" points="120.9,145.3 122,147.9 122,147.9 120.9,145.3 	"/>
	<polygon class="st2" points="269.4,180.6 269.5,180.7 269.4,180.6 	"/>
	<polygon class="st2" points="111.3,68.4 109.7,67.3 108.8,63.8 101.1,65.5 100.2,67.5 102.4,67.5 104.3,66.5 105.8,67.5 
		108.9,67.6 109.2,68.5 104.4,69.5 100.3,76.1 102.4,76.1 106,70.8 108,69.5 109.6,69.5 109.2,73.2 111.3,73 113.5,71.3 115,71.3 
		113.9,68.2 	"/>
	<polygon class="st2" points="113.9,74.4 110.9,74.4 108.3,76.1 111.4,76.1 	"/>
	<polygon class="st2" points="142.3,196.7 145.3,194.9 145.3,194.9 142.3,196.7 	"/>
	<polygon class="st2" points="108.3,150.4 116.5,155.1 116.5,155.1 108.3,150.3 	"/>
	<polygon class="st2" points="117.6,73 120.1,71.3 118.3,71.3 115.9,73 	"/>
	<polygon class="st2" points="119.2,169.5 119.2,169.5 124.2,168.1 117.6,170 117.6,170 	"/>
	<polygon class="st2" points="137.4,179.8 128.7,172.7 124.2,168.1 128.7,172.7 	"/>
	<polygon class="st2" points="132.4,183.7 129.7,188.5 129.8,188.5 130.2,187.7 130.2,187.7 	"/>
	<polygon class="st2" points="280,197.6 280,197.6 278.2,196.5 278.2,196.5 	"/>
	<polygon class="st2" points="220.6,127.6 229.4,124 236.6,121.1 	"/>
	<polygon class="st2" points="216,100.6 223.3,106 233.1,113.3 216,100.6 	"/>
	<polygon class="st2" points="234.3,128.4 231.7,129.4 234.3,128.4 229.4,124 	"/>
	
		<rect x="216.5" y="130.9" transform="matrix(0.7071 -0.7071 0.7071 0.7071 -30.6249 192.0149)" class="st2" width="0" height="4.1"/>
	<polygon class="st2" points="215.1,99.7 211.7,99.7 216,99.7 216,99.7 	"/>
	<rect x="265.1" y="123.7" class="st2" width="0" height="6"/>
	<polygon class="st2" points="278.4,176.6 278.4,176.6 282.5,173.7 274.4,179.4 	"/>
	<polygon class="st2" points="247.1,108.8 246,103.4 247.1,108.8 	"/>
	<polygon class="st2" points="252.4,139.5 252.4,139.5 255.4,143.8 255.4,143.8 255.4,143.8 260,143.8 260,143.8 255.4,143.8 	"/>
	<polygon class="st2" points="228.2,92.3 216,99 216,99 228.2,92.3 	"/>
	<polygon class="st2" points="276.9,157.8 277,157.7 276.9,157.8 	"/>
	<polygon class="st2" points="251.7,129 247.5,137.7 243.9,137.9 247.6,137.7 251.7,129 251.7,125.6 251.7,125.6 	"/>
	<polygon class="st2" points="275.9,156.4 275.9,156.4 276.1,155.7 	"/>
	<polygon class="st2" points="275.9,164.7 274.9,169.1 274.9,169.1 275.9,164.7 281.3,163.9 282.5,165.6 282.5,165.6 280.7,163.1 
		281.3,163.9 	"/>
	<polygon class="st2" points="280,150.3 280,150.2 280,150.2 	"/>
	<polygon class="st2" points="281.3,150.2 281.4,150.2 280.6,151.6 283.6,151.6 284.1,150.6 285.4,148.2 282.5,148.2 	"/>
	<polygon class="st2" points="247.7,145.1 250.7,145.1 253,152.8 250.7,145.1 247.7,145.1 	"/>
	<polygon class="st2" points="279.3,142.1 285,141.3 288,140.9 283.1,135.8 288,140.9 279.3,142.1 279.2,142.4 	"/>
	<polygon class="st2" points="275.3,188.9 275,188.4 275.3,188.9 264.4,196.2 261.7,193.1 261.7,193.2 264.4,196.3 275.3,188.9 
		280,188.9 280,188.9 282.5,182.9 282.5,182.9 280,188.9 	"/>
	<polygon class="st2" points="378,111.1 375.1,108.4 374.6,105.1 374.6,105.1 375.1,108.4 378,111.1 377.6,113.6 379.2,102.9 	"/>
	<polygon class="st2" points="301.2,80.4 297.7,80.7 304.2,80.1 	"/>
	<polygon class="st2" points="240.6,60.7 240.6,60.7 240.6,61.8 239.6,61.3 235.9,59.4 240.6,61.8 	"/>
	<polygon class="st2" points="255,145.1 255.4,143.8 255.4,143.8 	"/>
	<polygon class="st2" points="423.3,127.5 424.6,128.8 425.1,127.8 423.5,126.2 	"/>
	<polygon class="st2" points="231.2,129.6 231.7,129.4 231.2,129.6 	"/>
	<polygon class="st2" points="260,143.8 260.4,140.7 260,143.8 	"/>
	<polygon class="st2" points="428.4,132.7 427.6,131.5 426.7,132.6 427.6,133.7 	"/>
	<polygon class="st2" points="279.2,142.4 277.4,150.2 280,150.2 280,150.2 281.3,150.2 282.5,148.2 285.4,148.2 285.5,148.2 
		285.9,145.1 285,141.3 279.3,142.1 	"/>
	<polygon class="st2" points="279.3,142.1 279.3,142.1 274.4,140.3 274.3,140.3 	"/>
	<polygon class="st2" points="431.2,130.2 432.9,130.2 431.2,127.5 429.5,128.1 	"/>
	<rect x="248.4" y="152.8" class="st2" width="4.7" height="0"/>
	<polygon class="st2" points="427.6,129 425.9,128.8 425.1,130.2 426.3,131 	"/>
	<polygon class="st2" points="419,108 421.1,110 422.4,106.3 421.1,105 	"/>
	<rect x="216" y="100.6" class="st2" width="0" height="2.5"/>
	<polygon class="st2" points="224.8,132.5 224.8,132.5 220.6,131.7 220.6,131.7 	"/>
	<polygon class="st2" points="432.2,131.9 431,135 427.1,135 430.4,137.3 430.4,139.5 432.7,138.8 431.9,137.4 433.8,136.9 	"/>
	<polygon class="st2" points="424.5,117 422.1,117 421.5,122 424.9,126 428.7,126.5 429.3,124.8 425.7,124.5 424.4,122.9 
		425.7,119.9 	"/>
	<polygon class="st2" points="247.1,108.8 247.1,108.8 246.9,108.8 236.6,115.8 236.6,115.8 246.9,108.8 	"/>
	<polygon class="st2" points="233.1,113.3 236.6,115.8 236.6,115.8 	"/>
	<polygon class="st2" points="422.4,129.8 418.1,133.7 419.7,134 422.5,131.7 	"/>
	<polygon class="st2" points="215.1,136.2 215.1,136.2 213.2,134 	"/>
	<polygon class="st2" points="220.6,131.7 220.6,131.7 216.5,130.9 	"/>
	<polygon class="st2" points="216.3,137.5 215.1,136.2 215.1,136.2 	"/>
	<polygon class="st2" points="428.4,130.5 429.7,132.4 430.5,131.5 429.5,129.9 	"/>
	<polygon class="st2" points="275.9,156.4 276.9,157.8 276.9,157.8 275.9,156.4 	"/>
	<polygon class="st2" points="391.3,138.3 392.7,142.8 398.3,147.6 398.8,145.9 393.4,138 	"/>
	<polygon class="st2" points="282.5,179.2 282.5,179.2 278.4,176.6 278.4,176.6 	"/>
	<polygon class="st2" points="281.3,163.9 275.9,164.7 274.9,169.1 278.2,170.4 278.1,170.4 278.2,170.4 277,172.6 267.6,167.9 
		267.7,172.6 264,172.6 264,176.8 267,180.6 269.4,180.6 269.4,180.6 269.4,180.6 272.7,180.6 274.4,179.4 282.5,173.7 282.5,165.6 
			"/>
	<polygon class="st2" points="274.4,179.4 272.7,180.6 269.4,180.6 269.5,180.7 270.6,182.2 275,188.4 275.3,188.9 280,188.9 
		282.5,182.9 282.5,179.2 278.4,176.6 278.4,176.6 278.4,176.6 	"/>
	<polygon class="st2" points="282.5,173.7 282.5,173.7 284.7,175.5 284.7,179.2 286.8,177.3 286.8,174.1 284.6,172.6 284.6,170 
		284.6,165.6 282.5,165.6 282.5,165.6 	"/>
	<polygon class="st2" points="403,116.5 404.1,117.8 405.6,115.8 405.6,114.4 403,115 	"/>
	<polygon class="st2" points="400.6,157.9 400.6,154.6 387.7,141.2 383.3,139.5 398.2,159.8 	"/>
	<polygon class="st2" points="274.4,179.4 272.7,180.6 269.4,180.6 269.4,180.6 272.7,180.6 	"/>
	<polygon class="st2" points="269.5,180.7 270.6,182.2 270.6,182.2 	"/>
	<polygon class="st2" points="399.8,162.2 415.9,164.9 415.7,163.8 409.9,160.9 406.2,161.7 402.2,160.2 	"/>
	<polygon class="st2" points="275.3,188.9 275,188.4 270.6,182.2 261.7,182.2 261.7,193.1 264.4,196.2 	"/>
	<polygon class="st2" points="280.7,163.1 276.9,157.8 276.9,157.8 	"/>
	<polygon class="st2" points="270.6,182.2 270.6,182.2 275,188.4 	"/>
	<polygon class="st2" points="278.8,153.3 280,150.3 278.7,153.3 	"/>
	<polygon class="st2" points="285.4,148.2 285.5,148.2 285.9,145.1 285.5,148.2 	"/>
	<polygon class="st2" points="277,157.7 278.8,153.3 278.7,153.3 	"/>
	<polygon class="st2" points="276.5,153.8 276.1,155.7 275.9,156.4 276.9,157.8 277,157.7 278.7,153.3 	"/>
	<polygon class="st2" points="277.4,150.2 276.5,153.8 278.7,153.3 280,150.3 280,150.2 	"/>
	<polygon class="st2" points="433.2,91.7 432.5,90.6 430.1,90.9 432.4,94.4 	"/>
	<polygon class="st2" points="443.5,81.5 441.5,78.1 439.6,77.5 440.7,82.7 436.7,86.3 431.3,87.7 430.8,89.3 437.3,88.4 
		437.8,90.9 439.2,90.3 439.4,88.3 443.7,87.2 	"/>
	<polygon class="st2" points="428.9,56.7 426.9,56.7 432.4,63.4 435.1,68.4 437.1,68.4 433.8,63.7 435.7,63.7 	"/>
	<polygon class="st2" points="276.5,153.8 276.1,155.7 276.5,153.8 	"/>
	<polygon class="st2" points="234.3,128.4 234.3,128.4 235.6,128 235.6,128 	"/>
	<polygon class="st2" points="438.5,76.5 439.4,75.2 442.3,75.2 443.6,73 437,70.3 437.2,75.7 	"/>
	<polygon class="st2" points="277.4,150.2 277.3,150.2 276.5,153.8 276.5,153.8 	"/>
	<polygon class="st2" points="279.2,142.4 277.3,150.2 277.4,150.2 	"/>
	<polygon class="st2" points="267.7,121.2 268,115.3 257.9,108.8 253.9,108.8 255.3,118.3 251.7,125.6 251.7,125.6 251.7,125.6 
		254.6,131.8 254.6,131.8 252.3,131.8 253.5,135.3 253.5,135.3 265.1,129.7 265.1,123.7 265.1,123.7 265.1,123.7 	"/>
	<rect x="207.2" y="128" class="st2" width="5.2" height="0"/>
	<polygon class="st2" points="212.4,128 210.4,123.3 202.9,117.9 202.7,124.1 207.6,125.6 202.6,125.6 202.5,128 202.5,128 
		202.5,128 207.2,128 207.2,128 207.2,128 207.2,128 	"/>
	<polygon class="st2" points="211.7,99.7 210.6,99.7 210.5,99.7 	"/>
	<polygon class="st2" points="213.2,134 210.5,136.6 210.5,136.6 	"/>
	<polygon class="st2" points="210.4,130.9 207.7,133.6 210.5,136.6 213.2,134 	"/>
	<polygon class="st2" points="213.2,134 215.1,136.2 216.5,135 216.5,130.9 215.8,128 212.4,128 212.4,128 207.2,128 204.8,130.5 
		207.7,133.6 210.4,130.9 	"/>
	<polygon class="st2" points="202.5,128 202.5,128 207.2,128 207.2,128 	"/>
	<polygon class="st2" points="209.2,111.6 211,108.8 211,103.1 211,103.1 211,108.8 209.2,111.6 203.1,111.6 203.1,111.6 	"/>
	<polygon class="st2" points="211,108.8 211,103.1 211,103.1 216,103.1 216,100.6 216,100.6 216,100.6 216,99.7 211.7,99.7 
		210.5,99.7 210.6,99.7 210.5,99.7 203.2,109.3 203.1,111.6 209.2,111.6 	"/>
	<polygon class="st2" points="215.8,128 216.5,130.9 216.5,130.9 220.6,131.7 220.6,127.6 236.6,121.1 236.6,115.8 233.1,113.3 
		223.3,106 218.6,106 219.4,121.4 210.4,121.4 210.4,123.3 212.4,128 	"/>
	<polygon class="st2" points="219.4,121.4 218.6,106 223.3,106 216,100.6 216,103.1 216,103.1 211,103.1 211,108.8 209.2,111.6 
		203.1,111.6 203.1,111.6 203.1,111.6 202.9,117.9 210.4,123.3 210.4,121.4 	"/>
	<polygon class="st2" points="235.6,128 235.6,128 235.6,128 235.6,128 	"/>
	<polygon class="st2" points="202.7,124.1 202.6,125.6 207.6,125.6 	"/>
	<polygon class="st2" points="232.7,138.2 232.7,138.2 231.2,129.6 	"/>
	<polygon class="st2" points="231.2,129.6 229.2,130.3 229.2,130.3 231.2,129.6 	"/>
	<polygon class="st2" points="231.2,129.6 229.2,130.3 230.6,138.8 232.7,138.2 232.7,138.2 	"/>
	<polygon class="st2" points="234.3,128.4 234.3,128.4 231.7,129.4 231.2,129.6 232.7,138.2 233.5,137.9 234.1,135 235.6,128 	"/>
	<polygon class="st2" points="215.1,136.2 213.2,134 210.5,136.6 210.5,136.6 210.5,136.6 216.3,142.9 216.3,137.5 	"/>
	<polygon class="st2" points="235.6,128 234.1,135 235.6,128 	"/>
	<polygon class="st2" points="247.5,137.7 251.7,129 251.7,125.6 236.1,125.6 235.6,128 235.6,128 234.1,135 233.5,137.9 
		238.2,138.6 238.9,141.4 243.4,141.4 243.9,137.9 	"/>
	<polygon class="st2" points="231.2,129.6 231.7,129.4 234.3,128.4 229.4,124 220.6,127.6 220.6,131.7 224.8,132.5 224.8,130.3 
		224.8,130.3 229.2,130.3 229.2,130.3 229.2,130.3 229.2,130.3 	"/>
	<polygon class="st2" points="224.8,132.5 224.8,132.5 224.8,132.5 224.8,140.4 224.8,140.4 	"/>
	<polygon class="st2" points="220.6,131.7 216.5,130.9 216.5,135 216.5,135 215.1,136.2 216.3,137.5 216.3,142.9 224.8,140.4 
		224.8,132.5 	"/>
	<rect x="224.8" y="130.3" class="st2" width="4.4" height="0"/>
	<polygon class="st2" points="224.8,132.5 224.8,132.5 224.8,140.4 224.8,140.4 224.8,140.4 230.6,138.8 229.2,130.3 224.8,130.3 	
		"/>
	<polygon class="st2" points="375.1,108.4 374.6,105.1 372.3,106 372.3,106 370.3,103.4 368.9,104 370.8,110.1 372.1,108.9 
		377.6,113.6 378,111.1 	"/>
	<polygon class="st2" points="215.1,99.7 216,99.7 216,99 216,99 228.2,92.3 228.2,87.5 228.2,87.5 219.2,88.4 210.6,99.7 
		211.7,99.7 	"/>
	<polygon class="st2" points="253.5,135.3 253.5,135.3 253.5,135.3 253.5,135.3 253.5,135.3 	"/>
	<polygon class="st2" points="253.5,135.3 253.5,135.3 252.4,139.5 252.4,139.5 253.5,135.3 	"/>
	<polygon class="st2" points="247.9,51 246.9,51.5 246.6,53.1 248.5,53.1 249.1,52.2 	"/>
	<polygon class="st2" points="265.1,129.7 253.5,135.3 252.4,139.5 255.4,143.8 260,143.8 260.4,140.7 274.3,140.3 265.1,129.7 
		265.1,129.7 	"/>
	<polygon class="st2" points="386.5,122.3 387.8,127.2 387.5,132.2 389.5,128.2 385.9,115.1 388.4,113.3 388.4,111.6 384,104.3 
		384,104.3 384,104.3 385.1,101.3 382.6,100.2 379.2,102.6 379.2,102.9 377.6,113.6 380.2,115.7 381.1,120.7 382.9,121.3 
		384.2,119.7 	"/>
	<polygon class="st2" points="252.3,131.8 252.3,131.8 253.5,135.3 253.5,135.3 	"/>
	<polygon class="st2" points="235.6,128 235.6,128 235.6,128 236.1,125.6 235.6,128 	"/>
	<polygon class="st2" points="253.9,108.8 253.9,108.8 255.3,118.3 251.7,125.6 255.3,118.3 	"/>
	<polygon class="st2" points="420.5,150.3 420.5,141.3 417.7,141.6 415.4,145.9 407.9,147.6 406.2,146.6 406.2,146.6 406.2,146.6 
		406.2,146.6 406.3,150.9 408.8,155.2 416.6,155.2 	"/>
	<polygon class="st2" points="253.5,135.3 265.1,129.7 265.1,129.7 253.5,135.3 253.5,135.3 253.5,135.3 	"/>
	<polygon class="st2" points="251.7,125.6 251.7,125.6 254.6,131.8 254.6,131.8 	"/>
	<polygon class="st2" points="274.4,140.3 267.2,132.1 265.1,129.7 274.3,140.3 	"/>
	<polygon class="st2" points="244.3,95.6 248.6,91 248.6,91 244.3,95.6 	"/>
	<polygon class="st2" points="244.3,95.6 244.3,95.6 244.3,95.6 244.3,95.6 	"/>
	<polygon class="st2" points="248.6,91 246.9,90.6 247.1,84.8 242.1,84.6 242.8,88.3 244.3,95.6 	"/>
	<polygon class="st2" points="246,103.4 244.3,95.6 244.3,95.6 	"/>
	<polygon class="st2" points="267.7,121.2 265.1,123.7 265.1,123.7 267.7,121.2 268,115.3 268,115.3 	"/>
	<polygon class="st2" points="244.3,95.6 244.3,95.6 244.3,95.6 242.8,88.3 244.3,95.6 	"/>
	<polygon class="st2" points="228.2,92.3 216,99 216,99.7 216,99.7 216,100.6 233.1,113.3 236.6,115.8 246.9,108.8 247.1,108.8 
		246,103.4 244.3,95.6 244.3,95.6 242.8,88.3 242.1,84.6 236.1,84.5 228.2,87.5 228.2,92.3 	"/>
	<polygon class="st2" points="257.9,108.8 268,115.3 268,115.3 257.9,108.8 253.9,108.8 253.9,108.8 	"/>
	<polygon class="st2" points="268,115.3 268,115.3 268,115.3 268,115.3 	"/>
	<polygon class="st2" points="253.9,108.8 253.9,108.8 247.1,108.8 247.1,108.8 	"/>
	<polygon class="st2" points="253.9,108.8 253.9,108.8 253.9,108.8 253.9,108.8 	"/>
	<polygon class="st2" points="247.1,108.8 246.9,108.8 236.6,115.8 236.6,121.1 229.4,124 234.3,128.4 235.6,128 236.1,125.6 
		251.7,125.6 255.3,118.3 253.9,108.8 247.1,108.8 247.1,108.8 247.1,108.8 	"/>
	<polygon class="st2" points="215,16.8 220.4,15.7 222.2,13.8 206.9,12.3 193.6,13.8 177.5,13.8 168.2,17 160.8,19.3 160.8,21.6 
		172.1,21.7 175,26.7 175,31.2 169.6,34.3 169.8,40.4 173.1,43.8 177.2,43.8 183.3,37.4 192,34.8 195.2,32.3 201.8,31.9 206.4,30.6 
			"/>
	<polygon class="st2" points="68.1,97.3 72.7,97.2 76.5,104.6 76.5,104.6 72.7,97.2 68.1,97.3 65.9,94 49.6,91.9 49.6,91.9 65.9,94 
			"/>
	<polygon class="st2" points="86.1,123.5 85.3,125 88.1,126.3 88.6,124.6 	"/>
	<path class="st2" d="M65.9,94l2.2,3.3l4.6-0.2l3.8,7.4l0,0l0,0l7.1-8.9l16.8,0.1l1.1,8.4l2.7,0.1l0.1-10.4l27.2-23.2l1.8-0.3
		l1.1-3.3h-2.9l-3.2,2.8h-7.5l-2.3,1.6h1.8l-2.5,1.7h-1.8l2.5-1.7l-3.3,0.1l0-0.1h-1.5l-2.1,1.6l-2.2,0.2l0.4-3.7H108l-1.9,1.3
		l-3.6,5.3h-2.1l4.1-6.6l4.8-1l-0.3-0.9l-3.2-0.1l-1.5-0.9l-1.9,0.9h-2.2l0.9-1.9l-4.6-2.1H57.7L44.9,76.9v10.4l4.7,4.7l0,0l0,0
		L65.9,94z M110.9,74.4h3l-2.5,1.7h-3L110.9,74.4z"/>
	<polygon class="st2" points="58.1,47.7 56.4,45.9 54.6,45.9 52.7,43.8 68.5,30.2 68.5,30.2 52.7,43.8 54.5,45.9 56.4,45.9 58,47.7 
		56.2,49.7 56.2,49.7 	"/>
	<polygon class="st2" points="128.1,69.8 131.3,67 131.3,67 	"/>
	<polygon class="st2" points="56.4,45.9 54.5,45.9 52.7,43.8 68.5,30.2 68.5,30.2 68.5,30.2 68.5,30.2 64.8,28.7 45.7,28.8 38,31.9 
		38,35.4 29.3,35.3 27.7,37.6 35,37.3 25.6,40.8 21,47 24.9,47 17.4,51.9 20.1,52.1 34.5,45.2 51.1,44.7 56.2,49.7 58,47.7 	"/>
	<polygon class="st2" points="475.3,157.3 469.9,160.1 471.9,161.3 475.3,159.3 	"/>
	<polygon class="st2" points="101.1,65.5 108.8,63.8 109.7,67.3 111.3,68.4 113.9,68.2 115,71.3 118.3,71.3 120.6,69.8 128.1,69.8 
		131.3,67 131.3,67 134.2,67 133.2,70.3 138.3,69.3 134.9,71 135.2,72.3 144.4,69.1 139.9,68.9 137.8,67 139.9,63.8 138.9,62.9 
		132.4,65.8 132.4,64.1 138.6,61.1 148.5,60.7 156,56.7 156.1,54.9 150.6,54 150,45 142.8,47.9 142.9,43.7 139.4,40.7 134.8,40.7 
		122.1,59.1 119.1,59.1 119.1,53.1 108.3,47.2 119.1,39.1 125.3,38 124,36.1 133.5,35 137.4,31 133.8,30.6 128.8,33.9 129.3,31.1 
		127,30.9 126.4,27.4 122.4,29.2 123.5,31.4 118.1,34 108.6,32.2 103.7,34.6 91.6,29.7 68.5,30.2 52.7,43.8 54.6,45.9 56.4,45.9 
		58.1,47.7 56.2,49.7 56.2,49.7 56.1,49.7 54.2,58.6 57.7,61.7 57.7,63.4 96.5,63.4 	"/>
	<polygon class="st2" points="112.1,114.4 113.1,115.8 111.3,115.8 111.3,116.5 115.1,116.5 115.1,114.4 	"/>
	<polygon class="st2" points="457.4,154.4 453,152 448.8,155.4 444.4,153.7 443.9,156.1 446.5,156 452.9,158.7 454.1,162 
		451.9,163.3 457.4,165.2 457.4,154.4 	"/>
	<polygon class="st2" points="103.9,117.2 104.9,118.1 107.9,118.1 107.9,117 106.9,116 103.9,116 	"/>
	<polygon class="st2" points="457.4,154.4 457.4,165.2 457.4,165.2 459.4,165.9 463.2,162.4 468.2,167.2 472.7,168.1 467.1,162.5 
		467.4,159.6 	"/>
	<polygon class="st2" points="130.2,187.7 130.2,187.7 138.3,193.2 138.3,196.7 138.3,196.7 138.3,193.2 	"/>
	<polygon class="st2" points="472.7,154.4 476.7,157.3 478.3,156.8 474.2,154.3 	"/>
	<polygon class="st2" points="131.8,39.8 132.4,38.3 128.9,36.8 125.9,39.2 	"/>
	<polygon class="st2" points="56,62.2 53.4,60 52.3,61 54.1,63.4 56,63.4 	"/>
	<polygon class="st2" points="125.1,26.5 126.1,23.8 119.5,26 121.3,27.7 	"/>
	<polygon class="st2" points="154.9,62.4 154.8,62.4 153.1,61.9 153.1,62 	"/>
	<polygon class="st2" points="153.1,59.7 147.3,65.5 147.4,65.5 153.1,59.8 	"/>
	<polygon class="st2" points="223.1,55.1 224.4,54.7 224.4,53.1 221.5,52.9 	"/>
	<polygon class="st2" points="147.3,19.3 141.3,19.3 142.2,20.2 148.7,20.2 149.8,21.1 159.3,16.7 166.9,15.1 172.7,11.9 
		149.7,13.6 149.7,14.8 157.5,14.7 156.4,16.1 148.3,16.3 149.4,18.1 145.9,17.6 	"/>
	<polygon class="st2" points="154.9,62.4 153.1,62 153.1,61.9 153.1,61.9 153.1,59.8 147.4,65.5 156.8,65.5 	"/>
	<polygon class="st2" points="153.1,61.9 153.1,59.7 153.1,59.8 153.1,61.9 	"/>
	<polygon class="st2" points="218.5,55.1 218.5,59.5 220.2,59.4 220.2,57.9 223.4,58.4 223.1,55.1 221.5,52.9 	"/>
	<polygon class="st2" points="221.1,75.6 217.8,75.1 217.6,81.5 219.2,84.3 220.1,84.4 220.1,84.4 220.1,84.4 	"/>
	<polygon class="st2" points="115,71.4 118.3,71.3 115,71.3 	"/>
	<polygon class="st2" points="227.6,55.4 225.9,56.3 227.4,58.5 224.4,61.3 228.4,60.6 232.4,60 232.7,58.5 233.5,58.5 233.7,56.8 
		231.1,56.2 227.8,48.7 225.3,48.6 225.3,52.7 227.6,52.9 	"/>
	<polygon class="st2" points="156.9,65.5 154.9,62.4 154.9,62.4 156.8,65.5 147.4,65.5 147.4,65.5 	"/>
	<polygon class="st2" points="235.7,78.7 233.5,80.6 235.7,80.6 	"/>
	<polygon class="st2" points="221.1,75.6 220.1,84.4 220.1,84.4 221.1,75.6 	"/>
	<polygon class="st2" points="102.6,28.1 97.6,29.4 103.8,31.8 108.1,30 112.8,31.1 116.4,30.3 112.9,28.7 115.6,25.2 112.9,25.2 
		111.3,27.3 110.7,25.2 107.8,26.3 104.8,24.9 99.4,26.8 	"/>
	<polygon class="st2" points="103.5,24.3 101.2,23.2 91.7,25.7 93.5,27.7 	"/>
	<line class="st2" x1="81.3" y1="123.1" x2="81.3" y2="123.1"/>
	<path class="st2" d="M90.6,115.2"/>
	<line class="st2" x1="87.5" y1="117.6" x2="87.5" y2="117.6"/>
	<polygon class="st2" points="132.4,25.2 131.4,23.8 126.8,24.9 127.2,26.6 	"/>
	<polygon class="st2" points="121.3,30.7 120.5,29.4 117.5,30.7 118.5,32.1 	"/>
	<polygon class="st2" points="145.5,15.7 143.7,14.4 138.8,16.5 143,17.3 	"/>
	<polygon class="st2" points="148.3,21.4 139.9,21.4 137.1,20.2 134.3,22.6 145.4,23.4 	"/>
	<polygon class="st2" points="151.5,40.2 151.5,35.5 155.1,36.8 157.2,35.4 156,33.2 153.9,32.5 153.8,29.2 142.3,24.5 140.5,24.4 
		136.5,27.7 137.9,24.4 135.9,24.4 131.3,29.4 142.6,28.8 149.5,35 144.9,34.9 142.5,36.8 137.3,36.8 137.3,38.3 142.6,38.3 
		147.2,42.1 148.4,41.5 147.3,39.1 150.5,40.6 	"/>
	<polygon class="st2" points="137.6,188.2 145.1,192.1 145.3,194.9 145.3,194.9 145.1,192.1 137.6,188.2 137.5,183.7 137.5,183.7 	
		"/>
	<polygon class="st2" points="211.6,35.8 207.9,35.8 207.1,36.9 204.9,36.8 204.9,38.8 212.5,39.9 217,37.7 217,37.1 214.8,34.8 	
		"/>
	<polygon class="st2" points="137.5,183.7 137.4,179.8 137.4,179.8 137.5,183.7 	"/>
	<polygon class="st2" points="140.6,201.7 140.6,209.3 146.5,211.5 148.8,207.4 148.8,207.4 148.8,207.4 	"/>
	<polygon class="st2" points="140.6,201.7 148.8,207.4 148.8,207.4 140.6,201.7 	"/>
	<polygon class="st2" points="157.3,154.1 157.6,151.9 153.8,150.2 150.1,152.4 151.3,149.2 148.9,148.1 145.3,150.8 147.9,147 
		145.6,142.1 144.7,144.9 141.4,145.2 139.3,145.5 132.1,146.3 132.4,140.2 130.3,140.9 130.3,140.9 125.4,142.7 125.7,146.7 
		122,147.9 122,147.9 122,147.9 120.9,145.3 120,145.4 116.6,145.6 116.6,155.1 116.5,155.1 116.5,155.1 116.5,156.8 116.5,156.8 
		112.1,157.3 110.2,163.7 117.6,170 124.2,168.1 128.7,172.7 137.4,179.8 137.4,179.8 137.5,183.7 137.6,188.2 145.1,192.1 
		145.3,194.9 145.3,194.9 145.3,194.9 145.3,194.9 145.4,196.8 140.6,201.7 140.6,201.7 140.6,201.7 140.6,201.7 148.8,207.4 
		153.6,199 154.8,191.7 166.4,186.6 168.6,170.5 173.6,163.9 173.6,159.9 165.4,154.5 	"/>
	<polygon class="st2" points="108.3,150.3 101.8,146.7 101.8,146.7 108.3,150.3 	"/>
	<polygon class="st2" points="108.3,150.4 108.2,150.3 101.9,158.1 101.9,158.1 	"/>
	<polygon class="st2" points="119.2,181 119.2,181 118.4,182.9 118.4,182.9 	"/>
	<polygon class="st2" points="250.7,145.1 255,145.1 255.4,143.8 255.4,143.8 252.4,139.5 252.4,139.5 252.4,139.5 253.5,135.3 
		252.3,131.8 252.3,131.8 254.6,131.8 251.7,125.6 251.7,129 247.6,137.7 243.9,137.9 243.4,141.4 245,141.4 244.9,145.1 
		244.9,145.1 247.7,145.1 	"/>
	<polygon class="st2" points="415.4,145.9 417.7,141.6 420.5,141.3 420.5,138 417.6,138.3 414.2,142.9 406.2,146.6 407.8,147.6 	"/>
	<polygon class="st2" points="289.1,142 288,140.9 288,140.9 289.1,142 	"/>
	<polygon class="st2" points="421.6,166.4 422.4,167.3 424.1,167.3 423.5,166 	"/>
	<rect x="278.2" y="194.9" class="st2" width="1.8" height="0"/>
	<polygon class="st2" points="274.9,169.1 274.9,169.1 278.1,170.4 278.2,170.4 	"/>
	<polygon class="st2" points="407.9,147.6 415.4,145.9 417.7,141.6 420.5,141.3 420.5,141.3 417.7,141.6 415.4,145.9 407.8,147.6 
		406.2,146.6 406.2,146.6 	"/>
	<polygon class="st2" points="306.4,135.5 306.3,135.6 306.4,135.5 	"/>
	<polygon class="st2" points="202.5,128.1 204.8,130.5 207.2,128 202.5,128 	"/>
	<polygon class="st2" points="300.4,180.2 299.6,186 298.2,189.9 299.9,193.9 304,194.1 310.9,171.8 308.4,171.8 	"/>
	<polygon class="st2" points="427.3,164.6 426,163.8 423.5,163.8 424,165.4 426.3,165.4 	"/>
	<polygon class="st2" points="425.3,151.1 424.6,150.1 426.1,148.4 428.8,149.4 430.2,149.3 432.3,146.8 430.5,146.8 429.3,147.6 
		425.4,146.6 422.9,148.9 423,152.6 421.5,154.6 422.5,159.3 424.3,158.8 423.8,155.5 424.9,154.3 425.8,156.7 428,157.5 428,155.7 
		426.7,153 429.1,151 	"/>
	<polygon class="st2" points="296.8,128.1 295.8,129 295.8,129 296.8,128.1 	"/>
	<polygon class="st2" points="145.4,196.8 145.3,194.9 145.3,194.9 145.4,196.8 140.6,201.7 140.6,201.7 140.6,201.7 	"/>
	<polygon class="st2" points="436.4,89.8 433.7,90.2 435.2,91.8 	"/>
	<polygon class="st2" points="125.4,142.7 125.7,146.7 122,147.9 122,147.9 125.7,146.7 125.4,142.7 130.3,140.9 130.3,140.9 
		130.3,140.9 	"/>
	<polygon class="st2" points="434.9,165.4 434.9,164.2 430.8,164.2 431.9,165.7 	"/>
	<polygon class="st2" points="130.3,140.9 132.4,140.2 132.4,140.2 	"/>
	<polygon class="st2" points="116.5,145.6 116.5,155.1 116.6,155.1 116.6,145.6 120,145.4 120,145.4 	"/>
	<polygon class="st2" points="120,145.4 120,145.4 120.9,145.3 120.9,145.3 	"/>
	<polygon class="st2" points="104.3,133.8 104.3,133.8 104.7,135.3 104.4,134 	"/>
	<polygon class="st2" points="446.3,150.6 441.7,151.2 446.8,153.5 	"/>
	<polygon class="st2" points="440.1,154.1 436.4,154.1 435.9,155.6 440.1,155.2 	"/>
	<polygon class="st2" points="436.9,146.6 438,145.2 437.3,144.4 435.9,145.8 435.4,149.2 437.3,149.7 	"/>
	<polygon class="st2" points="110.2,163.7 117.6,170 117.6,170 110.2,163.7 112.1,157.3 116.5,156.8 116.5,156.8 112.1,157.3 	"/>
	<polygon class="st2" points="119.2,181 119.2,181 119.2,169.5 119.2,169.5 119.2,181 	"/>
	<polygon class="st2" points="132.4,140.2 132.4,140.2 132.1,146.3 137,145.7 137,145.7 135.3,141.4 136.8,138.6 131.7,133.8 
		130.3,140.9 	"/>
	<polygon class="st2" points="130.3,140.9 130.3,140.9 131.7,133.8 131.7,133.8 	"/>
	<polygon class="st2" points="96.8,132.5 96.8,132.5 95.3,134.4 95.3,134.4 	"/>
	<polygon class="st2" points="137,145.7 139.3,145.5 141.4,145.2 141.6,139.1 136.8,138.6 135.3,141.4 	"/>
	<polygon class="st2" points="431.9,165.7 430.8,164.2 428.3,167 430.2,167.3 	"/>
	<polygon class="st2" points="139.3,145.5 141.4,145.2 141.4,145.2 	"/>
	<polygon class="st2" points="137,145.7 137,145.7 135.3,141.4 	"/>
	<polygon class="st2" points="141.4,145.2 144.7,144.9 141.4,145.2 	"/>
	<polygon class="st2" points="144.7,144.9 145.6,142.1 144.4,139.3 141.6,139.1 141.4,145.2 	"/>
	<polygon class="st2" points="298.9,117.9 297.6,120.2 297.6,120.2 	"/>
	<polygon class="st2" points="388.4,111.6 388.4,113.3 388.4,111.6 	"/>
	<rect x="388.4" y="111.6" class="st2" width="0" height="0"/>
	<polygon class="st2" points="388.4,111.6 384,104.3 384,104.3 388.4,111.6 388.4,111.6 	"/>
	<polygon class="st2" points="390.6,110.5 390.6,110.5 388.4,111.6 388.4,111.6 	"/>
	<polygon class="st2" points="388.4,113.3 385.9,115.1 388.4,113.3 	"/>
	<polygon class="st2" points="248.4,152.8 253,152.8 250.7,145.1 247.7,145.1 247.7,147.7 244.8,147.7 244.7,152.1 248.4,156.9 
		248.4,152.8 	"/>
	<polygon class="st2" points="257.4,68.5 258.6,68.3 258.7,68.3 258.7,68.3 258.6,68.3 261.2,67.8 261.2,67.8 264.3,64.6 
		263.1,64.6 263.1,63.8 256.3,65.1 253.8,67.1 254.5,67.4 254.5,67.4 254.5,67.4 254.5,67.4 	"/>
	<polygon class="st2" points="258.7,68.3 258.6,68.3 257.4,68.5 254.5,67.4 254.5,67.4 257.4,68.5 	"/>
	<polygon class="st2" points="258.9,69.5 258.7,68.5 258.7,68.3 257.4,68.5 254.5,67.4 253.5,69 251.4,70.1 252.1,70.1 255.5,74 
		256.2,74.2 254.3,70.1 254.3,70.1 254.3,70.1 	"/>
	<polygon class="st2" points="390.5,114.5 390.5,114.5 388.4,113.3 388.4,113.3 	"/>
	<polygon class="st2" points="390.5,114.5 390.5,117.8 395.7,117.8 395.7,117.8 398.6,121.7 395.9,124.5 402,124.5 402,122.9 
		396,116.6 394.7,112.5 390.6,110.5 388.4,111.6 388.4,113.3 390.5,114.5 	"/>
	<polygon class="st2" points="253.8,67.1 253.8,67.1 254.5,67.4 254.5,67.4 	"/>
	<polygon class="st2" points="248.6,45.3 248.6,38.7 248.6,38.7 258.8,31.3 260.4,31.3 260.4,31.3 260.4,31.3 260.4,31.3 
		264.3,31.3 264.3,29.5 258.6,29.7 239,43.3 240.9,48 246.8,47 247.3,47.5 247.3,47.5 247.3,47.5 	"/>
	<polygon class="st2" points="423.3,74.5 423.3,74.5 423.2,74.5 423.3,74.5 423.3,74.5 	"/>
	<polygon class="st2" points="423.2,74.5 416.9,78.9 416.9,78.9 423.2,74.5 	"/>
	<polygon class="st2" points="416.9,78.9 418.8,82.4 421.2,83.1 423.1,81.3 421.2,79.7 423.7,79.4 423.3,74.5 423.2,74.5 	"/>
	<polygon class="st2" points="258.8,31.3 248.6,38.7 248.6,38.7 258.8,31.3 260.4,31.3 260.4,31.3 	"/>
	<polygon class="st2" points="373.1,101.3 373.1,101.3 373.1,101.3 376.9,97.7 378.8,98.6 376.9,97.7 	"/>
	<polygon class="st2" points="398.6,121.7 395.7,117.8 390.5,117.8 390.5,114.5 388.4,113.3 385.9,115.1 389.5,128.2 387.5,132.2 
		387.5,132.2 387.4,134.2 390.9,137.2 391.3,138.3 393.4,138 390,132.9 390.8,125.1 394.6,128.9 394.6,125.7 	"/>
	<polygon class="st2" points="261.5,78.4 261.2,75.3 260.8,74.7 260.3,73.9 258.7,74.8 260.3,73.9 259.8,73.3 259.5,72.8 
		257.3,74.4 259.6,78.7 259.8,79 259.8,79 259.8,78.9 	"/>
	<polygon class="st2" points="402,128.1 398.7,130.5 398.8,130.5 	"/>
	<polygon class="st2" points="402,124.5 395.9,124.5 394.6,125.7 394.6,128.9 394.6,128.9 396.6,130.8 398.7,130.5 402,128.1 	"/>
	<polygon class="st2" points="396,107.7 390.6,110.5 390.6,110.5 396,107.7 401,112 401,112 	"/>
	<polygon class="st2" points="423.2,74.5 423.2,74.5 423.2,66 412.7,63.3 405,55.8 397.5,55.8 399.2,61.8 399.2,61.8 399.2,61.8 
		396,62.5 397.7,65.3 402.2,66 401.8,68.4 395.3,69.8 392.9,74.7 372.8,74.5 355.4,64.3 347.9,70.1 349.2,75.9 349.2,75.9 
		349.2,75.9 349.2,75.9 349.2,75.9 349.2,75.9 341.7,78.7 342.3,80.3 342.3,80.3 343.8,83.9 344.6,84.3 344.6,84.3 349.3,86.5 
		351.8,87.6 352.1,94 355,95 358.7,96.3 371.4,100.7 373.1,101.3 373.1,101.3 373.1,101.3 373.1,101.3 376.9,97.7 378.8,98.6 
		385.2,101.3 384,104.3 388.4,111.6 390.6,110.5 390.6,110.5 390.6,110.5 390.6,110.5 396,107.7 401,112 401,112 401,112 
		403.1,110.8 403.2,112.8 415.6,108.4 419.7,99.2 412.4,87.3 416.2,83.2 411.9,83.2 410.5,84.1 407.8,79.6 411.2,76.6 413.6,81.1 
		416.9,78.9 416.9,78.9 416.9,78.9 	"/>
	<polygon class="st2" points="390.6,110.5 394.7,112.5 396,116.6 402,122.9 402,124.5 402,128.1 398.8,130.5 398.7,130.5 398.8,134 
		405,129.9 404.8,123.8 398.3,117 398.7,113.3 401,112 396,107.7 	"/>
	<polygon class="st2" points="371.4,100.7 369.3,100 368.9,102.1 372.3,102.9 373.1,101.3 	"/>
	<polygon class="st2" points="324.3,86.7 330.5,83.5 320.2,75.2 315.8,75.2 313.1,76.2 310.4,74 307.3,74.8 312.3,78.9 312.1,83.2 
		316,81.9 322.2,83.9 322.6,84 	"/>
	<polygon class="st2" points="312.1,83.2 312.1,83.2 316,81.9 322.2,83.9 316,81.9 	"/>
	<polygon class="st2" points="302.1,76.2 302.1,76.2 302.1,76.2 299.7,75.6 298.3,77.7 301.2,80.4 304.2,80.1 304.3,80.1 
		304.3,80.1 	"/>
	<polygon class="st2" points="260.8,74.7 261.2,75.3 264.9,74.6 264.4,73.3 264,72.4 264,72.4 261.2,67.8 261.2,67.8 258.7,68.3 
		258.7,68.5 258.9,69.5 258.9,69.5 259.5,72.8 259.8,73.3 260.3,73.9 	"/>
	<polygon class="st2" points="332,97.4 337.9,92 339.5,85 338.4,82.1 333.9,84.4 333.9,84.4 330.5,83.5 330.5,83.5 330.5,83.5 
		324.3,86.7 324.3,86.7 324.3,86.7 323,89.4 323,89.5 325.7,97.3 	"/>
	<polygon class="st2" points="258.9,69.5 258.9,69.5 258.9,69.5 259.5,72.8 258.9,69.5 	"/>
	<polygon class="st2" points="325.7,97.3 323,89.5 325.7,97.3 325.7,97.3 325.7,97.3 	"/>
	<polygon class="st2" points="260.3,73.9 259.8,73.3 260.3,73.9 	"/>
	<polygon class="st2" points="351.1,61.8 355.4,64.4 355.4,64.3 351.1,61.8 325.9,52.9 315.9,55.2 315.9,55.2 325.8,52.9 	"/>
	<rect x="298.3" y="59.6" class="st2" width="17.6" height="0"/>
	<polygon class="st2" points="300.6,68.4 305.7,66.4 308.7,68.4 305.1,70.2 304.9,72.8 307.3,74.8 310.4,74 313.1,76.2 312.7,70.3 
		312.7,70.3 312.7,70.3 316.9,69.4 322.4,73.2 327,72.3 330.4,76.7 333.6,76.6 336.8,74 344.4,73.6 349.2,75.9 347.9,70.1 
		347.9,70.1 347.9,70.1 355.4,64.3 355.4,64.3 355.4,64.4 351.1,61.8 325.8,52.9 315.9,55.2 315.9,59.6 315.9,59.6 315.9,59.7 
		298.3,59.7 298.3,65.5 	"/>
	<polygon class="st2" points="302.1,76.2 299.8,75.6 299.7,75.6 302.1,76.2 	"/>
	<polygon class="st2" points="248.6,45.3 247.3,47.5 247.3,47.5 248.6,45.3 	"/>
	<polygon class="st2" points="355,95 354.9,98.6 366.3,102.9 368.4,99.6 358.7,96.3 	"/>
	<polygon class="st2" points="355,95 355,95 358.7,96.3 	"/>
	<polygon class="st2" points="352.1,94 351.8,87.6 349.3,86.5 349.3,86.5 351.8,87.6 352.1,94 355,95 355,95 	"/>
	<polygon class="st2" points="254.3,70.1 256.2,74.2 257.3,74.4 259.5,72.8 258.9,69.5 	"/>
	<polygon class="st2" points="373.1,101.3 371.4,100.7 373.1,101.3 	"/>
	<polygon class="st2" points="325.7,97.3 325.7,97.3 325.7,97.3 325.7,97.3 	"/>
	<polygon class="st2" points="258.9,69.5 254.3,70.1 254.3,70.1 258.9,69.5 	"/>
	<polygon class="st2" points="337.9,92 332,97.4 325.7,97.3 325.7,97.3 332,97.4 337.9,92 339.5,85 339.5,85 	"/>
	<polygon class="st2" points="344.6,84.3 344.6,84.3 344.6,84.3 344.6,84.3 349.3,86.5 349.3,86.5 	"/>
	<polygon class="st2" points="344.6,84.3 344.6,84.3 344.6,84.3 344.6,84.3 	"/>
	<polygon class="st2" points="339.5,85 339.5,85 339.5,85 344.6,84.3 344.6,84.3 	"/>
	<rect x="260.4" y="31.3" class="st2" width="3.9" height="0"/>
	<polygon class="st2" points="243,65.8 241.7,66.4 241.5,67.6 241.3,68.3 243.6,68.5 245.6,68 244.8,65.8 	"/>
	<polygon class="st2" points="240.6,61.8 240.6,61.8 242.5,62.8 242.5,62.8 	"/>
	<polygon class="st2" points="240.6,60.7 240.6,60.7 240.6,60.7 240.7,60.2 240.7,59.8 237.8,58.3 235.9,59.4 239.6,61.3 	"/>
	<polygon class="st2" points="241.3,68.3 241.3,68.3 243.6,68.5 245.6,68 245.6,68 243.6,68.5 	"/>
	<polygon class="st2" points="256.2,65.1 256.3,65.1 254.4,63.3 254.4,63.3 	"/>
	<polygon class="st2" points="239.6,61.3 240.6,60.7 240.6,60.7 	"/>
	<polygon class="st2" points="241.3,68.3 241.3,68.3 241.5,67.6 241.7,66.4 241.7,66.4 241.7,66.4 241.7,66.4 242.2,64 242.5,62.8 
		240.6,61.8 240.6,61.8 235.9,59.4 228.3,64 225.4,64 225.4,65.1 228.8,66.9 229.2,72.8 234.1,76 235.6,74 242.8,74 243,71 
		243.2,71 241,70 	"/>
	<polygon class="st2" points="261.2,67.8 261.2,67.8 258.6,68.3 258.7,68.3 261.2,67.8 261.2,67.8 261.2,67.8 	"/>
	<polygon class="st2" points="261.2,67.8 264.3,64.6 264.3,64.6 261.2,67.8 	"/>
	<polygon class="st2" points="241,70 241.3,68.3 241.3,68.3 	"/>
	<polygon class="st2" points="241.7,66.4 241.7,66.4 242.2,64 	"/>
	<polygon class="st2" points="241.7,66.4 241.5,67.6 241.7,66.4 	"/>
	<polygon class="st2" points="261.2,67.8 261.2,67.8 261.2,67.8 261.2,67.8 	"/>
	<polygon class="st2" points="256.3,65.1 256.2,65.1 256.3,65.1 263.1,63.8 263.1,62.8 256.9,62 256.6,61.9 254.4,63.3 	"/>
	<polygon class="st2" points="240.6,60.7 240.7,60.2 240.6,60.7 	"/>
	<polygon class="st2" points="254.4,63.3 254.4,63.3 249.8,63.3 249.8,63.3 254.4,63.3 	"/>
	<polygon class="st2" points="249.8,63.3 249.8,63.3 249.8,63.3 254.4,63.3 254.4,63.3 256.6,61.9 256.6,61.9 252.3,60.2 
		248.4,61.4 249.8,63.3 	"/>
	<polygon class="st2" points="256.2,65.1 254.4,63.3 249.8,63.3 250.9,64.8 250.9,64.8 250.9,64.8 247.7,65.7 247.4,65.8 
		244.9,65.8 245.6,68 249.4,67.1 249.4,67.1 253.8,67.1 253.8,67.1 255.6,65.6 	"/>
	<polygon class="st2" points="258.8,31.3 248.6,38.7 248.6,45.3 248.6,45.3 247.3,47.5 251.1,51.8 257.3,46.4 254.4,42.8 
		260.9,35.6 262.2,35.6 260.4,31.3 	"/>
	<polygon class="st2" points="254.4,63.3 256.6,61.9 256.6,61.9 	"/>
	<polygon class="st2" points="240.6,61.8 240.6,60.7 239.6,61.3 	"/>
	<polygon class="st2" points="247.7,65.7 250.9,64.8 250.9,64.8 247.4,65.8 244.8,65.8 244.9,65.8 247.4,65.8 	"/>
	<polygon class="st2" points="249.4,67.1 249.4,67.1 245.6,68 245.6,68 249.4,67.1 249.4,67.1 249.4,67.1 	"/>
	<polygon class="st2" points="249.4,67.1 249.4,67.1 249.4,67.1 249.4,67.1 	"/>
	<polygon class="st2" points="249.4,67.1 249.4,67.1 253.8,67.1 253.8,67.1 253.8,67.1 	"/>
	<polygon class="st2" points="249.8,63.3 249.8,63.3 249.8,63.3 248.4,61.4 248.4,61.4 	"/>
	<polygon class="st2" points="249.4,67.1 249.4,67.1 251,70.1 251,70.1 	"/>
	<polygon class="st2" points="267.5,49.2 267.5,49.2 265.2,48 	"/>
	<polygon class="st2" points="269.5,51.8 269.5,51.8 269.5,51.8 269.1,48.8 269,48.8 269,48.8 	"/>
	<polygon class="st2" points="267.5,49.2 269,48.8 268.6,45.3 267.7,46.1 263.1,46.2 262.7,47.2 264.1,48.2 265.2,48 	"/>
	<polygon class="st2" points="265.2,51.4 260.9,50.3 260.9,52.5 263.3,53.3 264,54.6 264.5,56.1 268.3,52.8 	"/>
	<polygon class="st2" points="269.5,51.8 269.5,51.8 269.5,51.8 	"/>
	<polygon class="st2" points="268.3,52.8 269.5,51.8 269.5,51.8 269,48.8 269,48.8 267.5,49.2 267.5,49.2 265.2,48 264.1,48.2 
		264.4,48.4 264,49.9 260.9,48.4 260.9,50.3 265.2,51.4 	"/>
	<polygon class="st2" points="253.8,67.1 253.8,67.1 253.8,67.1 249.4,67.1 251,70.1 251,70.1 251,70.1 251.4,70.1 253.5,69 
		254.5,67.4 253.8,67.1 	"/>
	<polygon class="st2" points="267.2,29.3 267.3,29.3 267.3,29.3 264.3,29.4 264.3,29.5 264.3,31.3 264.3,31.3 260.4,31.3 
		262.2,35.6 263.2,35.6 260.1,42.7 263.8,44.6 269.3,44.6 272.5,41 	"/>
	<polygon class="st2" points="269.1,48.8 268.6,45.3 268.6,45.3 269,48.8 	"/>
	<polygon class="st2" points="272.5,41 267.3,29.3 267.2,29.3 272.5,41 269.3,44.6 269.3,44.6 	"/>
	<polygon class="st2" points="268.3,52.8 268.3,52.9 269.5,51.8 269.5,51.8 	"/>
	<polygon class="st2" points="249.4,67.1 245.6,68 245.6,68 245.6,68 245.6,68 243.6,68.5 241.3,68.3 241.3,68.3 241.3,68.3 241,70 
		243.2,71 245.8,71 253.8,79 254.2,82.4 255.7,81.6 256.2,79.1 258,78.8 248.2,70.3 251,70.1 249.4,67.1 	"/>
	<polygon class="st2" points="268.3,52.8 264.5,56.1 268.3,52.9 	"/>
	<polygon class="st2" points="264,72.4 264,72.4 264,72.4 264,72.4 	"/>
	<polygon class="st2" points="261.2,75.3 261.5,78.4 265.9,77 264.9,74.6 	"/>
	<polygon class="st2" points="258.9,69.5 258.7,68.5 258.9,69.5 	"/>
	<polygon class="st2" points="264,72.4 264,72.4 264,72.4 264,72.4 264,72.4 261.2,67.8 261.2,67.8 	"/>
	<polygon class="st2" points="258.9,69.5 258.9,69.5 258.9,69.5 258.9,69.5 	"/>
	<polygon class="st2" points="264.4,73.3 264,72.4 264,72.4 	"/>
	<polygon class="st2" points="275.9,56.4 273.1,51.8 269.5,51.8 268.3,52.9 264.5,56.1 265.3,58.3 272.5,59.5 277,58.5 274.3,57.4 	
		"/>
	<polygon class="st2" points="274.3,57.4 275.9,56.4 273.1,51.8 269.5,51.8 269.5,51.8 273.1,51.8 275.9,56.4 274.3,57.4 277,58.5 
		277,58.5 	"/>
	<polygon class="st2" points="260.3,73.9 260.8,74.7 260.3,73.9 	"/>
	<polygon class="st2" points="261.5,78.4 265.9,77 265.9,77 261.5,78.4 	"/>
	<polygon class="st2" points="270,75.7 270,75.7 265.9,77 266,77 	"/>
	<polygon class="st2" points="389.5,128.2 387.5,132.2 387.5,132.2 	"/>
	<polygon class="st2" points="290.5,92.5 290.5,92.6 299,97 300,97.6 300,97.6 301.6,97.6 302,96 305.5,95.9 297.7,82.7 294.1,83.4 
		292.7,89 290,90.6 290.5,92.5 	"/>
	<polygon class="st2" points="303,97.6 304.1,99 305.7,99 303.8,96 302,96 301.6,97.6 	"/>
	<polygon class="st2" points="300,97.6 300,97.6 299,97 	"/>
	<polygon class="st2" points="328.4,101.6 326.2,98.8 326.2,98.7 325.7,97.3 325.7,97.3 323,89.5 323,89.4 323,89.4 324.3,86.7 
		322.6,84 322.2,83.9 316,81.9 312.1,83.2 312.1,83.2 312.1,83.2 312,84.9 307,84.9 304.3,80.1 304.2,80.1 297.7,80.7 297.7,82.6 
		305.7,96.1 308,96.4 313.5,102.1 323.6,105.1 326.4,105.1 326.4,105.1 326.4,105.1 	"/>
	<polygon class="st2" points="298.3,77.7 296.4,77.7 297.7,80.7 301.2,80.4 	"/>
	<polygon class="st2" points="290.5,92.5 290.5,92.5 290,90.6 290,90.6 	"/>
	<polygon class="st2" points="313.5,109.3 316.1,109.6 316.1,109.6 313.5,109.3 312.1,106.7 312.1,106.7 	"/>
	<polygon class="st2" points="341.4,104.1 339.3,103.3 339.3,100.2 342.1,100.2 346.6,96.1 345.6,92.1 343.5,90.9 343.6,88.9 
		347,86.5 349.3,86.5 344.6,84.3 339.5,85 337.9,92 332,97.4 325.7,97.3 326.2,98.7 326.2,98.8 328.5,101.6 328.4,101.6 
		328.5,101.6 326.4,105.1 335.2,105.1 337.5,107.7 341.4,106.7 	"/>
	<polygon class="st2" points="316.1,109.6 319.8,105.9 318.1,104.4 315.4,107.4 312.1,106.7 313.5,109.3 	"/>
	<polygon class="st2" points="309.2,116.9 305.9,118.6 309.2,116.9 313.6,115.7 313.6,115.7 	"/>
	<polygon class="st2" points="286.3,88.5 286.3,88.5 284.9,91.2 286.8,92.5 292.7,89 294.1,83.4 285.3,85.2 284.7,87.9 286.3,88.5 	
		"/>
	<polygon class="st2" points="288.2,96.7 288.8,93.2 289.7,92.9 288.8,93.2 	"/>
	<polygon class="st2" points="328.4,101.6 326.4,105.1 326.4,105.1 328.5,101.6 	"/>
	<polygon class="st2" points="318.1,109.9 318.1,114.5 313.6,115.7 313.6,115.7 318.1,114.5 318.1,109.9 316.1,109.6 316.1,109.6 	
		"/>
	<polygon class="st2" points="298.9,117.9 303.4,118.5 303,120.2 305.9,118.6 309.2,116.9 313.6,115.7 318.1,114.5 318.1,109.9 
		316.1,109.6 313.5,109.3 312.1,106.7 312.1,106.7 309.2,104.8 305.7,99 304.1,99 303,97.6 300,97.6 300,97.6 300,97.6 299,97 
		290.4,92.6 289.7,92.9 288.8,93.2 288.2,96.7 288.2,96.8 287.4,97.2 286.2,97.8 286.2,97.8 286.2,97.8 284.9,97.6 297.4,119.4 
		297.6,120.2 298.9,117.9 	"/>
	<polygon class="st2" points="287.4,97.2 286.2,97.8 286.2,97.8 	"/>
	<polygon class="st2" points="288.2,96.8 288.2,96.7 288.8,93.2 289.7,92.9 290.4,92.6 290.5,92.5 290,90.6 290,90.6 290,90.6 
		286.8,92.5 284.9,91.2 284.9,97.6 284.9,97.6 284.9,97.6 286.2,97.8 287.4,97.2 	"/>
	<polygon class="st2" points="284.9,91.2 284.9,91.2 284.9,97.6 284.9,97.6 	"/>
	<polygon class="st2" points="286.3,88.5 286.3,88.5 284.7,87.9 284.7,87.9 	"/>
	<polygon class="st2" points="313.6,115.7 309.2,116.9 305.9,118.6 303,120.2 303.4,118.5 298.9,117.9 297.6,120.2 297.6,120.2 
		297.6,120.2 299.8,127.4 316.1,120.1 313.6,118.4 	"/>
	<polygon class="st2" points="240.6,60.7 240.6,61.8 242.5,62.8 242.5,62.8 242.5,62.8 242.2,64 241.7,66.4 243,65.8 244.9,65.8 
		244.8,65.8 247.4,65.8 250.9,64.8 249.8,63.3 249.8,63.3 248.4,61.4 248.4,61.4 248.4,61.4 252.3,60.2 251.8,54.6 245.9,54.6 
		245.6,53.5 243.6,53.5 244,54.5 240.9,56.4 240.7,60.2 240.6,60.7 	"/>
	<polygon class="st2" points="286.3,88.5 284.7,87.9 284.7,87.9 284.7,87.9 284.2,90.7 284.9,91.2 	"/>
	<polygon class="st2" points="269,92.9 268.9,94.6 269,92.9 	"/>
	<polygon class="st2" points="283,94.8 283,94.8 269,92.9 269,92.9 269,92.9 268.9,94.6 268.2,109.9 283.6,109.9 286.7,108.1 
		280.3,97.2 283.8,100 284.8,97.8 284.8,97.7 283,94.8 	"/>
	<polygon class="st2" points="283,94.8 283,94.8 284.8,97.7 284.8,97.7 	"/>
	<polygon class="st2" points="284.9,91.2 284.9,91.2 284.9,91.2 284.2,90.7 283,94.8 284.8,97.7 284.8,97.7 284.8,97.7 284.9,97.6 
		284.9,91.2 	"/>
	<polygon class="st2" points="295.3,144.7 295.4,144.7 298.6,142 298.5,142 289.1,142 289.1,142 288,140.9 285,141.3 285.9,145.1 
		285.5,148.2 285.4,148.2 284.1,150.6 292.4,156.1 295.3,152.7 295.3,152.7 295.3,152.7 	"/>
	<polygon class="st2" points="261.7,193.2 261.7,193.2 261.7,199.2 261.7,199.2 	"/>
	<polygon class="st2" points="275.9,201.8 275.9,199.9 274,199.9 272.1,201.1 272.1,203.2 274.5,203.2 	"/>
	<polygon class="st2" points="275.9,199.9 275.9,199.9 274,199.9 272.1,201.1 272.1,201.1 274,199.9 	"/>
	<polygon class="st2" points="370.3,103.4 372.3,106 374.6,105.1 374.6,105.1 375.1,108.4 378,111.1 379.2,102.9 379.2,102.6 
		382.6,100.2 382.6,100.2 378.8,98.6 376.9,97.7 373.1,101.3 373.1,101.3 372.3,102.9 368.9,102.1 369.3,100 368.4,99.6 
		366.3,102.9 354.9,98.6 355,95 352.1,94 351.8,87.6 349.3,86.5 347,86.5 343.6,88.9 343.5,90.9 345.6,92.1 346.6,96.1 346.6,96.1 
		342.1,100.2 339.3,100.2 339.3,103.3 341.4,104.1 341.4,106.7 337.5,107.7 337.9,108.1 341.1,109.1 339.6,110.7 341,112.5 
		343.5,112.8 344,110.7 345,110.7 353.1,134.1 358.3,130.9 359.1,121.5 370.8,110.1 368.9,104 	"/>
	<polygon class="st2" points="278.2,194.9 278.2,196.5 280,197.6 280,195.5 280,195.5 280,194.9 	"/>
	<path class="st2" d="M280,197.6l-1.8-1.1v0v-1.6v0h1.8v-5.9h-4.6l-10.9,7.3l-2.7-3.1v6h0v0h-6.6l3.9,10.6h12.7l9.8-11.3l0.4-3
		l-1.8,0V197.6L280,197.6z M275.9,201.8l-1.4,1.5h-2.4v0v-2.1v0l1.8-1.2h1.9v0h0V201.8z"/>
	<polygon class="st2" points="264,176.8 264,172.6 267.7,172.6 267.6,167.9 264.6,166.5 264.6,166.5 264.6,161.1 261.3,161.1 
		260.6,163.5 257.3,163.6 256.5,160.6 251.2,160.7 251.2,172.4 248.2,177.3 248.5,180.6 267,180.6 	"/>
	<polygon class="st2" points="254.6,157.3 259.3,149.6 260,143.8 255.4,143.8 255,145.1 250.7,145.1 253,152.8 253,152.8 
		248.4,152.8 248.4,156.9 250.2,159.3 250.2,159.3 250.2,159.3 	"/>
	<polygon class="st2" points="259.3,149.6 260,143.8 260,143.8 259.3,149.6 254.6,157.3 250.2,159.3 250.2,159.3 254.6,157.3 	"/>
	<polygon class="st2" points="284.6,170 284.6,172.6 286.8,174.1 286.8,177.3 284.7,179.2 284.7,175.5 282.5,173.7 282.5,173.7 
		278.4,176.6 282.5,179.2 282.5,179.2 282.5,182.9 282.5,182.9 280,188.9 280,188.9 280,194.9 280,194.9 280,195.5 281.8,195.4 
		281.9,194.5 285.7,191.9 285.4,183.9 294.4,176.5 293.5,168.2 286.4,169.7 284.6,170 	"/>
	<polygon class="st2" points="261.7,193.2 261.7,193.1 261.7,182.2 270.6,182.2 269.5,180.7 269.4,180.6 267,180.6 248.5,180.6 
		255.1,199.2 261.7,199.2 261.7,193.2 	"/>
	<polygon class="st2" points="277,172.6 278.1,170.4 274.9,169.1 274.9,169.1 274.9,169.1 275.9,164.7 281.3,163.9 280.7,163.1 
		276.9,157.8 276.9,157.8 276.9,157.8 276.9,157.8 275.9,156.4 275.9,156.4 275.9,156.4 276.1,155.7 276.5,153.8 277.3,150.2 
		279.2,142.4 279.3,142.1 279.3,142.1 274.3,140.3 260.4,140.7 260,143.8 260,143.8 260,143.8 260,143.8 259.3,149.6 254.6,157.3 
		250.2,159.3 251.2,160.7 256.5,160.6 257.3,163.6 260.6,163.5 261.3,161.1 264.6,161.1 264.6,161.1 264.6,166.5 	"/>
	<polygon class="st2" points="295.4,144.7 295.3,144.7 295.3,152.7 295.3,152.7 295.3,144.7 	"/>
	<polygon class="st2" points="288,140.9 288,140.9 289.1,142 298.5,142 306.3,135.6 306.4,135.5 299.3,133 295.8,129 295.8,129 
		295.8,129 296.8,128.1 294,123.8 287.3,123.8 282.5,135.1 283.1,135.8 	"/>
	<polygon class="st2" points="296.8,128.1 297.8,127.3 290.9,115.3 287.3,123.8 287.3,123.8 294,123.8 	"/>
	<polygon class="st2" points="296.8,128.1 297.8,127.3 296.8,128.1 	"/>
	<polygon class="st2" points="268,115.3 268,115.3 268,115.3 268,115.3 268.2,109.9 268.2,109.9 	"/>
	<polygon class="st2" points="283.1,135.8 282.5,135.1 282.5,135.1 	"/>
	<polygon class="st2" points="283.6,151.6 280.6,151.6 281.4,150.2 281.3,150.2 280,150.2 280,150.3 278.8,153.3 277,157.7 
		276.9,157.8 280.7,163.1 282.5,165.6 284.6,165.6 284.6,165.6 284.6,170 286.4,169.7 293.5,168.2 292.4,156.1 284.1,150.6 	"/>
	<polygon class="st2" points="316.1,109.6 318.1,109.9 318.1,114.5 313.6,115.7 313.6,118.4 316.1,120.1 324.3,109.9 319.8,105.9 	
		"/>
	<polygon class="st2" points="295.8,129 297.5,131 299.3,129.7 297.8,127.3 296.8,128.1 	"/>
	<polygon class="st2" points="263.1,92.1 260.6,95.7 255.3,94.7 253.1,92.1 248.6,91 248.6,91 248.6,91 244.3,95.6 246,103.4 
		247.1,108.8 253.9,108.8 253.9,108.8 257.9,108.8 268,115.3 268.2,109.9 268.2,109.9 268.9,94.6 269,92.9 	"/>
	<polygon class="st2" points="299.3,133 306.4,135.5 306.4,135.5 306.4,135.5 306.3,135.6 295.4,144.7 295.3,144.7 295.3,152.7 
		312.7,132.5 312,129 299.9,130.8 299.3,129.7 297.5,131 	"/>
	<polygon class="st2" points="310.4,102.9 309.7,105.1 311,106 311.9,105.1 	"/>
	<polygon class="st2" points="349.2,75.9 349.2,75.9 349.2,75.9 	"/>
	<polygon class="st2" points="372.8,74.5 392.9,74.7 395.3,69.8 401.8,68.4 402.2,66 397.7,65.3 396,62.5 396,62.5 387.4,62.5 
		369.8,58.1 367.9,62.5 367.9,62.5 367.9,62.5 360.8,60.3 355.4,64.3 	"/>
	<polygon class="st2" points="324.3,86.7 330.5,83.5 330.5,83.5 324.3,86.7 	"/>
	<polygon class="st2" points="337.5,76.4 337.5,76.4 333.6,76.6 333.6,76.6 	"/>
	<polygon class="st2" points="270,75.7 270,75.7 271.8,75.1 271.8,75.1 271.8,75.1 	"/>
	<polygon class="st2" points="367.9,62.5 360.8,60.3 360.8,60.3 367.9,62.5 	"/>
	<polygon class="st2" points="355.4,64.3 372.8,74.5 392.9,74.7 372.8,74.5 	"/>
	<polygon class="st2" points="399.2,61.8 399.2,61.8 396,62.5 396,62.5 	"/>
	<polygon class="st2" points="270.8,71.6 264,72.4 264,72.4 270.8,71.6 272.8,72.1 272.8,72.1 	"/>
	<polygon class="st2" points="396,62.5 396,62.5 396,62.5 387.4,62.5 369.8,58.1 369.8,58.1 387.4,62.5 	"/>
	<polygon class="st2" points="264,72.4 264.4,73.3 265.9,77 270,75.7 271.8,75.1 271.8,75.1 272.8,72.1 270.8,71.6 	"/>
	<polygon class="st2" points="343.8,83.9 344.6,84.3 344.6,84.3 343.8,83.9 342.3,80.3 342.3,80.3 	"/>
	<polygon class="st2" points="266,77 265.9,77 265.9,77 265.9,77 261.5,78.4 259.8,79 261.2,80.6 264,81.4 262.3,82.1 264.5,84.8 
		265.9,82.6 264.4,79.3 267.4,77.7 270,77.7 270,75.7 	"/>
	<polygon class="st2" points="312.7,70.3 312.7,70.3 313.1,76.2 313.1,76.2 	"/>
	<polygon class="st2" points="261.5,78.4 259.8,78.9 259.8,79 261.5,78.4 	"/>
	<polygon class="st2" points="336.8,74 333.6,76.6 337.5,76.4 337.5,76.4 337.5,76.4 337.2,78.5 334,79.4 338,80.7 342.3,80.3 
		341.7,78.7 341.7,78.7 341.7,78.7 349.2,75.9 349.2,75.9 344.4,73.6 	"/>
	<polygon class="st2" points="264.3,64.6 264.3,64.6 264.3,64.6 261.2,67.8 264,72.4 264,72.4 270.8,71.6 272.8,72.1 272.8,72.1 
		272.8,72.1 273.6,69.6 272.1,69 269.9,64.6 	"/>
	<polygon class="st2" points="342.3,80.3 342.3,80.3 342.3,80.3 341.7,78.7 341.7,78.7 	"/>
	<polygon class="st2" points="332.4,79.9 332.4,79.8 337.2,78.5 337.5,76.4 333.6,76.6 333.6,76.6 330.4,76.7 327,72.3 322.4,73.2 
		316.9,69.4 312.7,70.3 313.1,76.2 313.1,76.2 313.1,76.2 315.8,75.2 320.2,75.2 330.6,83.5 333.9,84.4 332.4,79.9 	"/>
	<polygon class="st2" points="332.4,79.9 332.4,79.9 333.9,84.4 333.9,84.4 	"/>
	<polygon class="st2" points="270,75.7 270,77.7 273,77.7 271.8,75.1 271.8,75.1 	"/>
	<polygon class="st2" points="342.3,80.3 338,80.7 334,79.4 332.4,79.9 333.9,84.4 333.9,84.4 333.9,84.4 338.4,82.1 338.4,82.1 
		339.5,85 339.5,85 344.6,84.3 343.8,83.9 	"/>
	<polygon class="st2" points="250.5,87.2 252.9,87.9 252.9,85.7 250.5,85.7 	"/>
	<polygon class="st2" points="423.8,88.7 426.9,88.4 427.5,84.8 423.1,81.3 421.2,83.1 	"/>
	<polygon class="st2" points="349.2,75.9 349.2,75.9 347.9,70.1 347.9,70.1 	"/>
	<polygon class="st2" points="240.9,56.4 237.8,58.3 240.7,59.8 	"/>
	<polygon class="st2" points="245.5,53.1 246.2,49.3 244.3,49.2 243,52.2 243.6,53.5 245.6,53.5 	"/>
	<polygon class="st2" points="263.9,54.6 263.9,54.6 260.8,54.1 260.8,54.1 	"/>
	<polygon class="st2" points="256.9,62 263.1,62.8 265.7,59.6 265.2,58.3 264.4,56.1 263.9,54.6 260.8,54.1 260.8,54.1 260.8,54.1 
		257.6,54.2 256.9,53.5 252.3,54.6 251.9,54.6 252.3,60.2 256.6,61.9 	"/>
	<polygon class="st2" points="263.9,54.6 263.9,54.7 263.3,53.3 260.8,52.5 260.8,54.1 263.9,54.6 	"/>
	<polygon class="st2" points="282.5,86.6 279,87.9 281.5,88.6 	"/>
	<polygon class="st2" points="253.1,82.2 249.2,82.2 249.2,83.1 250.7,84.1 253.1,84.5 	"/>
	<polygon class="st2" points="245.2,74 243.9,74 243.9,75.6 244.8,76 	"/>
	<polygon class="st2" points="243,80.7 244.8,80.7 244.8,77.3 243,76.7 	"/>
	<polygon class="st2" points="297.7,82.6 297.7,80.7 296.3,77.7 292,76.7 274.8,77.2 273.3,79 270,79 272.7,84.5 285.3,85.2 	"/>
	<polygon class="st2" points="294.3,73.2 299.8,75.6 299.7,75.6 299.7,75.6 299.8,75.6 302.1,76.2 300.6,73.7 300.6,68.4 
		298.3,65.5 298.3,59.7 298.3,59.7 298.3,59.6 315.9,59.6 315.9,55.2 315.9,55.2 315.9,55.2 325.9,52.9 351.1,61.8 355.4,64.3 
		360.7,60.3 360.8,60.3 360.8,60.3 367.9,62.5 369.8,58.1 369.8,58.1 369.8,58.1 387.4,62.5 396,62.5 399.2,61.8 397.5,55.8 
		397.5,55.8 397.5,55.7 405,55.7 412.7,63.3 423.3,66 423.3,74.5 423.3,74.5 423.3,74.5 427.8,73.7 430.3,70 430.3,63.1 423.2,55.1 
		416.4,55 417.5,46.5 431.7,46.6 433.3,41.8 439.2,44 439.3,41.8 440.7,42 443.3,44.4 440.8,46.1 440.5,51.2 450.6,60.7 450.6,51.5 
		444.9,46 458.4,41.8 458.6,40.4 451.8,38.5 454.4,36.5 460.5,37.7 464.6,37.8 461.3,34.3 440.1,30.1 407.3,29.2 405.5,26.6 
		394.1,24.8 390.8,27.7 381.6,27.7 377.7,24.8 356.8,24.8 355.5,20.2 336.2,20.2 319.1,27.8 322.8,32.4 319.6,35.7 316.7,26.2 
		311.6,25.8 314,31.4 294.2,32 275.6,39.6 273.2,34.9 280.2,35.2 283.7,33.5 270.1,29.2 267.3,29.3 272.5,41 269.3,44.6 269.3,44.6 
		269.3,44.6 268.6,45.3 268.6,45.3 268.6,45.3 269.1,48.8 269,48.8 269,48.8 269.1,48.8 269.5,51.8 273.1,51.8 275.9,56.4 
		274.3,57.4 277,58.5 277,58.5 277,58.5 277,58.5 288,62.9 286.4,66.4 286.4,66.4 286.4,66.4 287.1,68.1 285.3,68.6 285.7,71.4 
		292.1,73.7 292.1,73.6 292.1,73.6 	"/>
	<polygon class="st2" points="277,58.5 277,58.5 272.5,59.5 265.3,58.3 265.7,59.6 263.1,62.8 263.1,64.6 264.3,64.6 269.9,64.6 
		272.8,64.6 272.9,64.6 273.8,66.4 272.1,69 273.6,69.6 274,68.4 279.8,68.4 278.5,69.7 280.3,70.8 282.7,70.6 280.4,67.7 
		286.4,66.4 287.9,62.9 	"/>
	<polygon class="st2" points="326.2,98.7 325.7,97.3 325.7,97.3 	"/>
	<polygon class="st2" points="323,89.4 323,89.4 324.3,86.7 	"/>
	<polygon class="st2" points="423.2,74.5 423.3,74.5 423.3,74.5 423.2,74.5 	"/>
	<polygon class="st2" points="288,62.9 277,58.5 277,58.5 277,58.5 287.9,62.9 286.4,66.4 286.4,66.4 	"/>
	<polygon class="st2" points="299.7,75.6 299.7,75.6 294.3,73.2 292.1,73.6 292.1,76.7 296.4,77.7 298.3,77.7 	"/>
	<polygon class="st2" points="272.1,69 273.8,66.4 272.8,64.6 269.9,64.6 	"/>
	<polygon class="st2" points="379.2,102.6 379.2,102.9 379.2,102.6 382.6,100.2 382.6,100.2 	"/>
	<polygon class="st2" points="299.7,75.6 299.7,75.6 299.8,75.6 294.3,73.2 292.1,73.6 292.1,73.6 294.3,73.2 	"/>
	<polygon class="st2" points="346.6,96.1 345.6,92.1 343.5,90.9 345.6,92.1 	"/>
	<polygon class="st2" points="412.7,63.3 423.2,66 423.2,74.5 423.2,74.5 423.3,74.5 423.3,66 412.7,63.3 405,55.7 397.5,55.7 
		397.5,55.8 405,55.8 	"/>
	<polygon class="st2" points="268,115.3 267.7,121.2 265.1,123.7 265.1,129.7 267.2,132.1 278.3,131.5 281.5,127.1 283.8,132.1 
		287.3,123.8 290.9,115.3 286.7,108.1 283.6,109.9 268.2,109.9 268,115.3 	"/>
	<polygon class="st2" points="278.3,131.5 267.2,132.1 274.4,140.3 279.3,142.1 288,140.9 283.1,135.8 282.5,135.1 282.5,135.1 
		282.5,135.1 283.8,132.1 281.5,127.1 	"/>
	<polygon class="st2" points="450.4,171.2 448.2,170.5 448.2,177.2 443.4,182 436.2,175.8 438.4,171.8 429.7,172 427.4,176.8 
		422.2,174.5 412.7,185 399.9,191 399.9,205.2 397.9,210 399.4,211.8 423.7,206.5 427.7,210 431.9,208.2 433.4,216.5 445.7,217.2 
		459.9,202.5 460.7,194.2 452.9,183.2 	"/>
	<polygon class="st2" points="465.7,232.5 477.4,224.8 477.4,222.8 462.2,230.5 	"/>
	<polygon class="st2" points="485.6,215.2 485.6,212 484.4,212.5 484.4,217 481.4,220 480.4,223.2 487.7,218 	"/>
</g>
<g id="Spanish" class="st1">
	<polyline class="st3" points="87.5,117.6 90.6,115.2 90.5,115.4 90.7,115.3 90.8,111.9 87.4,111.8 84.6,116.3 77.1,116.3 
		73.4,108.4 76.5,104.6 72.7,97.2 68.1,97.3 65.9,94 49.6,91.9 49.6,92 50.3,99.3 55.4,108.8 57.4,107.2 53.4,98.8 53.4,94 55.8,94 
		55.9,98.4 63.4,116.1 75.6,121.2 78.7,120.4 81.3,123 82.6,120.7 85.5,120.7 85,117.6 	"/>
	<polyline class="st3" points="85,117.5 85.4,120.6 82.6,120.6 81.3,123 85.3,125 88,120.1 87.5,117.6 	"/>
	<polygon class="st3" points="95.7,130.5 95.5,121.1 88.8,126.7 91.4,130.1 	"/>
	<polygon class="st3" points="87.4,121.2 86.1,123.5 88.6,124.6 88.1,126.3 88.8,126.7 95.5,121.1 	"/>
	<polygon class="st3" points="134.9,243.7 137.1,245.7 143.8,246 136.5,242.1 	"/>
	<polygon class="st3" points="137.6,188.2 137.5,183.7 132.4,183.7 130.2,187.7 130.2,187.7 130.2,187.7 138.3,193.2 138.3,196.7 
		142.3,196.7 145.3,194.9 145.1,192.1 	"/>
	<polygon class="st3" points="123.3,117.4 123.9,116.4 122.2,116.4 121.6,117.4 	"/>
	<polygon class="st3" points="103,108.2 98.7,108.2 97,109.8 101.9,109.8 105.9,112.4 104.4,114.1 111.3,114.1 	"/>
	<polygon class="st3" points="116.7,115.9 119.3,115.9 120,115 115.1,114.4 115.1,116.5 115.1,117.1 	"/>
	<polygon class="st3" points="217.8,72.9 217.8,75.1 221.1,75.6 221.1,75.6 221.1,75.6 220.1,84.4 227.1,84.9 234.1,76 229.2,72.8 	
		"/>
	<polyline class="st3" points="87.5,117.6 88,120.1 90.6,115.2 	"/>
	<polygon class="st3" points="132.4,183.7 137.5,183.7 137.4,179.8 128.7,172.7 124.2,168.1 119.2,169.5 119.2,169.5 119.2,169.5 
		119.2,181 119.2,181 123,188.5 123,188.5 129.7,188.5 	"/>
	<polygon class="st3" points="145.4,196.8 145.3,194.9 142.3,196.7 142.3,196.7 138.3,196.7 138.3,196.7 138.3,193.2 130.2,187.7 
		129.8,188.5 129.7,188.5 123,188.5 121.2,205.4 125,222.2 128.4,228.3 128.6,233 133.7,240.8 135.6,241 134.6,220.9 145.5,216.2 
		140.6,209.3 140.6,201.7 140.6,201.7 	"/>
	<polygon class="st3" points="118.4,182.9 118.4,182.9 118.4,182.9 119.9,221.1 124.1,224.5 124.3,231.3 131.4,240.6 133.7,240.8 
		128.6,233 128.4,228.3 125,222.2 121.1,205.4 123,188.5 119.2,181 	"/>
	<polygon class="st3" points="108.3,150.4 108.3,150.3 101.8,146.7 98.7,150.5 98.4,156.4 101.9,158.1 108.2,150.3 	"/>
	<polygon class="st3" points="119.2,169.5 117.6,170 117.6,170 117.6,170 110.2,163.7 112.1,157.3 116.5,156.8 116.5,155.1 
		108.3,150.4 101.9,158.1 101.9,158.1 101.9,158.1 98.4,156.4 98.2,158.2 109,176.6 118.4,182.9 119.2,181 	"/>
	<polygon class="st3" points="108.3,150.3 108.3,150.3 116.5,155.1 116.5,145.6 120,145.4 120,137.9 114.4,137.3 111.9,134.6 
		111.4,128.9 109.7,128.9 106.1,133.7 104.3,133.8 104.4,134 104.7,135.3 104.8,135.6 103.8,137 104.6,139.4 103.9,144 101.8,146.7 
		101.8,146.7 101.8,146.7 	"/>
	<polygon class="st3" points="114.4,137.3 120,137.9 120,145.4 120.9,145.3 120.9,145.3 120.9,145.3 122,147.9 125.7,146.7 
		125.4,142.7 130.3,140.9 131.7,133.8 131.7,133.8 131.7,133.8 130.1,132.2 123.5,131.6 119.9,129 111.4,128.9 111.9,134.6 	"/>
	<polygon class="st3" points="96.8,132.5 96.8,132.5 95.7,131.9 95.7,130.5 91.4,130.1 94.3,134 95.3,134.4 96.8,132.5 	"/>
	<polygon class="st3" points="104.3,133.8 103.8,132 99.9,132.3 98.6,133.5 96.8,132.5 95.3,134.4 95.3,134.4 95.3,134.4 
		99.6,135.9 100.7,134.3 103.1,134.6 103.8,137 104.8,135.6 104.7,135.3 104.3,133.8 	"/>
	<polygon class="st3" points="247.7,145.1 247.7,145.1 244.9,145.1 244.8,147.7 247.7,147.7 	"/>
</g>
</svg>
