<?xml version="1.0" encoding="utf-8"?>
<!-- Generator: Adobe Illustrator 22.0.0, SVG Export Plug-In . SVG Version: 6.00 Build 0)  -->
<svg version="1.1"
	 id="svg13063" inkscape:version="0.92.4 (5da689c313, 2019-01-14)" sodipodi:docname="Simple world map.svg" xmlns:cc="http://creativecommons.org/ns#" xmlns:dc="http://purl.org/dc/elements/1.1/" xmlns:inkscape="http://www.inkscape.org/namespaces/inkscape" xmlns:rdf="http://www.w3.org/1999/02/22-rdf-syntax-ns#" xmlns:sodipodi="http://sodipodi.sourceforge.net/DTD/sodipodi-0.dtd" xmlns:svg="http://www.w3.org/2000/svg"
	 xmlns="http://www.w3.org/2000/svg" xmlns:xlink="http://www.w3.org/1999/xlink" x="0px" y="0px" viewBox="0 0 494.7 265.7"
	 style="enable-background:new 0 0 494.7 265.7;" xml:space="preserve">
<style type="text/css">
	.st0{display:none;opacity:0.5;fill:#F7F7F7;}
	.st1{opacity:0.5;fill:#F7F7F7;}
	.st2{opacity:0.5;fill:#FFCE00;}
	.st3{opacity:0.5;}
	.st4{fill:#E97F02;}
</style>
<rect class="st0" width="494.7" height="265.7"/>
<g id="Lager_2">
	<path class="st1" d="M489,208.2l-4.2,1.8l-4-3.5l-24.3,5.3L455,210l2-4.8V191l12.8-6l9.5-10.5l5.2,2.3l2.3-4.8l7.9-0.2v-16.3
		l-1.6,0.2l0.4-1.5h1.2v-8.3l-0.7,0.8l0.4,3l-1.9-0.5l0.5-3.4l1.4-1.4l0.2,0.3V90l-0.3-1.6l-6.5,1l0.5-1.7l5.4-1.4l0.9-0.8v-9.5
		l-0.4-0.2l-0.1-5.4l0.5,0.2V43.4l-4.3-1.6l-1.5,4.8l-14.2-0.1l-1.2,8.5l6.9,0.1l7.1,8.1V70l-2.5,3.7l-4.6,0.8l0.4,4.9l-2.5,0.3
		l1.9,1.6l4.3,3.5l-0.5,3.6l-3.1,0.2l-2.6-5.6l-2.5-0.7l-1.9-3.5l0,0l-3.3,2.3l-2.4-4.5l-3.4,3l2.7,4.4l1.4-0.9h4.3l-3.7,4.1l7.3,12
		l-4.1,9.1l-12.5,4.5l-0.1-2l-2.1,1.2l0,0l-2.3,1.3l-0.3,3.7l6.5,6.8l0.2,6.1L456,134l-0.1-3.5l-2.2,0.3l-1.9-1.9v0l-3.9-3.8
		l-0.8,7.8l3.4,5.1l-2.1,0.3l-0.3-1.1l-3.5-3l0.1-2l0.3-5l-1.3-4.9l-2.4-2.7l-1.3,1.6l-1.8-0.5l-1-5l-2.5-2.1l-5.6-4.7l-1.3,1.2
		l-11.8,11.4l-0.8,9.4l-5.2,3.2l-8.1-23.4l-1,0l-0.5,2.1l-2.5-0.3l-1.4-1.8l1.5-1.5l-3.2-1l-0.3-0.4l-2.3-2.6h-8.8l0,0h-2.8l-10.1-3
		l-5.5-5.7l-2.4-0.2l-8-13.5v-1.9l-1.4-3l-4.3-1.1v-3l0,0l-6.4-2.2l-0.3-2.8l1.8-0.5l-0.7-1.7l0,0l-6,1.3l2.3,2.9l-2.4,0.2l-1.8-1
		l1.3-1.3h-5.8l-0.4,1.2l-1.5-0.6l1.7-2.6l-0.9-1.8H330l0.9,1.8l-1.7,2.6l1.5,0.6l-0.8,2.5l0,0l-1,3l1.2,2.7h-3.1h-2.5l-3.1,1.5
		l1.5,3.4l-1.4,2.2l-2.2-2.8l1.7-0.7l-2.7-0.8L317,79l0,0l-0.3-0.3l-2.2-4.2l2.1-1.6l0.3,0.5l-0.3-0.5l-2.1,1.6l-1.1-0.3l-1.9-4.1
		l0,0l1.9,4.1l-0.7-0.2l-3.4-3.9l-0.7,0l2.1-1.1l0.9-1.6l0,0l-0.9,1.6l-2.1,1.1l-0.4,0l0,0l-2.8,0.2l9.8,8.4l-1.8,0.4l-0.5,2.4
		l-1.5,0.9L311,79l-8-8h-2.6h-0.2l-0.2,3l-7.2-0.1l-1.5,2l-4.9-3.1l-0.4-5.9l-3.3-1.8V64h2.8l7.7-4.6l1.8-1.1l3.1-1.9l-0.2,3.4
		l0,0.4l0.2-3.8l3.1-1.9l-0.4-1l-0.5-1.3l1.3-3l1.9,0l-0.7,3.8l0.1,0.4l0.3,1.1l5.9,0.1l0.4,5.6l-0.4-5.6l0.4,0l4.6-1.1l0.7,0.7
		l3.2-0.1l0,0l0-1.6l2.4,0.8l0.7,1.4l0,0l0.5,1.5l0.8,2.2l0.5,1.3l-2.6,3.2L314,62l-0.3-0.1l-4.4-1.7l-3.9,1.2l0,0l3.9-1.2l4.4,1.7
		L314,62l6.2,0.8v1.1v0.8h1.2l0,0h-1.2v-1.8l2.6-3.2l-0.5-1.3l7.2,1.1l4.5-1l0,0l-4.5,1l-7.2-1.1l-0.8-2.2l-0.5-1.5l-0.7-1.4
		l-2.4-0.8l0-2.2l0-1.9l3.2,1.5l0.3-1.5l-0.3-0.2l-1.4-1l0.4-1l4.6-0.1l0.9-0.8l0,0l0.8-0.7l0,0h-5.6l-3.7-1.9l3.1-7.1h-1H318
		l-6.5,7.1l2.9,3.6l-6.2,5.5l-3.8-4.4l0,0L304,47l-5.9,1l-2-4.6l19.7-13.6l5.7-0.3v0l2.9-0.1l0,0l2.9-0.1l13.5,4.3l-3.4,1.7
		l-7.1-0.3l2.5,4.7l18.6-7.6l19.9-0.5l-2.5-5.6l5.1,0.4l2.9,9.5l3.2-3.3l-3.7-4.6l17-7.6h19.3l1.3,4.6h20.9l3.9,2.9h9.3l3.2-2.9
		l11.4,1.9l1.8,2.5l30.2,0.9V0H0v265.7h494.7v-49l-4.2-0.2L489,208.2z M304,51.5l1-0.4l1.2,1.2l-0.6,0.9l-1.9,0L304,51.5z
		 M367.5,102.9l1.6,2.2l-0.9,0.9l-1.4-0.9L367.5,102.9z M330.5,79l1.5-1.8l17.2-0.6l4.3,1.1l1.4,3v1.9l-12.4,2.5l-12.6-0.7l-2.7-5.5
		L330.5,79z M339.7,86.6l-1,2l-2.6-0.6L339.7,86.6z M306.4,82.2h3.9v2.3l-2.4-0.4l-1.4-1V82.2z M310.1,85.7l0,2.1l-2.4-0.6l0-1.6
		L310.1,85.7z M301,74h1.3l-0.4,2l-0.9-0.3V74z M300.1,76.7l1.9,0.5v3.4h-1.9V76.7z M292.9,78.7v1.9h-2.2L292.9,78.7z M282.4,48.6
		l2.5,0.1l3.3,7.6l2.6,0.6l-0.2,1.7h-0.8l-0.3,1.5l-4.1,0.6l-4,0.7l3-2.9l-1.5-2.2l1.7-0.9l0-2.5l-2.3-0.2V48.6z M281.5,54.7
		l-1.3,0.4l0.2,3.3l-3.2-0.4v1.5l-1.7,0v-4.4l3-2.2l2.9,0.2V54.7z M278.3,75.6l-1,8.7l0,0l-0.9-0.1l-1.6-2.8l0.2-6.4L278.3,75.6
		L278.3,75.6z M205.5,16.3l8-0.2l1.1-1.5l-7.8,0.2v-1.2l23-1.7l-5.8,3.3l-7.6,1.5l-9.5,4.4l-1.1-0.9h-6.5l-0.9-0.9h6l-1.4-1.8
		l3.5,0.6L205.5,16.3z M204.5,65.5l5.7-5.8v0.1l0-0.1v2.2l1.7,0.4l0,0l0,0l2,3.1L204.5,65.5L204.5,65.5L204.5,65.5z M205.5,41.5
		l-1.2,0.5l-4.5-3.8h-5.4v-1.5h5.3l2.4-1.9l4.7,0.1l-6.9-6.2l-11.3,0.6l4.7-5l1.9,0l-1.3,3.3l4-3.3l1.7,0l11.5,4.7l0.1,3.3l2.1,0.8
		l1.2,2.2l-2.1,1.4l-3.6-1.3v4.7l-1,0.4l-3.1-1.5L205.5,41.5z M200.9,14.4l1.8,1.3l-2.5,1.6l-4.3-0.8L200.9,14.4z M194.2,20.2
		l2.8,1.2h8.4l-2.9,2l-11.1-0.9L194.2,20.2z M188.5,23.8l1,1.4l-5.2,1.4l-0.5-1.7L188.5,23.8z M183.2,23.8l-1,2.6l-3.8,1.3l-1.8-1.8
		L183.2,23.8z M177.6,29.4l0.8,1.3l-2.8,1.4l-1.1-1.4L177.6,29.4z M164.9,26.3l2.8-1.1l0.6,2.1l1.6-2.1h2.7l-2.7,3.5l3.5,1.6
		l-3.6,0.8l-4.8-1.1l-4.3,1.9l-6.2-2.4l5-1.3l-3.2-1.3l5.4-1.8L164.9,26.3z M158.3,23.2l2.3,1.1l-10.1,3.4l-1.8-2.1L158.3,23.2z
		 M138.4,123.1L138.4,123.1L138.4,123.1z M145.2,126.3l-2.8-1.3l0.8-1.5l2.5,1.1L145.2,126.3z M144.6,117.6L144.6,117.6L144.6,117.6
		z M152.4,134.4L152.4,134.4l1.5-1.9l0,0L152.4,134.4z M157.5,95.8l-16.8-0.1l-7.1,8.9l0,0l-3.8-7.4l-4.6,0.2l-2.2-3.3l-16.3-2.1
		l0,0l-4.7-4.7V76.9l12.8-13.5l0-1.7l-3.5-3.1l1.9-8.8l0,0l-5-5l-16.6,0.6l-14.4,6.9l-2.7-0.2L82,47L78.1,47l4.6-6.2l9.4-3.5
		l-7.3,0.3l1.6-2.3l8.7,0.1v-3.4l7.7-3.1l19.1-0.1l3.7,1.5l0,0l0,0l23.1-0.5l12.1,4.8l5-2.3l9.4,1.8l5.4-2.6l-1-2.2l4-1.8l0.6,3.4
		l2.3,0.2l-0.6,2.8l5-3.3l3.6,0.4l-3.9,4l-9.5,1l1.3,1.9l-6.2,1.1l-10.9,8.1l10.9,5.9l-0.1,6l3.1,0l12.6-18.4h4.7l3.4,2.9l0,4.2
		l7.1-2.8l0.7,8.9l5.5,0.9l0,1.8l-7.5,4l-9.9,0.4l-6.2,3v1.7l6.5-2.9l1,1L195,67l2.1,1.9l4.5,0.2l-9.2,3.2L192,71l3.4-1.6l-5.1,0.9
		l-1.8,0.3l-27.2,23.2l-0.1,10.4l-2.7-0.1L157.5,95.8z M109.4,61l1.1-1l2.6,2.1v1.2h-1.9L109.4,61z M189.5,38.3l-0.6,1.5l-5.9-0.6
		l3-2.4L189.5,38.3z M169.2,114.4h3v2h-3.8v-0.6h1.8L169.2,114.4z M161,117.2V116h3l1,1v1h-3L161,117.2z M161.9,135.3l-0.4-1.5l0,0
		l0,0.1L161.9,135.3z M195.5,196.7L195.5,196.7l0-3.5l-8.1-5.5l-0.5,0.8h0l2.6-4.8l-2.2,4l0,0l0,0l8.1,5.5V196.7z M230.8,163.9
		l-5,6.6l-2.2,16.1l-11.7,5.2l-1.1,7.3l-4.8,8.4l0,0l-2.4,4.1l-5.9-2.2v-7.6h0l0,0l4.8-4.9l-0.1-1.8l-2.9,1.8h0l3-1.8l-0.2-2.8
		l-7.4-4l-0.1-4.5l-0.1-3.8l-8.7-7.1l-4.5-4.6l-5,1.4v0l0,0V181l0,0l-0.8,1.9l0,0l0.8-1.9v-11.4l-1.6,0.5l0,0l0,0l-7.4-6.3l1.9-6.3
		l4.4-0.5v-1.7l-8.3-4.7l-6.3,7.8l0,0l6.3-7.8l0,0l0,0l-6.5-3.7l0,0l6.5,3.7l0,0l8.3,4.7v-9.5l3.4-0.2l0.9-0.1l0,0l0,0l1.1,2.5
		l3.7-1.2l-0.3-4l4.9-1.8l1.5-7.2l0,0l5.1,4.9l4.8,0.4l2.7,0.2l1.3,2.8l2.3,4.9l-2.5,3.8l3.5-2.7l2.5,1.1l-1.2,3.3l3.7-2.2l3.7,1.6
		l-0.2,2.2l8,0.5l8.2,5.4V163.9z M252.4,32.3l-3.3,2.5l-8.7,2.6l-6.1,6.5h-4l-3.4-3.4l-0.2-6.1l5.4-3.1v-4.5l-2.9-5L218,21.6v-2.3
		l7.4-2.3l9.3-3.2h16.1l13.3-1.5l15.4,1.5l-1.9,1.9l-5.3,1.1l-8.7,13.8l-4.6,1.4L252.4,32.3z M274.2,37.1v0.6l-4.5,2.2l-7.6-1.1v-2
		l2.2,0l0.8-1.1l3.8,0.1l3.2-1L274.2,37.1z M361.1,194.1l-4.1-0.2l-1.7-4l1.4-3.9l0.8-5.8l8-8.4h2.5L361.1,194.1z M373.3,120.1
		l-16.3,7.3l-2.2-7.2l0,0l-0.3-0.8L342,97.6l1.3,0.2l0,0l-1.3-0.2v0l0,0.1l0,0l0,0.1l-1,2.2l-3.5-2.8l6.4,11l-3.1,1.8h-15.4
		l0.7-15.3l-0.7,15.4h15.4l3.1-1.8l4.2,7.1l-3.6,8.5l-3.5,8.3l-1.3,3l0,0l4.8-11.3h0l3.6-8.5l7,12l1.4,2.5l0.6,1.1l12.1-1.8l0.7,3.5
		l-17.3,20.2v0l-2.9,3.4l1.1,12l-7.1,1.5l7-1.5l0.9,8.4l-8.9,7.3l0.3,8l-3.8,2.7l-0.1,0.9l-1.8,0v0l1.8,0l-0.4,3l-9.8,11.3h-12.7
		l-3.9-10.6h6.6v0h-6.6l-6.6-18.6l-0.3-3.2l3-4.9v-11.7l5.3,0l0.9,3l3.3-0.1l0.7-2.4h3.3v0h-3.3l-0.7,2.4l-3.3,0.1l-0.9-3l-5.3,0
		l-1-1.3l0,0l-1.8-2.4l-3.6-4.8l0.1-4.3h2.8v-2.6v0H302h0l0.1-3.6h-1.6H296l-0.6-2.9l-4.7-0.7l0.6-2.9l-0.6,2.9l-0.9,0.3l-2.1,0.6
		l-1.4-8.4l0,0l1.4,8.4l-5.8,1.7v0l-8.5,2.5l-5.8-6.3l0,0l-2.8-3l-2.9-3.1l2.4-2.5h0l-2.4,2.5l-2.3-2.4l0-0.1h0l0.1-2.4l0-1.4
		l0.2-6.2l7.5,5.4l-7.5-5.4l0.2-6.4h0l0.1-2.3l7.3-9.6h0l8.7-11.3l9-0.9v0l7.9-3l5.9,0.2l0.8,3.6l-0.8-3.6l5.1,0.1l-0.2,5.8l1.7,0.4
		l0,0l4.6,1.1l2.1,2.6l5.4,1.1l2.4-3.7l5.9,0.8l0,0l14,1.9l0,0l1.1-4.1l0.6-2.7l0,0l0.6-2.7l8.8-1.8l-1.4,5.7l-5.8,3.5l-1.9-1.4v0
		l1.9,1.4l3.2-1.9l0,0l2.6-1.6l1.4-5.7l3.6-0.7l7.8,13.3l-3.5,0h1.8l1.9,3.1l3.5,5.8l2.8,1.9l3.4,0.7l2.7-3l1.7,1.5l4.5,4
		L373.3,120.1z M479.5,167.3l-0.7-0.9l1.9-0.4l0.6,1.3H479.5z M483.5,165.4h-2.4l-0.5-1.6h2.5l1.4,0.8L483.5,165.4z M485.1,157.5
		l-2.2-0.8l-0.9-2.4l-1.1,1.2l0.6,3.3l-1.8,0.6l-0.9-4.8l1.5-2l-0.2-3.7l2.6-2.3l3.9,0.9l1.2-0.8l1.8,0l-2,2.4l-1.4,0.1l-2.8-1
		l-1.5,1.7l0.8,1.1l3.8-0.2l-2.4,2l1.3,2.8V157.5z M489.8,138.8l-2.3,0.7v-2.2l-3.2-2.3h3.9l1.2-3.1l1.6,5l-1.9,0.5L489.8,138.8z
		 M484.7,133.7l-1-1.2l1-1.1l0.8,1.3L484.7,133.7z M483.5,131l-1.2-0.8l0.8-1.4l1.7,0.2L483.5,131z M481.7,128.8l-1.3-1.3l0.2-1.3
		l1.7,1.6L481.7,128.8z M492,165.4l-3.1,0.4l-1.7,1.5l-1.9-0.2l2.5-2.8h4.2V165.4z M493.5,89.8l-1.1,2.1l-1.5-1.7L493.5,89.8z
		 M484.1,56.7l1.9,0.1l6.8,7h-1.9l3.3,4.7h-2l-2.7-5L484.1,56.7z M489.6,90.6l0.8,1.1l-0.8,2.7l-2.3-3.5L489.6,90.6z M488.4,127.5
		l1.7,2.7h-1.8l-1.6-2.1L488.4,127.5z M487.6,131.5l-0.7,1l-1.3-1.9l1.1-0.6L487.6,131.5z M481.6,117l1.3,2.8l-1.3,3l1.3,1.6
		l3.5,0.4l-0.5,1.6L482,126l-3.3-4l0.6-5L481.6,117z M478.3,105l1.3,1.4l-1.3,3.7l-2.1-2L478.3,105z M479.5,129.8l0.1,1.9l-2.8,2.3
		l-1.6-0.3L479.5,129.8z M463.4,146.6L463.4,146.6l7.9-3.7l3.4-4.6l2.9-0.2v3.3v0v9l-3.9,4.9h-7.8l-2.5-4.3L463.4,146.6L463.4,146.6
		z M461.2,117.8l-1-1.3V115l2.6-0.6v1.5L461.2,117.8z M463.4,161.7l3.6-0.8l5.8,2.8l0.2,1.1l-16.1-2.7l2.4-1.9L463.4,161.7z
		 M450.6,138l5.4,7.9l-0.4,1.7l-5.7-4.8l-1.4-4.5L450.6,138z M444.9,141.2l12.9,13.4v3.3l-2.4,2l-14.9-20.3L444.9,141.2z"/>
	<polygon class="st1" points="494.7,177 494.7,173.3 493.3,175.8 	"/>
	<polygon class="st2" points="459.4,66 458.9,68.4 452.4,69.8 450,74.7 452.4,69.8 458.9,68.4 459.4,66 454.8,65.3 453.1,62.5 
		454.8,65.3 	"/>
	<polygon class="st2" points="454.6,55.8 454.6,55.8 456.3,61.8 456.3,61.8 	"/>
	<polygon class="st2" points="356.9,75.6 356.9,75.6 355.4,77.7 	"/>
	<polygon class="st2" points="427,58.1 427,58.1 425,62.5 425,62.5 	"/>
	<polygon class="st2" points="398.8,78.7 406.3,75.9 406.3,75.9 398.8,78.7 	"/>
	<polygon class="st2" points="394,74 390.8,76.6 387.5,76.7 384.1,72.3 379.5,73.2 374,69.4 369.8,70.3 369.8,70.3 374,69.4 
		379.5,73.2 384.1,72.3 387.5,76.7 390.8,76.6 394,74 401.5,73.6 406.3,75.9 406.3,75.9 401.5,73.6 	"/>
	<polygon class="st2" points="389.5,79.8 389.5,79.9 391.1,79.4 395.1,80.7 391.1,79.4 394.3,78.5 394.6,76.4 394.6,76.4 
		394.3,78.5 	"/>
	<polygon class="st2" points="395.6,82.1 396.6,85 395.6,82.1 	"/>
	<polygon class="st2" points="344.5,97.2 345.4,96.8 345.4,96.7 345.4,96.8 	"/>
	<polygon class="st2" points="343.5,88.5 342,91.2 342,91.2 343.5,88.5 	"/>
	<polygon class="st2" points="347.6,92.5 347.5,92.6 346.8,92.9 347.5,92.6 356.1,97 347.6,92.6 	"/>
	<polygon class="st2" points="358.8,97.6 357.1,97.6 360.2,97.6 361.3,99 360.2,97.6 	"/>
	<polygon class="st2" points="385.6,101.6 385.6,101.6 383.3,98.8 383.3,98.7 383.3,98.8 	"/>
	<polygon class="st2" points="360.5,118.5 356.1,117.9 356.1,117.9 360.5,118.5 360.1,120.2 363.1,118.6 360.1,120.2 	"/>
	<polygon class="st2" points="400.7,90.9 400.8,88.9 404.2,86.5 400.8,88.9 	"/>
	<polygon class="st2" points="403.7,96.1 403.7,96.1 399.3,100.2 	"/>
	<polygon class="st2" points="429.4,106 429.4,106 427.4,103.4 	"/>
	<polygon class="st2" points="307,63.3 307,63.3 308.1,64.8 308.1,64.8 	"/>
	<polygon class="st2" points="326.2,48.8 326.2,48.8 324.6,49.2 	"/>
	<polygon class="st2" points="318.4,75.3 318,74.7 318.4,75.3 322.1,74.6 323.1,77 323.1,77 321.5,73.3 322.1,74.6 	"/>
	<polygon class="st2" points="317.5,31.3 319.3,35.6 317.5,31.3 	"/>
	<polygon class="st2" points="452.8,117.8 455.7,121.7 452.8,117.8 	"/>
	<polygon class="st2" points="405.1,70.1 405.1,70.1 412.6,64.3 417.9,60.3 417.9,60.3 412.6,64.3 412.6,64.3 	"/>
	<polygon class="st2" points="333,201.8 331.6,203.2 329.3,203.2 329.3,203.3 331.6,203.3 333,201.8 333,199.9 333,199.9 	"/>
	<polygon class="st2" points="298.5,68.3 298.5,68.3 298.6,67.6 	"/>
	<polygon class="st2" points="300.1,65.8 298.9,66.4 298.9,66.4 300.1,65.8 302,65.8 302.7,68 302.7,68 302,65.8 	"/>
	<polygon class="st2" points="299.6,62.8 299.4,64 299.6,62.8 	"/>
	<polygon class="st2" points="315.8,68.5 315.8,68.3 315.8,68.3 	"/>
	<polygon class="st2" points="361.4,80.1 361.4,80.1 364.2,84.9 369.1,84.9 369.2,83.2 369.2,83.2 369.4,78.9 364.5,74.8 367.6,74 
		370.3,76.2 372.9,75.2 377.3,75.2 387.7,83.5 387.7,83.5 391.1,84.4 391.1,84.4 391.1,84.4 387.7,83.5 377.3,75.2 372.9,75.2 
		370.3,76.2 370.3,76.2 367.6,74 364.5,74.8 362.1,72.8 362.2,70.2 365.8,68.4 362.8,66.4 357.8,68.4 355.4,65.5 355.4,59.7 
		355.4,59.7 355.4,65.5 357.8,68.4 357.8,73.7 359.2,76.2 359.2,76.2 	"/>
	<polygon class="st2" points="379.7,84 379.4,83.9 379.7,84 381.4,86.7 381.4,86.7 	"/>
	<polygon class="st2" points="426.5,100 428.5,100.7 415.9,96.3 425.5,99.6 	"/>
	<rect x="373" y="55.2" transform="matrix(0.9758 -0.2188 0.2188 0.9758 -3.521 83.016)" class="st2" width="0" height="4.5"/>
	<polygon class="st2" points="442.3,101.3 441.2,104.3 441.2,104.3 442.3,101.3 436,98.6 439.8,100.2 	"/>
	<polygon class="st2" points="430.2,101.3 430.2,101.3 429.4,102.9 	"/>
	<polygon class="st2" points="447.7,110.5 447.7,110.5 451.8,112.5 	"/>
	<polygon class="st2" points="451.8,125.7 453,124.5 455.7,121.7 	"/>
	<polygon class="st2" points="352.5,144.7 363.4,135.6 355.7,142 355.7,142 	"/>
	<polygon class="st2" points="189.3,146.3 196.5,145.5 194.1,145.7 	"/>
	<polygon class="st2" points="352.9,129 352.9,129 356.4,133 354.7,131 	"/>
	<polygon class="st2" points="356.4,133 363.5,135.5 363.5,135.5 	"/>
	<polygon class="st2" points="312.7,65.6 310.9,67.1 310.9,67.1 313.4,65.1 313.4,65.1 	"/>
	<polygon class="st2" points="335.3,170.4 335.3,170.4 334.2,172.6 321.8,166.5 321.8,166.5 324.7,167.9 334.2,172.6 	"/>
	<rect x="341.7" y="165.6" class="st2" width="0" height="4.4"/>
	<polygon class="st2" points="179.2,147.9 178,145.3 178,145.3 179.2,147.9 	"/>
	<polygon class="st2" points="326.6,180.6 326.6,180.7 326.6,180.6 	"/>
	<polygon class="st2" points="168.4,68.4 166.9,67.3 165.9,63.8 158.2,65.5 157.3,67.5 159.5,67.5 161.4,66.5 162.9,67.5 
		166.1,67.6 166.3,68.5 161.5,69.5 157.4,76.1 159.6,76.1 163.2,70.8 165.1,69.5 166.8,69.5 166.3,73.2 168.5,73 170.6,71.3 
		172.1,71.3 171.1,68.2 	"/>
	<polygon class="st2" points="171,74.4 168,74.4 165.5,76.1 168.5,76.1 	"/>
	<polygon class="st2" points="199.5,196.7 199.5,196.7 202.4,194.9 202.4,194.9 	"/>
	<polygon class="st2" points="165.4,150.3 165.4,150.4 173.7,155.1 173.7,155.1 	"/>
	<polygon class="st2" points="174.8,73 177.2,71.3 175.5,71.3 173,73 	"/>
	<polygon class="st2" points="174.7,170 176.3,169.5 176.3,169.5 181.3,168.1 174.7,170 	"/>
	<polygon class="st2" points="181.3,168.1 185.8,172.7 194.5,179.8 185.8,172.7 	"/>
	<polygon class="st2" points="189.5,183.7 186.9,188.5 186.9,188.5 187.3,187.7 187.3,187.7 	"/>
	<polygon class="st2" points="337.1,197.6 337.1,197.6 335.3,196.5 335.3,196.5 	"/>
	<polygon class="st2" points="277.8,127.6 286.6,124 293.7,121.1 	"/>
	<polygon class="st2" points="273.1,100.6 280.4,106 290.3,113.3 273.1,100.6 	"/>
	<polygon class="st2" points="291.4,128.4 288.8,129.4 291.4,128.4 286.6,124 	"/>
	<rect x="273.6" y="130.9" transform="matrix(0.7071 -0.7071 0.7071 0.7071 -13.891 232.414)" class="st2" width="0" height="4.1"/>
	<polygon class="st2" points="272.3,99.7 268.8,99.7 273.1,99.7 273.1,99.7 	"/>
	<rect x="322.3" y="123.7" class="st2" width="0" height="6"/>
	<polygon class="st2" points="335.6,176.6 335.6,176.6 339.6,173.7 331.5,179.4 	"/>
	<polygon class="st2" points="304.2,108.8 303.1,103.4 304.2,108.8 	"/>
	<polygon class="st2" points="309.5,139.5 309.5,139.5 312.5,143.8 312.5,143.8 312.5,143.8 317.2,143.8 317.2,143.8 312.5,143.8 	
		"/>
	<polygon class="st2" points="285.4,92.3 273.1,99 273.1,99 285.4,92.3 	"/>
	<polygon class="st2" points="334.1,157.8 334.1,157.7 334.1,157.8 	"/>
	<polygon class="st2" points="308.9,129 304.7,137.7 301,137.9 304.7,137.7 308.9,129 308.9,125.6 308.9,125.6 	"/>
	<polygon class="st2" points="333,156.4 333,156.4 333.2,155.7 	"/>
	<polygon class="st2" points="333,164.7 332.1,169.1 332.1,169.1 333,164.7 338.4,163.9 339.6,165.6 339.6,165.6 337.8,163.1 
		338.4,163.9 	"/>
	<polygon class="st2" points="337.1,150.3 337.1,150.2 337.1,150.2 	"/>
	<polygon class="st2" points="338.5,150.2 338.5,150.2 337.7,151.6 340.7,151.6 341.2,150.6 342.6,148.2 339.6,148.2 	"/>
	<polygon class="st2" points="310.2,152.8 307.8,145.1 304.8,145.1 304.8,145.1 307.8,145.1 	"/>
	<polygon class="st2" points="336.4,142.1 342.1,141.3 345.2,140.9 340.3,135.8 345.2,140.9 336.4,142.1 336.3,142.4 	"/>
	<polygon class="st2" points="332.5,188.9 332.1,188.4 332.5,188.9 321.5,196.2 318.9,193.1 318.9,193.2 321.5,196.3 332.5,188.9 
		337.1,188.9 337.1,188.9 339.6,182.9 339.6,182.9 337.1,188.9 	"/>
	<polygon class="st2" points="435.1,111.1 432.2,108.4 431.7,105.1 431.7,105.1 432.2,108.4 435.1,111.1 434.8,113.6 436.3,102.9 	
		"/>
	<polygon class="st2" points="358.3,80.4 354.9,80.7 361.3,80.1 	"/>
	<polygon class="st2" points="297.8,60.7 297.8,60.7 297.7,61.8 296.7,61.3 293.1,59.4 297.7,61.8 	"/>
	<polygon class="st2" points="312.1,145.1 312.5,143.8 312.5,143.8 	"/>
	<polygon class="st2" points="480.4,127.5 481.7,128.8 482.3,127.8 480.6,126.2 	"/>
	<polygon class="st2" points="288.4,129.6 288.8,129.4 288.4,129.6 	"/>
	<polygon class="st2" points="317.2,143.8 317.6,140.7 317.2,143.8 	"/>
	<polygon class="st2" points="483.8,132.6 484.7,133.7 485.6,132.7 484.7,131.5 	"/>
	<polygon class="st2" points="336.3,142.4 334.5,150.2 337.1,150.2 337.1,150.2 338.5,150.2 339.6,148.2 342.6,148.2 342.6,148.2 
		343,145.1 342.1,141.3 336.4,142.1 	"/>
	<polygon class="st2" points="336.4,142.1 336.4,142.1 331.5,140.3 331.5,140.3 	"/>
	<polygon class="st2" points="490.1,130.2 488.4,127.5 486.7,128.1 488.3,130.2 	"/>
	<rect x="305.5" y="152.8" class="st2" width="4.7" height="0"/>
	<polygon class="st2" points="482.3,130.2 483.5,131 484.7,129 483,128.8 	"/>
	<polygon class="st2" points="479.6,106.3 478.3,105 476.1,108 478.3,110 	"/>
	<rect x="273.1" y="100.6" class="st2" width="0" height="2.5"/>
	<polygon class="st2" points="281.9,132.5 281.9,132.5 277.8,131.7 277.8,131.7 	"/>
	<polygon class="st2" points="489.3,131.9 488.1,135 484.3,135 487.5,137.3 487.5,139.5 489.8,138.8 489,137.4 490.9,136.9 	"/>
	<polygon class="st2" points="478.7,122 482,126 485.9,126.5 486.4,124.8 482.9,124.5 481.6,122.9 482.9,119.9 481.6,117 479.2,117 
			"/>
	<polygon class="st2" points="304.2,108.8 304.2,108.8 304,108.8 293.7,115.8 293.7,115.8 304,108.8 	"/>
	<polygon class="st2" points="290.3,113.3 293.7,115.8 293.7,115.8 	"/>
	<polygon class="st2" points="479.6,131.7 479.5,129.8 475.2,133.7 476.8,134 	"/>
	<polygon class="st2" points="272.3,136.2 272.3,136.2 270.3,134 	"/>
	<polygon class="st2" points="277.8,131.7 277.8,131.7 273.6,130.9 	"/>
	<polygon class="st2" points="273.4,137.5 272.3,136.2 272.3,136.2 	"/>
	<polygon class="st2" points="486.9,132.4 487.6,131.5 486.7,129.9 485.6,130.5 	"/>
	<polygon class="st2" points="333,156.4 334.1,157.8 334.1,157.8 333,156.4 	"/>
	<polygon class="st2" points="455.5,147.6 455.9,145.9 450.6,138 448.4,138.3 449.8,142.8 	"/>
	<polygon class="st2" points="339.6,179.2 339.6,179.2 335.6,176.6 335.6,176.6 	"/>
	<polygon class="st2" points="338.4,163.9 333,164.7 332.1,169.1 335.3,170.4 335.3,170.4 335.3,170.4 334.2,172.6 324.7,167.9 
		324.8,172.6 321.1,172.6 321.1,176.8 324.1,180.6 326.6,180.6 326.6,180.6 326.6,180.6 329.8,180.6 331.5,179.4 339.6,173.7 
		339.6,165.6 	"/>
	<polygon class="st2" points="331.5,179.4 329.8,180.6 326.6,180.6 326.6,180.7 327.7,182.2 332.1,188.4 332.5,188.9 337.1,188.9 
		339.6,182.9 339.6,179.2 335.6,176.6 335.6,176.6 335.6,176.6 	"/>
	<polygon class="st2" points="339.6,173.7 339.7,173.7 341.8,175.5 341.8,179.2 344,177.3 344,174.1 341.7,172.6 341.7,170 
		341.7,165.6 339.6,165.6 339.6,165.6 	"/>
	<polygon class="st2" points="462.7,114.4 460.2,115 460.2,116.5 461.2,117.8 462.7,115.8 	"/>
	<polygon class="st2" points="457.7,157.9 457.7,154.6 444.9,141.2 440.4,139.5 455.4,159.8 	"/>
	<polygon class="st2" points="331.5,179.4 329.8,180.6 326.6,180.6 326.6,180.6 329.8,180.6 	"/>
	<polygon class="st2" points="326.6,180.7 327.7,182.2 327.7,182.2 	"/>
	<polygon class="st2" points="473,164.9 472.8,163.8 467,160.9 463.4,161.7 459.4,160.2 456.9,162.2 	"/>
	<polygon class="st2" points="332.5,188.9 332.1,188.4 327.7,182.2 318.9,182.2 318.9,193.1 321.5,196.2 	"/>
	<polygon class="st2" points="337.8,163.1 334.1,157.8 334.1,157.8 	"/>
	<polygon class="st2" points="327.7,182.2 327.7,182.2 332.1,188.4 	"/>
	<polygon class="st2" points="335.9,153.3 337.1,150.3 335.9,153.3 	"/>
	<polygon class="st2" points="342.6,148.2 342.6,148.2 343,145.1 342.6,148.2 	"/>
	<polygon class="st2" points="334.1,157.7 335.9,153.3 335.9,153.3 	"/>
	<polygon class="st2" points="333.6,153.8 333.2,155.7 333,156.4 334.1,157.8 334.1,157.7 335.9,153.3 	"/>
	<polygon class="st2" points="334.5,150.2 333.6,153.8 335.9,153.3 337.1,150.3 337.1,150.2 	"/>
	<polygon class="st2" points="490.4,91.7 489.6,90.6 487.3,90.9 489.5,94.4 	"/>
	<polygon class="st2" points="0.2,90.9 1.7,90.3 1.8,88.3 6.2,87.2 5.9,81.5 4,78.1 2,77.5 3.1,82.7 0,85.5 0,90 	"/>
	<polygon class="st2" points="488.4,87.7 487.9,89.3 494.4,88.4 494.7,90 494.7,85.5 493.8,86.3 	"/>
	<polygon class="st2" points="492.2,68.4 494.2,68.4 490.9,63.7 492.8,63.7 486,56.7 484.1,56.7 489.5,63.4 	"/>
	<polygon class="st2" points="333.6,153.8 333.2,155.7 333.6,153.8 	"/>
	<polygon class="st2" points="291.4,128.4 291.4,128.4 292.7,128 292.7,128 	"/>
	<polygon class="st2" points="0.9,76.5 1.8,75.2 4.8,75.2 6,73 0,70.5 0,75.9 	"/>
	<polygon class="st2" points="494.3,75.7 494.7,75.9 494.7,70.5 494.2,70.3 	"/>
	<polygon class="st2" points="334.5,150.2 334.5,150.2 333.6,153.8 333.6,153.8 	"/>
	<polygon class="st2" points="336.3,142.4 334.5,150.2 334.5,150.2 	"/>
	<polygon class="st2" points="324.9,121.2 325.1,115.3 315,108.8 311,108.8 312.4,118.3 308.9,125.6 308.9,125.6 308.9,125.6 
		311.8,131.8 311.8,131.8 309.4,131.8 310.6,135.3 310.6,135.3 322.3,129.7 322.3,123.7 322.3,123.7 322.3,123.7 	"/>
	<rect x="264.4" y="128" class="st2" width="5.2" height="0"/>
	<polygon class="st2" points="269.6,128 267.5,123.3 260,117.9 259.8,124.1 264.7,125.6 259.8,125.6 259.7,128 259.7,128 259.7,128 
		264.4,128 264.4,128 264.4,128 264.4,128 	"/>
	<polygon class="st2" points="268.8,99.7 267.7,99.7 267.7,99.7 	"/>
	<polygon class="st2" points="270.3,134 267.6,136.6 267.6,136.6 	"/>
	<polygon class="st2" points="267.5,130.9 264.8,133.6 267.6,136.6 270.3,134 	"/>
	<polygon class="st2" points="270.3,134 272.3,136.2 273.6,135 273.6,130.9 273,128 269.6,128 269.6,128 264.4,128 261.9,130.5 
		264.8,133.6 267.5,130.9 	"/>
	<polygon class="st2" points="259.7,128 259.7,128 264.4,128 264.4,128 	"/>
	<polygon class="st2" points="266.4,111.6 268.2,108.8 268.2,103.1 268.2,103.1 268.2,108.8 266.4,111.6 260.3,111.6 260.3,111.6 	
		"/>
	<polygon class="st2" points="268.2,108.8 268.2,103.1 268.2,103.1 273.1,103.1 273.1,100.6 273.1,100.6 273.1,100.6 273.1,99.7 
		268.8,99.7 267.7,99.7 267.7,99.7 267.7,99.7 260.3,109.3 260.3,111.6 266.4,111.6 	"/>
	<polygon class="st2" points="273,128 273.6,130.9 273.6,130.9 277.8,131.7 277.8,127.6 293.7,121.1 293.7,115.8 290.3,113.3 
		280.4,106 275.7,106 276.6,121.4 267.5,121.4 267.5,123.3 269.6,128 	"/>
	<polygon class="st2" points="276.6,121.4 275.7,106 280.4,106 273.1,100.6 273.1,103.1 273.1,103.1 268.2,103.1 268.2,108.8 
		266.4,111.6 260.3,111.6 260.3,111.6 260.3,111.6 260,117.9 267.5,123.3 267.5,121.4 	"/>
	<polygon class="st2" points="292.7,128 292.7,128 292.7,128 292.7,128 	"/>
	<polygon class="st2" points="259.8,124.1 259.8,125.6 264.7,125.6 	"/>
	<polygon class="st2" points="289.8,138.2 289.8,138.2 288.4,129.6 	"/>
	<polygon class="st2" points="288.4,129.6 286.3,130.3 286.3,130.3 288.4,129.6 	"/>
	<polygon class="st2" points="288.4,129.6 286.3,130.3 287.7,138.8 289.8,138.2 289.8,138.2 	"/>
	<polygon class="st2" points="291.4,128.4 291.4,128.4 288.8,129.4 288.4,129.6 289.8,138.2 290.7,137.9 291.3,135 292.7,128 	"/>
	<polygon class="st2" points="272.3,136.2 270.3,134 267.6,136.6 267.6,136.6 267.6,136.6 273.4,142.9 273.4,137.5 	"/>
	<polygon class="st2" points="292.7,128 291.3,135 292.7,128 	"/>
	<polygon class="st2" points="304.7,137.7 308.9,129 308.9,125.6 293.2,125.6 292.7,128 292.7,128 291.3,135 290.7,137.9 
		295.3,138.6 296,141.4 300.5,141.4 301,137.9 	"/>
	<polygon class="st2" points="288.4,129.6 288.8,129.4 291.4,128.4 286.6,124 277.8,127.6 277.8,131.7 281.9,132.5 281.9,130.3 
		281.9,130.3 286.3,130.3 286.3,130.3 286.3,130.3 286.3,130.3 	"/>
	<polygon class="st2" points="281.9,132.5 281.9,132.5 281.9,132.5 281.9,140.4 281.9,140.4 	"/>
	<polygon class="st2" points="277.8,131.7 273.6,130.9 273.6,135 273.6,135 272.3,136.2 273.4,137.5 273.4,142.9 281.9,140.4 
		281.9,132.5 	"/>
	<rect x="281.9" y="130.3" class="st2" width="4.4" height="0"/>
	<polygon class="st2" points="281.9,132.5 281.9,132.5 281.9,140.4 281.9,140.4 281.9,140.4 287.7,138.8 286.3,130.3 281.9,130.3 	
		"/>
	<polygon class="st2" points="432.2,108.4 431.7,105.1 429.4,106 429.4,106 427.4,103.4 426,104 428,110.1 429.2,108.9 434.8,113.6 
		435.1,111.1 	"/>
	<polygon class="st2" points="272.3,99.7 273.1,99.7 273.1,99 273.1,99 285.4,92.3 285.4,87.5 285.4,87.5 276.3,88.4 267.7,99.7 
		268.8,99.7 	"/>
	<polygon class="st2" points="310.6,135.3 310.6,135.3 310.6,135.3 310.6,135.3 310.6,135.3 	"/>
	<polygon class="st2" points="310.6,135.3 310.6,135.3 309.5,139.5 309.5,139.5 310.6,135.3 	"/>
	<polygon class="st2" points="306.3,52.2 305.1,51 304,51.5 303.7,53.1 305.7,53.1 	"/>
	<polygon class="st2" points="322.3,129.7 310.6,135.3 309.5,139.5 312.5,143.8 317.2,143.8 317.6,140.7 331.5,140.3 322.3,129.7 
		322.3,129.7 	"/>
	<polygon class="st2" points="443,115.1 445.5,113.3 445.5,111.6 441.2,104.3 441.2,104.3 441.2,104.3 442.3,101.3 439.8,100.2 
		436.4,102.6 436.3,102.9 434.8,113.6 437.3,115.7 438.3,120.7 440,121.3 441.3,119.7 443.7,122.3 445,127.2 444.7,132.2 
		446.7,128.2 	"/>
	<polygon class="st2" points="309.4,131.8 309.4,131.8 310.6,135.3 310.6,135.3 	"/>
	<polygon class="st2" points="292.7,128 292.7,128 292.7,128 293.2,125.6 292.7,128 	"/>
	<polygon class="st2" points="311,108.8 311,108.8 312.4,118.3 308.9,125.6 312.4,118.3 	"/>
	<polygon class="st2" points="465.9,155.2 473.7,155.2 477.6,150.3 477.6,141.3 474.8,141.6 472.6,145.9 465,147.6 463.4,146.6 
		463.4,146.6 463.4,146.6 463.3,146.6 463.5,150.9 	"/>
	<polygon class="st2" points="310.6,135.3 322.3,129.7 322.3,129.7 310.6,135.3 310.6,135.3 310.6,135.3 	"/>
	<polygon class="st2" points="308.9,125.6 308.9,125.6 311.8,131.8 311.8,131.8 	"/>
	<polygon class="st2" points="331.5,140.3 324.4,132.1 322.3,129.7 331.5,140.3 	"/>
	<polygon class="st2" points="301.5,95.6 305.7,91 305.7,91 301.5,95.6 	"/>
	<polygon class="st2" points="301.5,95.6 301.5,95.6 301.5,95.6 301.5,95.6 	"/>
	<polygon class="st2" points="305.7,91 304,90.6 304.3,84.8 299.2,84.6 299.9,88.3 301.5,95.6 	"/>
	<polygon class="st2" points="303.1,103.4 301.5,95.6 301.5,95.6 	"/>
	<polygon class="st2" points="324.9,121.2 322.3,123.7 322.3,123.7 324.9,121.2 325.1,115.3 325.1,115.3 	"/>
	<polygon class="st2" points="301.5,95.6 301.5,95.6 301.5,95.6 299.9,88.3 301.5,95.6 	"/>
	<polygon class="st2" points="285.4,92.3 273.1,99 273.1,99.7 273.1,99.7 273.1,100.6 290.3,113.3 293.7,115.8 304,108.8 
		304.2,108.8 303.1,103.4 301.5,95.6 301.5,95.6 299.9,88.3 299.2,84.6 293.3,84.5 285.4,87.5 285.4,92.3 	"/>
	<polygon class="st2" points="315,108.8 325.1,115.3 325.1,115.3 315,108.8 311,108.8 311,108.8 	"/>
	<polygon class="st2" points="325.1,115.3 325.1,115.3 325.1,115.3 325.1,115.3 	"/>
	<polygon class="st2" points="311,108.8 311,108.8 304.2,108.8 304.2,108.8 	"/>
	<polygon class="st2" points="311,108.8 311,108.8 311,108.8 311,108.8 	"/>
	<polygon class="st2" points="304.2,108.8 304,108.8 293.7,115.8 293.7,121.1 286.6,124 291.4,128.4 292.7,128 293.2,125.6 
		308.9,125.6 312.4,118.3 311,108.8 304.2,108.8 304.2,108.8 304.2,108.8 	"/>
	<polygon class="st2" points="272.2,16.8 277.5,15.7 279.4,13.8 264,12.3 250.7,13.8 234.6,13.8 225.4,17 218,19.3 218,21.6 
		229.2,21.7 232.1,26.7 232.1,31.2 226.7,34.3 226.9,40.4 230.3,43.8 234.3,43.8 240.4,37.4 249.1,34.8 252.4,32.3 258.9,31.9 
		263.5,30.6 	"/>
	<polygon class="st2" points="129.8,97.2 125.2,97.3 123.1,94 106.7,91.9 106.7,91.9 123.1,94 125.2,97.3 129.8,97.2 133.6,104.6 
		133.6,104.6 	"/>
	<polygon class="st2" points="142.4,125 145.2,126.3 145.7,124.6 143.2,123.5 	"/>
	<path class="st2" d="M161.3,93.8l27.2-23.2l1.8-0.3l1.1-3.3h-2.9l-3.2,2.8h-7.5l-2.3,1.6h1.8l-2.5,1.7H173l2.5-1.7l-3.3,0.1l0-0.1
		h-1.5l-2.1,1.6l-2.2,0.2l0.4-3.7h-1.7l-1.9,1.3l-3.6,5.3h-2.1l4.1-6.6l4.8-1l-0.3-0.9l-3.2-0.1l-1.5-0.9l-1.9,0.9h-2.2l0.9-1.9
		l-4.6-2.1h-38.8l-12.8,13.5v10.4l4.7,4.7l0,0l0,0l16.3,2.1l2.2,3.3l4.6-0.2l3.8,7.4l0,0l0,0l7.1-8.9l16.8,0.1l1.1,8.4l2.7,0.1
		L161.3,93.8z M168,74.4h3l-2.5,1.7h-3L168,74.4z"/>
	<polygon class="st2" points="115.2,47.7 113.6,45.9 111.7,45.9 109.8,43.8 125.6,30.2 125.6,30.2 109.8,43.8 111.6,45.9 
		113.5,45.9 115.2,47.7 113.3,49.7 113.3,49.7 	"/>
	<polygon class="st2" points="185.2,69.8 188.5,67 188.5,67 	"/>
	<polygon class="st2" points="113.5,45.9 111.6,45.9 109.8,43.8 125.6,30.2 125.6,30.2 125.6,30.2 125.6,30.2 122,28.7 102.9,28.8 
		95.1,31.9 95.1,35.4 86.4,35.3 84.8,37.6 92.1,37.3 82.7,40.8 78.1,47 82,47 74.5,51.9 77.3,52.1 91.7,45.2 108.3,44.7 113.3,49.7 
		115.2,47.7 	"/>
	<polygon class="st2" points="37.8,157.3 32.3,160.1 34.3,161.3 37.8,159.3 	"/>
	<polygon class="st2" points="158.2,65.5 165.9,63.8 166.9,67.3 168.4,68.4 171.1,68.2 172.1,71.3 175.5,71.3 177.8,69.8 
		185.2,69.8 188.5,67 188.5,67 191.4,67 190.3,70.3 195.4,69.3 192,71 192.3,72.3 201.5,69.1 197,68.9 195,67 197,63.8 196,62.9 
		189.5,65.8 189.5,64.1 195.7,61.1 205.7,60.7 213.2,56.7 213.2,54.9 207.8,54 207.1,45 200,47.9 200,43.7 196.6,40.7 191.9,40.7 
		179.3,59.1 176.2,59.1 176.3,53.1 165.4,47.2 176.3,39.1 182.4,38 181.2,36.1 190.7,35 194.5,31 190.9,30.6 185.9,33.9 186.5,31.1 
		184.1,30.9 183.6,27.4 179.5,29.2 180.6,31.4 175.2,34 165.8,32.2 160.8,34.6 148.7,29.7 125.6,30.2 109.8,43.8 111.7,45.9 
		113.6,45.9 115.2,47.7 113.3,49.7 113.3,49.7 113.3,49.7 111.3,58.6 114.8,61.7 114.9,63.4 153.7,63.4 	"/>
	<polygon class="st2" points="168.4,116.5 172.2,116.5 172.2,114.4 169.2,114.4 170.2,115.8 168.4,115.8 	"/>
	<polygon class="st2" points="19.8,154.4 15.4,152 11.2,155.4 6.9,153.7 6.4,156.1 8.9,156 15.3,158.7 16.5,162 14.4,163.3 
		19.8,165.2 19.8,154.4 	"/>
	<polygon class="st2" points="165,118.1 165,117 164,116 161,116 161,117.2 162.1,118.1 	"/>
	<polygon class="st2" points="19.8,154.4 19.8,165.2 19.8,165.2 21.8,165.9 25.6,162.4 30.6,167.2 35.1,168.1 29.5,162.5 
		29.8,159.6 	"/>
	<polygon class="st2" points="187.3,187.7 195.5,193.2 195.5,196.7 195.5,196.7 195.5,193.2 187.4,187.7 	"/>
	<polygon class="st2" points="35.1,154.4 39.1,157.3 40.8,156.8 36.7,154.3 	"/>
	<polygon class="st2" points="188.9,39.8 189.5,38.3 186,36.8 183.1,39.2 	"/>
	<polygon class="st2" points="113.1,62.2 110.5,60 109.4,61 111.2,63.4 113.1,63.4 	"/>
	<polygon class="st2" points="182.2,26.5 183.2,23.8 176.7,26 178.4,27.7 	"/>
	<polygon class="st2" points="212,62.4 212,62.4 210.2,61.9 210.2,62 	"/>
	<polygon class="st2" points="210.2,59.7 204.5,65.5 204.6,65.5 210.2,59.8 	"/>
	<polygon class="st2" points="280.3,55.1 281.5,54.7 281.5,53.1 278.6,52.9 	"/>
	<polygon class="st2" points="204.4,19.3 198.5,19.3 199.4,20.2 205.9,20.2 206.9,21.1 216.4,16.7 224.1,15.1 229.9,11.9 
		206.8,13.6 206.8,14.8 214.6,14.7 213.5,16.1 205.5,16.3 206.5,18.1 203.1,17.6 	"/>
	<polygon class="st2" points="212,62.4 210.2,62 210.2,61.9 210.2,61.9 210.2,59.8 204.6,65.5 213.9,65.5 	"/>
	<polygon class="st2" points="210.2,61.9 210.2,59.7 210.2,59.8 210.2,61.9 	"/>
	<polygon class="st2" points="275.6,55.1 275.6,59.5 277.3,59.4 277.3,57.9 280.5,58.4 280.3,55.1 278.6,52.9 	"/>
	<polygon class="st2" points="274.7,81.5 276.3,84.3 277.2,84.4 277.2,84.4 277.2,84.4 278.3,75.6 274.9,75.1 	"/>
	<polygon class="st2" points="172.1,71.4 175.5,71.3 172.1,71.3 	"/>
	<polygon class="st2" points="284.8,55.4 283.1,56.3 284.6,58.5 281.5,61.3 285.5,60.6 289.6,60 289.8,58.5 290.7,58.5 290.9,56.8 
		288.2,56.2 284.9,48.7 282.4,48.6 282.4,52.7 284.7,52.9 	"/>
	<polygon class="st2" points="214,65.5 212,62.4 212,62.4 213.9,65.5 204.6,65.5 204.5,65.5 	"/>
	<polygon class="st2" points="292.9,78.7 290.7,80.6 292.9,80.6 	"/>
	<polygon class="st2" points="277.2,84.4 278.3,75.6 278.3,75.6 277.2,84.4 	"/>
	<polygon class="st2" points="159.7,28.1 154.7,29.4 160.9,31.8 165.2,30 170,31.1 173.5,30.3 170,28.7 172.7,25.2 170,25.2 
		168.4,27.3 167.8,25.2 164.9,26.3 162,24.9 156.5,26.8 	"/>
	<polygon class="st2" points="160.7,24.3 158.3,23.2 148.8,25.7 150.6,27.7 	"/>
	<polygon class="st2" points="189.5,25.2 188.5,23.8 183.9,24.9 184.4,26.6 	"/>
	<polygon class="st2" points="178.4,30.7 177.6,29.4 174.6,30.7 175.7,32.1 	"/>
	<polygon class="st2" points="202.6,15.7 200.9,14.4 195.9,16.5 200.2,17.3 	"/>
	<polygon class="st2" points="205.5,21.4 197,21.4 194.2,20.2 191.5,22.6 202.6,23.4 	"/>
	<polygon class="st2" points="208.6,40.2 208.6,35.5 212.2,36.8 214.3,35.4 213.1,33.2 211,32.5 210.9,29.2 199.4,24.5 197.7,24.4 
		193.7,27.7 195,24.4 193.1,24.4 188.4,29.4 199.8,28.8 206.7,35 202,34.9 199.7,36.8 194.4,36.8 194.4,38.3 199.8,38.3 204.3,42.1 
		205.5,41.5 204.5,39.1 207.6,40.6 	"/>
	<polygon class="st2" points="202.2,192.1 194.8,188.2 194.6,183.7 194.6,183.7 194.8,188.2 202.2,192.1 202.4,194.9 202.4,194.9 	
		"/>
	<polygon class="st2" points="268.8,35.8 265,35.8 264.2,36.9 262,36.8 262,38.8 269.6,39.9 274.2,37.7 274.2,37.1 271.9,34.8 	"/>
	<polygon class="st2" points="194.5,179.8 194.5,179.8 194.6,183.7 194.6,183.7 	"/>
	<polygon class="st2" points="197.7,201.7 197.7,209.3 203.6,211.5 206,207.4 206,207.4 206,207.4 	"/>
	<polygon class="st2" points="197.7,201.7 206,207.4 206,207.4 197.7,201.7 	"/>
	<polygon class="st2" points="214.5,154.1 214.7,151.9 211,150.2 207.3,152.4 208.5,149.2 206,148.1 202.5,150.8 205,147 
		202.8,142.1 201.8,144.9 198.5,145.2 196.5,145.5 189.3,146.3 189.5,140.2 187.4,140.9 187.4,140.9 182.5,142.7 182.8,146.7 
		179.2,147.9 179.2,147.9 179.2,147.9 178,145.3 177.1,145.4 173.7,145.6 173.7,155.1 173.7,155.1 173.7,155.1 173.7,156.8 
		173.7,156.8 169.3,157.3 167.3,163.7 174.7,170 181.3,168.1 185.8,172.7 194.5,179.8 194.5,179.8 194.6,183.7 194.8,188.2 
		202.2,192.1 202.4,194.9 202.4,194.9 202.4,194.9 202.4,194.9 202.6,196.8 197.7,201.7 197.7,201.7 197.7,201.7 197.7,201.7 
		206,207.4 210.8,199 211.9,191.7 223.6,186.6 225.7,170.5 230.8,163.9 230.8,159.9 222.5,154.5 	"/>
	<polygon class="st2" points="158.9,146.7 158.9,146.7 165.4,150.3 165.4,150.3 	"/>
	<polygon class="st2" points="159,158.1 159.1,158.1 165.4,150.4 165.4,150.3 	"/>
	<polygon class="st2" points="175.5,182.9 175.5,182.9 176.3,181 176.3,181 	"/>
	<polygon class="st2" points="312.1,145.1 312.5,143.8 312.5,143.8 309.5,139.5 309.5,139.5 309.5,139.5 310.6,135.3 309.4,131.8 
		309.4,131.8 311.8,131.8 308.9,125.6 308.9,129 304.7,137.7 301,137.9 300.5,141.4 302.1,141.4 302,145.1 302,145.1 304.8,145.1 
		307.8,145.1 	"/>
	<polygon class="st2" points="472.6,145.9 474.8,141.6 477.6,141.3 477.6,138 474.7,138.3 471.3,142.9 463.4,146.6 465,147.6 	"/>
	<polygon class="st2" points="346.2,142 345.2,140.9 345.2,140.9 346.2,142 	"/>
	<polygon class="st2" points="478.8,166.4 479.5,167.3 481.2,167.3 480.6,166 	"/>
	<rect x="335.3" y="194.9" class="st2" width="1.8" height="0"/>
	<polygon class="st2" points="332.1,169.1 332.1,169.1 335.3,170.4 335.3,170.4 	"/>
	<polygon class="st2" points="465,147.6 472.6,145.9 474.8,141.6 477.6,141.3 477.6,141.3 474.8,141.6 472.6,145.9 465,147.6 
		463.4,146.6 463.4,146.6 	"/>
	<polygon class="st2" points="363.5,135.5 363.4,135.6 363.5,135.5 	"/>
	<polygon class="st2" points="259.7,128.1 261.9,130.5 264.4,128 259.7,128 	"/>
	<polygon class="st2" points="357.5,180.2 356.7,186 355.3,189.9 357,193.9 361.1,194.1 368,171.8 365.6,171.8 	"/>
	<polygon class="st2" points="480.6,163.8 481.1,165.4 483.5,165.4 484.5,164.6 483.1,163.8 	"/>
	<polygon class="st2" points="486.2,151 482.5,151.1 481.7,150.1 483.2,148.4 486,149.4 487.3,149.3 489.4,146.8 487.6,146.8 
		486.4,147.6 482.5,146.6 480,148.9 480.2,152.6 478.7,154.6 479.6,159.3 481.5,158.8 480.9,155.5 482,154.3 482.9,156.7 
		485.1,157.5 485.1,155.7 483.9,153 	"/>
	<polygon class="st2" points="353.9,128.1 352.9,129 352.9,129 353.9,128.1 	"/>
	<polygon class="st2" points="202.6,196.8 202.4,194.9 202.4,194.9 202.5,196.8 197.7,201.7 197.7,201.7 197.7,201.7 	"/>
	<polygon class="st2" points="493.5,89.8 490.9,90.2 492.4,91.8 	"/>
	<polygon class="st2" points="182.8,146.7 182.5,142.7 187.4,140.9 187.4,140.9 187.4,140.9 182.5,142.7 182.8,146.7 179.2,147.9 
		179.2,147.9 	"/>
	<polygon class="st2" points="489,165.7 492,165.4 492,164.2 487.9,164.2 	"/>
	<polygon class="st2" points="187.4,140.9 189.5,140.2 189.5,140.2 	"/>
	<polygon class="st2" points="173.7,145.6 177.1,145.4 177.1,145.4 173.7,145.6 173.7,155.1 173.7,155.1 	"/>
	<polygon class="st2" points="178,145.3 178,145.3 177.1,145.4 177.1,145.4 	"/>
	<polygon class="st2" points="161.4,133.8 161.9,135.3 161.5,134 161.5,133.8 	"/>
	<polygon class="st2" points="8.7,150.6 4.1,151.2 9.3,153.5 	"/>
	<polygon class="st2" points="2.6,155.2 2.6,154.1 0,154.1 0,155.5 	"/>
	<polygon class="st2" points="493.1,155.6 494.7,155.5 494.7,154.1 493.5,154.1 	"/>
	<polygon class="st2" points="0.5,145.2 0,144.7 0,145.8 	"/>
	<polygon class="st2" points="493.1,145.8 492.5,149.2 494.5,149.7 494,146.6 494.7,145.8 494.7,144.7 494.5,144.4 	"/>
	<polygon class="st2" points="169.3,157.3 173.7,156.8 173.7,156.8 169.3,157.3 167.3,163.7 174.7,170 174.7,170 167.3,163.7 	"/>
	<polygon class="st2" points="176.3,181 176.3,181 176.3,169.5 176.3,169.5 176.3,181 	"/>
	<polygon class="st2" points="189.5,140.2 189.5,140.2 189.3,146.3 194.1,145.7 194.1,145.7 192.5,141.4 194,138.6 188.9,133.8 
		187.4,140.9 	"/>
	<polygon class="st2" points="188.9,133.8 188.9,133.8 187.4,140.9 187.4,140.9 	"/>
	<polygon class="st2" points="152.4,134.4 152.4,134.4 153.9,132.5 153.9,132.5 	"/>
	<polygon class="st2" points="194.1,145.7 196.5,145.5 198.5,145.2 198.8,139.1 194,138.6 192.5,141.4 	"/>
	<polygon class="st2" points="485.4,167 487.3,167.3 489,165.7 487.9,164.2 	"/>
	<polygon class="st2" points="196.5,145.5 198.5,145.2 198.5,145.2 	"/>
	<polygon class="st2" points="194.1,145.7 194.1,145.7 192.5,141.4 	"/>
	<polygon class="st2" points="198.5,145.2 201.8,144.9 198.5,145.2 	"/>
	<polygon class="st2" points="201.8,144.9 202.8,142.1 201.5,139.3 198.8,139.1 198.5,145.2 	"/>
	<polygon class="st2" points="356.1,117.9 354.8,120.2 354.8,120.2 	"/>
	<polygon class="st2" points="445.5,111.6 445.5,113.3 445.5,111.6 	"/>
	<rect x="445.5" y="111.6" transform="matrix(0.8944 -0.4472 0.4472 0.8944 -2.8655 211.0144)" class="st2" width="0" height="0"/>
	<polygon class="st2" points="445.5,111.6 445.5,111.6 445.5,111.6 441.2,104.3 441.2,104.3 	"/>
	<polygon class="st2" points="447.7,110.5 447.7,110.5 445.5,111.6 445.5,111.6 	"/>
	<polygon class="st2" points="443,115.1 445.5,113.3 445.5,113.3 	"/>
	<polygon class="st2" points="305.5,152.8 310.2,152.8 307.8,145.1 304.8,145.1 304.8,147.7 302,147.7 301.9,152.1 305.5,156.9 
		305.5,152.8 	"/>
	<polygon class="st2" points="314.5,68.5 315.8,68.3 315.8,68.3 315.8,68.3 315.8,68.3 318.4,67.8 318.4,67.8 321.4,64.6 
		320.2,64.6 320.2,63.8 313.4,65.1 310.9,67.1 311.6,67.4 311.6,67.4 311.6,67.4 311.6,67.4 	"/>
	<polygon class="st2" points="315.8,68.3 315.8,68.3 314.5,68.5 311.6,67.4 311.6,67.4 314.5,68.5 	"/>
	<polygon class="st2" points="316,69.5 315.8,68.5 315.8,68.3 314.5,68.5 311.6,67.4 310.6,69 308.5,70.1 309.3,70.1 312.7,74 
		313.4,74.2 311.5,70.1 311.5,70.1 311.5,70.1 	"/>
	<polygon class="st2" points="445.5,113.3 445.5,113.3 447.6,114.5 447.6,114.5 	"/>
	<polygon class="st2" points="445.5,113.3 447.6,114.5 447.6,114.5 447.6,117.8 452.8,117.8 452.8,117.8 455.7,121.7 453,124.5 
		459.1,124.5 459.1,122.9 453.2,116.6 451.8,112.5 447.7,110.5 445.5,111.6 	"/>
	<polygon class="st2" points="310.9,67.1 310.9,67.1 311.6,67.4 311.6,67.4 	"/>
	<polygon class="st2" points="305.8,45.3 305.8,38.7 305.8,38.7 315.9,31.3 317.5,31.3 317.5,31.3 317.5,31.3 317.5,31.3 
		321.5,31.3 321.5,29.5 315.8,29.7 296.1,43.3 298.1,48 304,47 304.4,47.5 304.4,47.5 304.4,47.5 	"/>
	<polygon class="st2" points="480.4,74.5 480.4,74.5 480.4,74.5 480.4,74.5 480.4,74.5 	"/>
	<polygon class="st2" points="480.4,74.5 474,78.9 474,78.9 480.4,74.5 	"/>
	<polygon class="st2" points="474,78.9 475.9,82.4 478.4,83.1 480.3,81.3 478.4,79.7 480.8,79.4 480.4,74.5 480.4,74.5 	"/>
	<polygon class="st2" points="315.9,31.3 305.8,38.7 305.8,38.7 315.9,31.3 317.5,31.3 317.5,31.3 	"/>
	<polygon class="st2" points="434.1,97.7 436,98.6 434.1,97.7 430.2,101.3 430.2,101.3 430.2,101.3 	"/>
	<polygon class="st2" points="455.7,121.7 452.8,117.8 447.6,117.8 447.6,114.5 445.5,113.3 443,115.1 446.7,128.2 444.7,132.2 
		444.7,132.2 444.5,134.2 448.1,137.2 448.4,138.3 450.6,138 447.1,132.9 447.9,125.1 451.8,128.9 451.8,125.7 	"/>
	<polygon class="st2" points="318.6,78.4 318.4,75.3 318,74.7 317.4,73.9 315.8,74.8 317.4,73.9 316.9,73.3 316.6,72.8 314.5,74.4 
		316.7,78.7 317,79 317,79 317,78.9 	"/>
	<polygon class="st2" points="459.1,128.1 455.9,130.5 455.9,130.5 	"/>
	<polygon class="st2" points="459.1,124.5 453,124.5 451.8,125.7 451.8,128.9 451.8,128.9 453.7,130.8 455.9,130.5 459.1,128.1 	"/>
	<polygon class="st2" points="453.1,107.7 447.7,110.5 447.7,110.5 453.1,107.7 458.1,112 458.1,112 	"/>
	<polygon class="st2" points="480.4,74.5 480.4,74.5 480.4,66 469.9,63.3 462.1,55.8 454.6,55.8 456.3,61.8 456.3,61.8 456.3,61.8 
		453.1,62.5 454.8,65.3 459.4,66 458.9,68.4 452.4,69.8 450,74.7 429.9,74.5 412.6,64.3 405.1,70.1 406.3,75.9 406.3,75.9 
		406.3,75.9 406.3,75.9 406.3,75.9 406.3,75.9 398.8,78.7 399.5,80.3 399.5,80.3 400.9,83.9 401.7,84.3 401.7,84.3 406.5,86.5 
		408.9,87.6 409.3,94 412.1,95 415.9,96.3 428.5,100.7 430.2,101.3 430.2,101.3 430.2,101.3 430.2,101.3 434.1,97.7 436,98.6 
		442.3,101.3 441.2,104.3 445.5,111.6 447.7,110.5 447.7,110.5 447.7,110.5 447.7,110.5 453.1,107.7 458.1,112 458.1,112 458.1,112 
		460.2,110.8 460.3,112.8 472.8,108.4 476.9,99.2 469.6,87.3 473.3,83.2 469,83.2 467.6,84.1 464.9,79.6 468.4,76.6 470.7,81.1 
		474,78.9 474,78.9 474,78.9 	"/>
	<polygon class="st2" points="447.7,110.5 451.8,112.5 453.2,116.6 459.1,122.9 459.1,124.5 459.1,128.1 455.9,130.5 455.9,130.5 
		456,134 462.1,129.9 461.9,123.8 455.5,117 455.8,113.3 458.1,112 453.1,107.7 	"/>
	<polygon class="st2" points="426,102.1 429.4,102.9 430.2,101.3 428.5,100.7 426.5,100 	"/>
	<polygon class="st2" points="381.4,86.7 387.7,83.5 377.3,75.2 372.9,75.2 370.3,76.2 367.6,74 364.5,74.8 369.4,78.9 369.2,83.2 
		373.1,81.9 379.4,83.9 379.7,84 	"/>
	<polygon class="st2" points="369.2,83.2 369.2,83.2 373.1,81.9 379.4,83.9 373.1,81.9 	"/>
	<polygon class="st2" points="358.3,80.4 361.3,80.1 361.4,80.1 361.4,80.1 359.2,76.2 359.2,76.2 359.2,76.2 356.9,75.6 
		355.4,77.7 	"/>
	<polygon class="st2" points="318,74.7 318.4,75.3 322.1,74.6 321.5,73.3 321.1,72.4 321.1,72.4 318.4,67.8 318.4,67.8 315.8,68.3 
		315.8,68.5 316,69.5 316,69.5 316.6,72.8 316.9,73.3 317.4,73.9 	"/>
	<polygon class="st2" points="389.1,97.4 395,92 396.6,85 395.6,82.1 391.1,84.4 391.1,84.4 387.7,83.5 387.7,83.5 387.7,83.5 
		381.4,86.7 381.4,86.7 381.4,86.7 380.1,89.4 380.1,89.5 382.8,97.3 	"/>
	<polygon class="st2" points="316,69.5 316,69.5 316,69.5 316.6,72.8 316,69.5 	"/>
	<polygon class="st2" points="382.8,97.3 380.1,89.5 382.8,97.3 382.8,97.3 382.8,97.3 	"/>
	<polygon class="st2" points="317.4,73.9 316.9,73.3 317.4,73.9 	"/>
	<polygon class="st2" points="408.2,61.8 412.6,64.4 412.6,64.3 408.2,61.8 383,52.9 373.1,55.2 373.1,55.2 383,52.9 	"/>
	<rect x="355.4" y="59.6" class="st2" width="17.6" height="0"/>
	<polygon class="st2" points="357.8,68.4 362.8,66.4 365.8,68.4 362.2,70.2 362.1,72.8 364.5,74.8 367.6,74 370.3,76.2 369.8,70.3 
		369.8,70.3 369.8,70.3 374,69.4 379.5,73.2 384.1,72.3 387.5,76.7 390.8,76.6 394,74 401.5,73.6 406.3,75.9 405.1,70.1 405.1,70.1 
		405.1,70.1 412.6,64.3 412.6,64.3 412.6,64.4 408.2,61.8 383,52.9 373.1,55.2 373.1,59.6 373,59.6 373,59.7 355.4,59.7 355.4,65.5 
			"/>
	<polygon class="st2" points="359.2,76.2 356.9,75.6 356.9,75.6 359.2,76.2 	"/>
	<polygon class="st2" points="305.8,45.3 304.4,47.5 304.4,47.5 305.8,45.3 	"/>
	<polygon class="st2" points="412.1,98.6 423.4,102.9 425.5,99.6 415.9,96.3 412.1,95 	"/>
	<polygon class="st2" points="415.9,96.3 412.1,95 412.1,95 	"/>
	<polygon class="st2" points="408.9,87.6 409.3,94 412.1,95 412.1,95 409.3,94 408.9,87.6 406.5,86.5 406.5,86.5 	"/>
	<polygon class="st2" points="311.5,70.1 313.4,74.2 314.5,74.4 316.6,72.8 316,69.5 	"/>
	<polygon class="st2" points="430.2,101.3 428.5,100.7 430.2,101.3 	"/>
	<polygon class="st2" points="382.8,97.3 382.8,97.3 382.8,97.3 382.8,97.3 	"/>
	<polygon class="st2" points="316,69.5 311.5,70.1 311.5,70.1 316,69.5 	"/>
	<polygon class="st2" points="395,92 389.1,97.4 382.8,97.3 382.8,97.3 389.1,97.4 395,92 396.6,85 396.6,85 	"/>
	<polygon class="st2" points="401.7,84.3 406.5,86.5 406.5,86.5 401.7,84.3 401.7,84.3 401.7,84.3 	"/>
	<polygon class="st2" points="401.7,84.3 401.7,84.3 401.7,84.3 401.7,84.3 	"/>
	<polygon class="st2" points="396.6,85 396.6,85 396.6,85 401.7,84.3 401.7,84.3 	"/>
	<rect x="317.5" y="31.3" class="st2" width="3.9" height="0"/>
	<polygon class="st2" points="300.1,65.8 298.9,66.4 298.6,67.6 298.5,68.3 300.7,68.5 302.7,68 302,65.8 	"/>
	<polygon class="st2" points="297.7,61.8 297.7,61.8 299.6,62.8 299.6,62.8 	"/>
	<polygon class="st2" points="297.8,60.7 297.8,60.7 297.8,60.7 297.8,60.2 297.8,59.8 294.9,58.3 293.1,59.4 296.7,61.3 	"/>
	<polygon class="st2" points="298.5,68.3 298.5,68.3 300.7,68.5 302.7,68 302.7,68 300.7,68.5 	"/>
	<polygon class="st2" points="313.4,65.1 313.4,65.1 311.5,63.3 311.5,63.3 	"/>
	<polygon class="st2" points="296.7,61.3 297.8,60.7 297.8,60.7 	"/>
	<polygon class="st2" points="298.5,68.3 298.5,68.3 298.6,67.6 298.9,66.4 298.9,66.4 298.9,66.4 298.9,66.4 299.4,64 299.6,62.8 
		297.7,61.8 297.7,61.8 293.1,59.4 285.4,64 282.6,64 282.6,65.1 285.9,66.9 286.3,72.8 291.2,76 292.8,74 300,74 300.2,71 
		300.4,71 298.1,70 	"/>
	<polygon class="st2" points="318.4,67.8 318.4,67.8 315.8,68.3 315.8,68.3 318.4,67.8 318.4,67.8 318.4,67.8 	"/>
	<polygon class="st2" points="318.4,67.8 321.4,64.6 321.4,64.6 318.4,67.8 	"/>
	<polygon class="st2" points="298.1,70 298.5,68.3 298.5,68.3 	"/>
	<polygon class="st2" points="298.9,66.4 298.9,66.4 299.4,64 	"/>
	<polygon class="st2" points="298.9,66.4 298.6,67.6 298.9,66.4 	"/>
	<polygon class="st2" points="318.4,67.8 318.4,67.8 318.4,67.8 318.4,67.8 	"/>
	<polygon class="st2" points="313.4,65.1 313.4,65.1 313.4,65.1 320.2,63.8 320.2,62.8 314,62 313.8,61.9 311.5,63.3 	"/>
	<polygon class="st2" points="297.8,60.7 297.8,60.2 297.8,60.7 	"/>
	<polygon class="st2" points="311.5,63.3 311.5,63.3 307,63.3 307,63.3 311.5,63.3 	"/>
	<polygon class="st2" points="307,63.3 307,63.3 307,63.3 311.5,63.3 311.5,63.3 313.8,61.9 313.8,61.9 309.4,60.2 305.5,61.4 
		307,63.3 	"/>
	<polygon class="st2" points="313.4,65.1 311.5,63.3 307,63.3 308.1,64.8 308.1,64.8 308.1,64.8 304.9,65.7 304.5,65.8 302,65.8 
		302.7,68 306.5,67.1 306.5,67.1 310.9,67.1 310.9,67.1 312.7,65.6 	"/>
	<polygon class="st2" points="315.9,31.3 305.8,38.7 305.8,45.3 305.8,45.3 304.4,47.5 308.2,51.8 314.4,46.4 311.5,42.8 318,35.6 
		319.3,35.6 317.5,31.3 	"/>
	<polygon class="st2" points="311.5,63.3 313.8,61.9 313.8,61.9 	"/>
	<polygon class="st2" points="297.7,61.8 297.8,60.7 296.7,61.3 	"/>
	<polygon class="st2" points="304.9,65.7 308.1,64.8 308.1,64.8 304.5,65.8 302,65.8 302,65.8 304.5,65.8 	"/>
	<polygon class="st2" points="306.5,67.1 306.5,67.1 302.7,68 302.7,68 306.5,67.1 306.5,67.1 306.5,67.1 	"/>
	<polygon class="st2" points="306.5,67.1 306.5,67.1 306.5,67.1 306.5,67.1 	"/>
	<polygon class="st2" points="306.5,67.1 306.5,67.1 310.9,67.1 310.9,67.1 310.9,67.1 	"/>
	<polygon class="st2" points="307,63.3 307,63.3 307,63.3 305.5,61.4 305.5,61.4 	"/>
	<polygon class="st2" points="306.5,67.1 306.5,67.1 308.1,70.1 308.1,70.1 	"/>
	<polygon class="st2" points="324.6,49.2 324.6,49.2 322.3,48 	"/>
	<polygon class="st2" points="326.6,51.8 326.6,51.8 326.6,51.8 326.2,48.8 326.2,48.8 326.2,48.8 	"/>
	<polygon class="st2" points="324.6,49.2 326.2,48.8 325.7,45.3 324.8,46.1 320.2,46.2 319.8,47.2 321.2,48.2 322.3,48 	"/>
	<polygon class="st2" points="322.3,51.4 318,50.3 318,52.5 320.4,53.3 321.1,54.6 321.6,56.1 325.4,52.8 	"/>
	<polygon class="st2" points="326.6,51.8 326.6,51.8 326.6,51.8 	"/>
	<polygon class="st2" points="325.4,52.8 326.6,51.8 326.6,51.8 326.2,48.8 326.2,48.8 324.6,49.2 324.6,49.2 322.3,48 321.2,48.2 
		321.5,48.4 321.2,49.9 318,48.4 318,50.3 322.3,51.4 	"/>
	<polygon class="st2" points="310.9,67.1 310.9,67.1 310.9,67.1 306.5,67.1 308.1,70.1 308.1,70.1 308.1,70.1 308.5,70.1 310.6,69 
		311.6,67.4 310.9,67.1 	"/>
	<polygon class="st2" points="324.4,29.3 324.4,29.3 324.4,29.3 321.5,29.4 321.5,29.5 321.5,31.3 321.5,31.3 317.5,31.3 
		319.3,35.6 320.4,35.6 317.2,42.7 320.9,44.6 326.5,44.6 329.6,41 	"/>
	<polygon class="st2" points="326.2,48.8 325.7,45.3 325.7,45.3 326.2,48.8 	"/>
	<polygon class="st2" points="329.6,41 324.4,29.3 324.4,29.3 329.6,41 326.5,44.6 326.5,44.6 	"/>
	<polygon class="st2" points="325.4,52.8 325.4,52.9 326.6,51.8 326.6,51.8 	"/>
	<polygon class="st2" points="306.5,67.1 302.7,68 302.7,68 302.7,68 302.7,68 300.7,68.5 298.5,68.3 298.5,68.3 298.5,68.3 
		298.1,70 300.4,71 303,71 311,79 311.4,82.4 312.8,81.6 313.3,79.1 315.1,78.8 305.4,70.3 308.1,70.1 306.5,67.1 	"/>
	<polygon class="st2" points="325.4,52.8 321.6,56.1 325.4,52.9 	"/>
	<polygon class="st2" points="321.1,72.4 321.1,72.4 321.1,72.4 321.1,72.4 	"/>
	<polygon class="st2" points="318.4,75.3 318.6,78.4 323.1,77 322.1,74.6 	"/>
	<polygon class="st2" points="316,69.5 315.8,68.5 316,69.5 	"/>
	<polygon class="st2" points="321.1,72.4 321.1,72.4 321.1,72.4 321.1,72.4 321.1,72.4 318.4,67.8 318.4,67.8 	"/>
	<polygon class="st2" points="316,69.5 316,69.5 316,69.5 316,69.5 	"/>
	<polygon class="st2" points="321.5,73.3 321.1,72.4 321.1,72.4 	"/>
	<polygon class="st2" points="333,56.4 330.2,51.8 326.6,51.8 325.4,52.9 321.6,56.1 322.4,58.3 329.6,59.5 334.1,58.5 331.4,57.4 	
		"/>
	<polygon class="st2" points="331.4,57.4 333,56.4 330.3,51.8 326.6,51.8 326.6,51.8 330.2,51.8 333,56.4 331.4,57.4 334.1,58.5 
		334.1,58.5 	"/>
	<polygon class="st2" points="317.4,73.9 318,74.7 317.4,73.9 	"/>
	<polygon class="st2" points="318.6,78.4 323.1,77 323.1,77 318.6,78.4 	"/>
	<polygon class="st2" points="327.1,75.7 327.1,75.7 323.1,77 323.1,77 	"/>
	<polygon class="st2" points="446.7,128.2 444.7,132.2 444.7,132.2 	"/>
	<polygon class="st2" points="347.6,92.5 347.6,92.6 356.1,97 357.1,97.6 357.1,97.6 358.8,97.6 359.2,96 362.7,95.9 354.8,82.7 
		351.2,83.4 349.8,89 347.2,90.6 347.6,92.5 	"/>
	<polygon class="st2" points="360.2,97.6 361.3,99 362.8,99 360.9,96 359.2,96 358.8,97.6 	"/>
	<polygon class="st2" points="357.1,97.6 357.1,97.6 356.1,97 	"/>
	<polygon class="st2" points="385.6,101.6 383.3,98.8 383.3,98.7 382.8,97.3 382.8,97.3 380.1,89.5 380.1,89.4 380.1,89.4 
		381.4,86.7 379.7,84 379.4,83.9 373.1,81.9 369.2,83.2 369.2,83.2 369.2,83.2 369.1,84.9 364.2,84.9 361.4,80.1 361.3,80.1 
		354.9,80.7 354.9,82.6 362.8,96.1 365.2,96.4 370.7,102.1 380.8,105.1 383.6,105.1 383.6,105.1 383.6,105.1 	"/>
	<polygon class="st2" points="355.4,77.7 353.5,77.7 354.9,80.7 358.3,80.4 	"/>
	<polygon class="st2" points="347.6,92.5 347.6,92.5 347.2,90.6 347.2,90.6 	"/>
	<polygon class="st2" points="370.6,109.3 373.2,109.6 373.2,109.6 370.6,109.3 369.2,106.7 369.2,106.7 	"/>
	<polygon class="st2" points="398.5,104.1 396.4,103.3 396.4,100.2 399.3,100.2 403.7,96.1 402.7,92.1 400.7,90.9 400.8,88.9 
		404.2,86.5 406.5,86.5 401.7,84.3 396.6,85 395,92 389.1,97.4 382.8,97.3 383.3,98.7 383.3,98.8 385.6,101.6 385.6,101.6 
		385.6,101.6 383.6,105.1 392.4,105.1 394.7,107.7 398.5,106.7 	"/>
	<polygon class="st2" points="373.2,109.6 376.9,105.9 375.2,104.4 372.6,107.4 369.2,106.7 370.6,109.3 	"/>
	<polygon class="st2" points="366.4,116.9 363.1,118.6 366.4,116.9 370.8,115.7 370.8,115.7 	"/>
	<polygon class="st2" points="343.5,88.5 343.5,88.5 342,91.2 343.9,92.5 349.8,89 351.2,83.4 342.5,85.2 341.9,87.9 343.5,88.5 	
		"/>
	<polygon class="st2" points="345.4,96.7 346,93.2 346.8,92.9 346,93.2 	"/>
	<polygon class="st2" points="385.6,101.6 383.6,105.1 383.6,105.1 385.6,101.6 	"/>
	<polygon class="st2" points="375.2,109.9 375.2,114.5 370.8,115.7 370.8,115.7 375.2,114.5 375.2,109.9 373.2,109.6 373.2,109.6 	
		"/>
	<polygon class="st2" points="356.1,117.9 360.5,118.5 360.1,120.2 363.1,118.6 366.4,116.9 370.8,115.7 375.2,114.5 375.2,109.9 
		373.2,109.6 370.6,109.3 369.2,106.7 369.2,106.7 366.4,104.8 362.8,99 361.3,99 360.2,97.6 357.1,97.6 357.1,97.6 357.1,97.6 
		356.1,97 347.5,92.6 346.8,92.9 346,93.2 345.4,96.7 345.4,96.8 344.5,97.2 343.3,97.8 343.3,97.8 343.3,97.8 342,97.6 
		354.5,119.4 354.8,120.2 356.1,117.9 	"/>
	<polygon class="st2" points="344.5,97.2 343.3,97.8 343.3,97.8 	"/>
	<polygon class="st2" points="345.4,96.8 345.4,96.7 346,93.2 346.8,92.9 347.5,92.6 347.6,92.5 347.2,90.6 347.2,90.6 347.2,90.6 
		343.9,92.5 342,91.2 342,97.6 342,97.6 342,97.6 343.3,97.8 344.5,97.2 	"/>
	<polygon class="st2" points="342,91.2 342,91.2 342,97.6 342,97.6 	"/>
	<polygon class="st2" points="343.5,88.5 343.5,88.5 341.9,87.9 341.9,87.9 	"/>
	<polygon class="st2" points="370.8,115.7 366.4,116.9 363.1,118.6 360.1,120.2 360.5,118.5 356.1,117.9 354.8,120.2 354.8,120.2 
		354.8,120.2 357,127.4 373.3,120.1 370.8,118.4 	"/>
	<polygon class="st2" points="297.8,60.7 297.7,61.8 299.6,62.8 299.6,62.8 299.6,62.8 299.4,64 298.9,66.4 300.1,65.8 302,65.8 
		302,65.8 304.5,65.8 308.1,64.8 307,63.3 307,63.3 305.5,61.4 305.5,61.4 305.5,61.4 309.4,60.2 309,54.6 303.1,54.6 302.8,53.5 
		300.7,53.5 301.1,54.5 298,56.4 297.8,60.2 297.8,60.7 	"/>
	<polygon class="st2" points="343.5,88.5 341.9,87.9 341.9,87.9 341.9,87.9 341.3,90.7 342,91.2 	"/>
	<polygon class="st2" points="326.1,92.9 326,94.6 326.1,92.9 	"/>
	<polygon class="st2" points="340.2,94.8 340.2,94.8 326.1,92.9 326.1,92.9 326.1,92.9 326,94.6 325.4,109.9 340.8,109.9 
		343.9,108.1 337.5,97.2 341,100 341.9,97.8 342,97.7 340.2,94.8 	"/>
	<polygon class="st2" points="340.2,94.8 340.2,94.8 342,97.7 342,97.7 	"/>
	<polygon class="st2" points="342,91.2 342,91.2 342,91.2 341.3,90.7 340.2,94.8 342,97.7 342,97.7 342,97.7 342,97.6 342,91.2 	"/>
	<polygon class="st2" points="352.5,144.7 352.5,144.7 355.7,142 355.7,142 346.2,142 346.2,142 345.2,140.9 342.1,141.3 343,145.1 
		342.6,148.2 342.6,148.2 341.2,150.6 349.5,156.1 352.5,152.7 352.5,152.7 352.5,152.7 	"/>
	<polygon class="st2" points="318.9,193.2 318.9,193.2 318.9,199.2 318.9,199.2 	"/>
	<polygon class="st2" points="333,201.8 333,199.9 331.1,199.9 329.3,201.1 329.3,203.2 331.6,203.2 	"/>
	<polygon class="st2" points="333,199.9 333,199.9 331.1,199.9 329.3,201.1 329.3,201.1 331.1,199.9 	"/>
	<polygon class="st2" points="427.4,103.4 429.4,106 431.7,105.1 431.7,105.1 432.2,108.4 435.1,111.1 436.3,102.9 436.4,102.6 
		439.8,100.2 439.8,100.2 436,98.6 434.1,97.7 430.2,101.3 430.2,101.3 429.4,102.9 426,102.1 426.5,100 425.5,99.6 423.4,102.9 
		412.1,98.6 412.1,95 409.3,94 408.9,87.6 406.5,86.5 404.2,86.5 400.8,88.9 400.7,90.9 402.7,92.1 403.7,96.1 403.7,96.1 
		399.3,100.2 396.4,100.2 396.4,103.3 398.5,104.1 398.5,106.7 394.7,107.7 395,108.1 398.2,109.1 396.7,110.7 398.1,112.5 
		400.6,112.8 401.1,110.7 402.1,110.7 410.2,134.1 415.4,130.9 416.2,121.5 428,110.1 426,104 	"/>
	<polygon class="st2" points="335.3,194.9 335.3,196.5 337.1,197.6 337.1,195.5 337.1,195.5 337.1,194.9 	"/>
	<path class="st2" d="M337.1,197.6l-1.8-1.1v0v-1.6v0h1.8v-5.9h-4.6l-10.9,7.3l-2.7-3.1v6h0v0h-6.6l3.9,10.6h12.7l9.8-11.3l0.4-3
		l-1.8,0V197.6L337.1,197.6z M333,201.8l-1.4,1.5h-2.4v0v-2.1v0l1.8-1.2h1.9v0h0V201.8z"/>
	<polygon class="st2" points="321.1,176.8 321.1,172.6 324.8,172.6 324.7,167.9 321.8,166.5 321.8,166.5 321.8,161.1 318.4,161.1 
		317.8,163.5 314.5,163.6 313.6,160.6 308.3,160.7 308.3,172.4 305.3,177.3 305.6,180.6 324.1,180.6 	"/>
	<polygon class="st2" points="311.8,157.3 316.4,149.6 317.2,143.8 312.5,143.8 312.1,145.1 307.8,145.1 310.2,152.8 310.2,152.8 
		305.5,152.8 305.5,156.9 307.3,159.3 307.3,159.3 307.3,159.3 	"/>
	<polygon class="st2" points="316.4,149.6 317.2,143.8 317.2,143.8 316.4,149.6 311.8,157.3 307.3,159.3 307.3,159.3 311.8,157.3 	
		"/>
	<polygon class="st2" points="341.7,170 341.7,172.6 344,174.1 344,177.3 341.8,179.2 341.8,175.5 339.7,173.7 339.6,173.7 
		335.6,176.6 339.6,179.2 339.6,179.2 339.6,182.9 339.6,182.9 337.1,188.9 337.1,188.9 337.1,194.9 337.1,194.9 337.1,195.5 
		338.9,195.4 339,194.5 342.9,191.9 342.6,183.9 351.5,176.5 350.6,168.2 343.6,169.7 341.7,170 	"/>
	<polygon class="st2" points="318.9,193.2 318.9,193.1 318.9,182.2 327.7,182.2 326.6,180.7 326.6,180.6 324.1,180.6 305.6,180.6 
		312.2,199.2 318.9,199.2 318.9,193.2 	"/>
	<polygon class="st2" points="334.2,172.6 335.3,170.4 332.1,169.1 332.1,169.1 332.1,169.1 333,164.7 338.4,163.9 337.8,163.1 
		334.1,157.8 334.1,157.8 334.1,157.8 334.1,157.8 333,156.4 333,156.4 333,156.4 333.2,155.7 333.6,153.8 334.5,150.2 336.3,142.4 
		336.4,142.1 336.4,142.1 331.5,140.3 317.6,140.7 317.2,143.8 317.2,143.8 317.2,143.8 317.2,143.8 316.4,149.6 311.8,157.3 
		307.3,159.3 308.3,160.7 313.6,160.6 314.5,163.6 317.8,163.5 318.4,161.1 321.8,161.1 321.8,161.1 321.8,166.5 	"/>
	<polygon class="st2" points="352.5,144.7 352.5,144.7 352.5,152.7 352.5,152.7 352.5,144.7 	"/>
	<polygon class="st2" points="345.2,140.9 345.2,140.9 346.2,142 355.7,142 363.4,135.6 363.5,135.5 356.4,133 352.9,129 352.9,129 
		352.9,129 353.9,128.1 351.2,123.8 344.4,123.8 339.6,135.1 340.3,135.8 	"/>
	<polygon class="st2" points="353.9,128.1 355,127.3 348,115.3 344.4,123.8 344.4,123.8 351.2,123.8 	"/>
	<polygon class="st2" points="353.9,128.1 355,127.3 353.9,128.1 	"/>
	<polygon class="st2" points="325.1,115.3 325.1,115.3 325.1,115.3 325.1,115.3 325.4,109.9 325.4,109.9 	"/>
	<polygon class="st2" points="340.3,135.8 339.6,135.1 339.6,135.1 	"/>
	<polygon class="st2" points="340.7,151.6 337.7,151.6 338.5,150.2 338.5,150.2 337.1,150.2 337.1,150.3 335.9,153.3 334.1,157.7 
		334.1,157.8 337.8,163.1 339.6,165.6 341.7,165.6 341.7,165.6 341.7,170 343.6,169.7 350.6,168.2 349.5,156.1 341.2,150.6 	"/>
	<polygon class="st2" points="373.2,109.6 375.2,109.9 375.2,114.5 370.8,115.7 370.8,118.4 373.3,120.1 381.5,109.9 376.9,105.9 	
		"/>
	<polygon class="st2" points="352.9,129 354.7,131 356.4,129.7 355,127.3 353.9,128.1 	"/>
	<polygon class="st2" points="320.2,92.1 317.8,95.7 312.4,94.7 310.3,92.1 305.7,91 305.7,91 305.7,91 301.5,95.6 303.1,103.4 
		304.2,108.8 311,108.8 311,108.8 315,108.8 325.1,115.3 325.4,109.9 325.4,109.9 326,94.6 326.1,92.9 	"/>
	<polygon class="st2" points="356.4,133 363.5,135.5 363.5,135.5 363.5,135.5 363.4,135.6 352.5,144.7 352.5,144.7 352.5,152.7 
		369.8,132.5 369.1,129 357,130.8 356.4,129.7 354.7,131 	"/>
	<polygon class="st2" points="369.1,105.1 367.5,102.9 366.8,105.1 368.2,106 	"/>
	<polygon class="st2" points="406.3,75.9 406.3,75.9 406.3,75.9 	"/>
	<polygon class="st2" points="429.9,74.5 450,74.7 452.4,69.8 458.9,68.4 459.4,66 454.8,65.3 453.1,62.5 453.1,62.5 444.5,62.5 
		427,58.1 425,62.5 425,62.5 425,62.5 417.9,60.3 412.6,64.3 	"/>
	<polygon class="st2" points="381.4,86.7 387.7,83.5 387.7,83.5 381.4,86.7 	"/>
	<polygon class="st2" points="394.6,76.4 394.6,76.4 390.8,76.6 390.8,76.6 	"/>
	<polygon class="st2" points="327.1,75.7 327.1,75.7 328.9,75.1 328.9,75.1 328.9,75.1 	"/>
	<polygon class="st2" points="425,62.5 417.9,60.3 417.9,60.3 425,62.5 	"/>
	<polygon class="st2" points="412.6,64.3 429.9,74.5 450,74.7 429.9,74.5 	"/>
	<polygon class="st2" points="456.3,61.8 456.3,61.8 453.1,62.5 453.1,62.5 	"/>
	<polygon class="st2" points="328,71.6 321.1,72.4 321.1,72.4 328,71.6 329.9,72.1 329.9,72.1 	"/>
	<polygon class="st2" points="453.1,62.5 453.1,62.5 453.1,62.5 444.5,62.5 427,58.1 427,58.1 444.5,62.5 	"/>
	<polygon class="st2" points="321.1,72.4 321.5,73.3 323.1,77 327.1,75.7 328.9,75.1 328.9,75.1 329.9,72.1 328,71.6 	"/>
	<polygon class="st2" points="400.9,83.9 401.7,84.3 401.7,84.3 400.9,83.9 399.5,80.3 399.5,80.3 	"/>
	<polygon class="st2" points="323.1,77 323.1,77 323.1,77 323.1,77 318.6,78.4 317,79 318.4,80.6 321.1,81.4 319.4,82.1 321.7,84.8 
		323,82.6 321.5,79.3 324.6,77.7 327.1,77.7 327.1,75.7 	"/>
	<polygon class="st2" points="369.8,70.3 369.8,70.3 370.3,76.2 370.3,76.2 	"/>
	<polygon class="st2" points="318.6,78.4 317,78.9 317,79 318.6,78.4 	"/>
	<polygon class="st2" points="394,74 390.8,76.6 394.6,76.4 394.6,76.4 394.6,76.4 394.3,78.5 391.1,79.4 395.1,80.7 399.5,80.3 
		398.8,78.7 398.8,78.7 398.8,78.7 406.3,75.9 406.3,75.9 401.5,73.6 	"/>
	<polygon class="st2" points="321.4,64.6 321.4,64.6 321.4,64.6 318.4,67.8 321.1,72.4 321.1,72.4 328,71.6 329.9,72.1 329.9,72.1 
		329.9,72.1 330.7,69.6 329.2,69 327.1,64.6 	"/>
	<polygon class="st2" points="399.5,80.3 399.5,80.3 399.5,80.3 398.8,78.7 398.8,78.7 	"/>
	<polygon class="st2" points="389.5,79.9 389.5,79.8 394.3,78.5 394.6,76.4 390.8,76.6 390.8,76.6 387.5,76.7 384.1,72.3 
		379.5,73.2 374,69.4 369.8,70.3 370.3,76.2 370.3,76.2 370.3,76.2 372.9,75.2 377.3,75.2 387.7,83.5 391.1,84.4 389.5,79.9 	"/>
	<polygon class="st2" points="389.5,79.9 389.5,79.9 391.1,84.4 391.1,84.4 	"/>
	<polygon class="st2" points="327.1,75.7 327.1,77.7 330.2,77.7 328.9,75.1 328.9,75.1 	"/>
	<polygon class="st2" points="395.6,82.1 396.6,85 396.6,85 401.7,84.3 400.9,83.9 399.5,80.3 395.1,80.7 391.1,79.4 389.5,79.9 
		391.1,84.4 391.1,84.4 391.1,84.4 395.6,82.1 	"/>
	<polygon class="st2" points="307.6,87.2 310,87.9 310.1,85.7 307.6,85.7 	"/>
	<polygon class="st2" points="480.9,88.7 484.1,88.4 484.6,84.8 480.3,81.3 478.4,83.1 	"/>
	<polygon class="st2" points="406.3,75.9 406.3,75.9 405.1,70.1 405.1,70.1 	"/>
	<polygon class="st2" points="298,56.4 294.9,58.3 297.8,59.8 	"/>
	<polygon class="st2" points="302.7,53.1 303.4,49.3 301.5,49.2 300.2,52.2 300.7,53.5 302.8,53.5 	"/>
	<polygon class="st2" points="321,54.6 321,54.6 318,54.1 318,54.1 	"/>
	<polygon class="st2" points="314,62 320.2,62.8 322.8,59.6 322.4,58.3 321.6,56.1 321,54.6 318,54.1 318,54.1 318,54.1 314.8,54.2 
		314,53.5 309.4,54.6 309,54.6 309.4,60.2 313.8,61.9 	"/>
	<polygon class="st2" points="321,54.6 321,54.7 320.4,53.3 318,52.5 318,54.1 321,54.6 	"/>
	<polygon class="st2" points="339.7,86.6 336.1,87.9 338.7,88.6 	"/>
	<polygon class="st2" points="310.2,84.5 310.2,82.2 306.4,82.2 306.4,83.1 307.8,84.1 	"/>
	<polygon class="st2" points="302.4,74 301,74 301,75.6 301.9,76 	"/>
	<polygon class="st2" points="301.9,77.3 300.1,76.7 300.1,80.7 301.9,80.7 	"/>
	<polygon class="st2" points="342.5,85.2 354.8,82.6 354.8,80.7 353.4,77.7 349.2,76.7 331.9,77.2 330.5,79 327.1,79 329.9,84.5 	
		"/>
	<polygon class="st2" points="1.7,44 1.7,41.8 3.2,42 5.8,44.4 3.3,46.1 3,51.2 13.1,60.7 13.1,51.5 7.4,46 20.8,41.8 21,40.4 
		14.2,38.5 16.9,36.5 22.9,37.7 27,37.8 23.7,34.3 2.6,30.1 0,30 0,43.4 	"/>
	<polygon class="st2" points="462.6,26.6 451.2,24.8 448,27.7 438.7,27.7 434.9,24.8 413.9,24.8 412.6,20.2 393.3,20.2 376.3,27.8 
		380,32.4 376.8,35.7 373.9,26.2 368.7,25.8 371.2,31.4 351.3,32 332.7,39.6 330.3,34.9 337.4,35.2 340.8,33.5 327.3,29.2 
		324.4,29.3 329.6,41 326.5,44.6 326.5,44.6 326.5,44.6 325.7,45.3 325.7,45.3 325.7,45.3 326.2,48.8 326.2,48.8 326.2,48.8 
		326.2,48.8 326.6,51.8 330.3,51.8 333,56.4 331.4,57.4 334.1,58.5 334.1,58.5 334.1,58.5 334.1,58.5 345.1,62.9 343.6,66.4 
		343.5,66.4 343.5,66.4 344.3,68.1 342.5,68.6 342.8,71.4 349.2,73.7 349.2,73.6 349.2,73.6 351.4,73.2 356.9,75.6 356.9,75.6 
		356.9,75.6 356.9,75.6 359.2,76.2 357.8,73.7 357.8,68.4 355.4,65.5 355.4,59.7 355.4,59.7 355.4,59.6 373,59.6 373,55.2 
		373.1,55.2 373.1,55.2 383,52.9 408.2,61.8 412.6,64.3 417.9,60.3 417.9,60.3 417.9,60.3 425,62.5 427,58.1 427,58.1 427,58.1 
		444.5,62.5 453.1,62.5 456.3,61.8 454.6,55.8 454.6,55.8 454.6,55.7 462.1,55.7 469.9,63.3 480.4,66 480.4,74.5 480.4,74.5 
		480.4,74.5 485,73.7 487.5,70 487.5,63.1 480.4,55.1 473.5,55 474.7,46.5 488.9,46.6 490.4,41.8 494.7,43.4 494.7,30 464.5,29.2 	
		"/>
	<polygon class="st2" points="334.1,58.5 334.1,58.5 329.6,59.5 322.4,58.3 322.9,59.6 320.3,62.8 320.3,64.6 321.4,64.6 
		327.1,64.6 330,64.6 330,64.6 331,66.4 329.3,69 330.8,69.6 331.2,68.4 336.9,68.4 335.7,69.7 337.4,70.8 339.8,70.6 337.6,67.7 
		343.5,66.4 345.1,62.9 	"/>
	<polygon class="st2" points="383.3,98.7 382.8,97.3 382.8,97.3 	"/>
	<polygon class="st2" points="380.1,89.4 380.1,89.4 381.4,86.7 	"/>
	<polygon class="st2" points="480.4,74.5 480.4,74.5 480.4,74.5 480.4,74.5 	"/>
	<polygon class="st2" points="345.1,62.9 334.1,58.5 334.1,58.5 334.1,58.5 345.1,62.9 343.5,66.4 343.6,66.4 	"/>
	<polygon class="st2" points="356.9,75.6 356.9,75.6 351.4,73.2 349.2,73.6 349.2,76.7 353.5,77.7 355.4,77.7 	"/>
	<polygon class="st2" points="329.2,69 330.9,66.4 330,64.6 327.1,64.6 	"/>
	<polygon class="st2" points="436.4,102.6 436.3,102.9 436.4,102.6 439.8,100.2 439.8,100.2 	"/>
	<polygon class="st2" points="356.9,75.6 356.9,75.6 356.9,75.6 351.4,73.2 349.2,73.6 349.2,73.6 351.4,73.2 	"/>
	<polygon class="st2" points="403.7,96.1 402.7,92.1 400.7,90.9 402.7,92.1 	"/>
	<polygon class="st2" points="469.9,63.3 480.4,66 480.4,74.5 480.4,74.5 480.4,74.5 480.4,66 469.9,63.3 462.1,55.7 454.6,55.7 
		454.6,55.8 462.1,55.8 	"/>
	<polygon class="st2" points="325.1,115.3 324.9,121.2 322.3,123.7 322.3,129.7 324.4,132.1 335.4,131.5 338.6,127.1 340.9,132.1 
		344.4,123.8 348,115.3 343.9,108.1 340.8,109.9 325.4,109.9 325.1,115.3 	"/>
	<polygon class="st2" points="335.4,131.5 324.4,132.1 331.5,140.3 336.4,142.1 345.2,140.9 340.3,135.8 339.6,135.1 339.6,135.1 
		339.6,135.1 340.9,132.1 338.6,127.1 	"/>
	<polygon class="st2" points="12.8,171.2 10.6,170.5 10.6,177.2 5.8,182 0,177 0,216.7 8.1,217.2 22.3,202.5 23.1,194.2 15.3,183.2 
			"/>
	<polygon class="st2" points="0.8,171.8 0,171.8 0,173.3 	"/>
	<polygon class="st2" points="493.3,175.8 494.7,173.3 494.7,171.8 486.8,172 484.5,176.8 479.3,174.5 469.8,185 457,191 457,205.2 
		455,210 456.5,211.8 480.8,206.5 484.8,210 489,208.2 490.5,216.5 494.7,216.7 494.7,177 	"/>
	<polygon class="st2" points="28.1,232.5 39.8,224.8 39.8,222.8 24.6,230.5 	"/>
	<polygon class="st2" points="48,215.2 48,212 46.8,212.5 46.8,217 43.8,220 42.8,223.2 50.1,218 	"/>
</g>
<g id="Spanish" class="st3">
	<polyline class="st4" points="144.6,117.6 147.7,115.2 147.7,115.4 147.8,115.3 147.9,111.9 144.5,111.8 141.8,116.3 134.2,116.3 
		130.6,108.4 133.6,104.6 129.8,97.2 125.2,97.3 123.1,94 106.7,91.9 106.8,92 107.5,99.3 112.5,108.8 114.5,107.2 110.6,98.8 
		110.6,94 112.9,94 113,98.4 120.5,116.1 132.7,121.2 135.8,120.4 138.4,123 139.8,120.7 142.6,120.7 142.2,117.6 	"/>
	<polyline class="st4" points="142.2,117.5 142.6,120.6 139.8,120.6 138.4,123 142.4,125 145.1,120.1 144.6,117.6 	"/>
	<polygon class="st4" points="152.8,130.5 152.6,121.1 146,126.7 148.5,130.1 	"/>
	<polygon class="st4" points="144.5,121.2 143.2,123.5 145.7,124.6 145.2,126.3 146,126.7 152.6,121.1 	"/>
	<polygon class="st4" points="192,243.7 194.2,245.7 201,246 193.7,242.1 	"/>
	<polygon class="st4" points="194.8,188.2 194.6,183.7 189.5,183.7 187.3,187.7 187.3,187.7 187.4,187.7 195.5,193.2 195.5,196.7 
		199.5,196.7 202.4,194.9 202.2,192.1 	"/>
	<polygon class="st4" points="180.4,117.4 181,116.4 179.4,116.4 178.8,117.4 	"/>
	<polygon class="st4" points="160.2,108.2 155.8,108.2 154.1,109.8 159,109.8 163,112.4 161.5,114.1 168.4,114.1 	"/>
	<polygon class="st4" points="173.9,115.9 176.5,115.9 177.1,115 172.2,114.4 172.2,116.5 172.2,117.1 	"/>
	<polygon class="st4" points="274.9,72.9 274.9,75.1 278.3,75.6 278.3,75.6 278.3,75.6 277.2,84.4 284.3,84.9 291.2,76 286.3,72.8 	
		"/>
	<polyline class="st4" points="144.6,117.6 145.1,120.1 147.7,115.2 	"/>
	<polygon class="st4" points="189.5,183.7 194.6,183.7 194.5,179.8 185.8,172.7 181.3,168.1 176.3,169.5 176.3,169.5 176.3,169.5 
		176.3,181 176.3,181 180.1,188.5 180.1,188.5 186.9,188.5 	"/>
	<polygon class="st4" points="202.5,196.8 202.4,194.9 199.5,196.7 199.5,196.7 195.5,196.7 195.5,196.7 195.5,193.2 187.3,187.7 
		186.9,188.5 186.9,188.5 180.1,188.5 178.3,205.4 182.1,222.2 185.6,228.3 185.7,233 190.9,240.8 192.8,241 191.8,220.9 
		202.7,216.2 197.7,209.3 197.7,201.7 197.7,201.7 	"/>
	<polygon class="st4" points="175.5,182.9 175.5,182.9 175.5,182.9 177.1,221.1 181.2,224.5 181.4,231.3 188.6,240.6 190.9,240.8 
		185.7,233 185.6,228.3 182.1,222.2 178.3,205.4 180.1,188.5 176.3,181 	"/>
	<polygon class="st4" points="165.4,150.4 165.4,150.3 158.9,146.7 155.9,150.5 155.5,156.4 159,158.1 165.4,150.3 	"/>
	<polygon class="st4" points="176.3,169.5 174.7,170 174.7,170 174.7,170 167.3,163.7 169.3,157.3 173.7,156.8 173.7,155.1 
		165.4,150.4 159.1,158.1 159,158.1 159,158.1 155.5,156.4 155.4,158.2 166.2,176.6 175.5,182.9 176.3,181 	"/>
	<polygon class="st4" points="165.4,150.3 165.4,150.3 173.7,155.1 173.7,145.6 177.1,145.4 177.1,137.9 171.5,137.3 169,134.6 
		168.6,128.9 166.8,128.9 163.3,133.7 161.5,133.8 161.5,134 161.9,135.3 161.9,135.6 161,137 161.7,139.4 161,144 158.9,146.7 
		158.9,146.7 158.9,146.7 	"/>
	<polygon class="st4" points="171.5,137.3 177.1,137.9 177.1,145.4 178,145.3 178,145.3 178,145.3 179.2,147.9 182.8,146.7 
		182.5,142.7 187.4,140.9 188.9,133.8 188.9,133.8 188.9,133.8 187.2,132.2 180.7,131.6 177,129 168.6,128.9 169,134.6 	"/>
	<polygon class="st4" points="153.9,132.5 153.9,132.5 152.9,131.9 152.8,130.5 148.5,130.1 151.4,134 152.4,134.4 153.9,132.5 	"/>
	<polygon class="st4" points="161.5,133.8 160.9,132 157.1,132.3 155.7,133.5 153.9,132.5 152.4,134.4 152.4,134.4 152.4,134.4 
		156.7,135.9 157.8,134.3 160.3,134.6 161,137 161.9,135.6 161.9,135.3 161.4,133.8 	"/>
	<polygon class="st4" points="304.8,145.1 304.8,145.1 302,145.1 302,147.7 304.8,147.7 	"/>
</g>
</svg>
