<?xml version="1.0" encoding="utf-8"?>
<!-- Generator: Adobe Illustrator 22.0.0, SVG Export Plug-In . SVG Version: 6.00 Build 0)  -->
<svg version="1.0" id="Lager_1" xmlns="http://www.w3.org/2000/svg" xmlns:xlink="http://www.w3.org/1999/xlink" x="0px" y="0px"
	 viewBox="0 0 300 300" style="enable-background:new 0 0 300 300;" xml:space="preserve">
<style type="text/css">
	.st0{fill:#F8CA00;}
	.st1{fill:none;}
	.st2{fill:#F7F7F7;}
	.st3{fill:#E97F02;}
</style>
<g>
	<circle class="st0" cx="150" cy="150" r="145"/>
	<path d="M150,10c37.4,0,72.6,14.6,99,41s41,61.6,41,99s-14.6,72.6-41,99s-61.6,41-99,41s-72.6-14.6-99-41s-41-61.6-41-99
		s14.6-72.6,41-99S112.6,10,150,10 M150,0C67.2,0,0,67.2,0,150s67.2,150,150,150s150-67.2,150-150S232.8,0,150,0L150,0z"/>
</g>
<g>
	<rect x="12.5" y="43" class="st1" width="273.5" height="280.5"/>
	<path class="st2" d="M85.5,182.8V44.7h49.9v16.8h-31.6v40.4h28.9v17.1h-28.9v47h33.3v16.8H85.5z"/>
	<path class="st2" d="M193.9,85.4v-7.9c0-5.1-1.1-9.2-3.4-12.2c-2.3-3-6.1-4.5-11.3-4.5c-5,0-8.7,1.4-11,4.2
		c-2.4,2.8-3.5,6.2-3.5,10.2v5.4c0,3.1,0.6,5.6,1.7,7.7c1.1,2.1,3.3,4.4,6.4,7.1c2.4,1.8,5,3.6,7.8,5.5c2.8,1.9,5.6,3.7,8.4,5.5
		c2.8,1.8,5.5,3.6,8.1,5.4c2.6,1.8,4.9,3.5,6.9,5.2c3.2,2.8,5.6,6,7.4,9.8c1.7,3.7,2.6,8.8,2.6,15.2v8.5c0,10.8-2.7,19.1-8,24.9
		c-5.3,5.8-14.1,8.6-26.3,8.6c-12.2,0-20.9-2.9-26.2-8.8c-5.3-5.9-7.9-14.5-7.9-25.9v-7.9h17.7v8.1c0,5.7,1.2,10,3.7,12.9
		s6.6,4.4,12.3,4.4c4.9,0,8.6-1.2,11.2-3.7c2.6-2.5,4-6.5,4-12.1v-6.2c0-2.1-0.1-3.9-0.4-5.5c-0.3-1.6-0.8-3-1.5-4.4
		c-0.7-1.3-1.6-2.6-2.8-3.7c-1.2-1.2-2.6-2.5-4.3-3.8c-4.9-4-9.8-7.6-14.8-10.6c-5-3-9.6-6.7-13.9-10.8c-3.5-3.6-6.1-7.3-7.9-11.2
		c-1.8-3.9-2.7-8.6-2.7-14.1v-6c0-9.2,2.6-16.6,7.8-22.4c5.2-5.8,13.6-8.6,25.1-8.6c6.2,0,11.4,0.9,15.6,2.7c4.2,1.8,7.5,4.3,10,7.5
		c2.5,3.2,4.3,7,5.3,11.4c1,4.4,1.6,9.2,1.6,14.4v6H193.9z"/>
	<path class="st3" d="M92.1,262.8v-12.1c0-3.7,0.4-6.8,1.1-9.3c0.8-2.5,2.2-4.9,4.3-7.3c1.2-1.4,2.6-2.7,4.1-4.1
		c1.5-1.4,3-2.7,4.6-4c1.5-1.3,3-2.5,4.4-3.7c1.4-1.2,2.6-2.4,3.6-3.5c1.3-1.4,2.1-2.9,2.5-4.3c0.4-1.4,0.6-3.2,0.6-5.4v-4.2
		c0-2.9-0.5-5-1.6-6.3c-1.1-1.4-3.1-2-6-2c-3.1,0-5.1,0.8-6.1,2.3c-1,1.5-1.5,3.8-1.5,6.8v5.2h-9.5v-4.3c0-3.2,0.2-6.1,0.6-8.5
		c0.4-2.4,1.2-4.4,2.4-6.1c1.2-1.7,3-2.9,5.2-3.7c2.2-0.8,5.2-1.2,9-1.2c3.5,0,6.3,0.4,8.5,1.1c2.2,0.7,3.9,1.8,5.2,3.2
		c1.3,1.4,2.2,3.3,2.7,5.5c0.5,2.2,0.7,4.8,0.7,7.7v5c0,3.3-0.4,6-1.2,8s-2,4-3.6,5.8c-1.1,1.1-2.3,2.4-3.8,3.7
		c-1.5,1.3-3,2.6-4.5,4c-1.5,1.3-3,2.6-4.4,3.9c-1.4,1.3-2.5,2.4-3.4,3.4c-1.7,2-2.8,3.8-3.2,5.5c-0.4,1.7-0.6,3.4-0.6,4.9v5.2h24.7
		v8.9H92.1z"/>
	<path class="st3" d="M148.1,262.8v-18.2h-21.8v-8.2l19.7-48.6h11.9v48.4h5.3v8.5h-5.3v18.2H148.1z M148.3,201.8h-0.5l-14.8,34.4
		h15.3V201.8z"/>
	<path class="st3" d="M165.9,232.8v-8.5h14.8v8.5H165.9z"/>
	<path class="st3" d="M183.5,262.8c0.1-3.2,0.4-6.6,0.9-10.4c0.5-3.8,1.2-7.7,2-11.8c0.8-4.1,1.7-8.2,2.7-12.3c1-4.1,2.1-8.1,3.2-12
		c1.1-3.8,2.2-7.4,3.2-10.7c1.1-3.3,2.1-6.2,3.1-8.7h-20.9v-9.2h29.8v8.1c-1.5,4.1-3.1,8.9-4.7,14.6c-1.7,5.7-3.2,11.5-4.6,17.7
		c-1.4,6.1-2.5,12.2-3.4,18.3c-0.9,6.1-1.4,11.5-1.4,16.3H183.5z"/>
</g>
<g>
</g>
<g>
</g>
<g>
</g>
<g>
</g>
<g>
</g>
</svg>
