<?xml version="1.0" encoding="utf-8"?>
<!-- Generator: Adobe Illustrator 22.0.0, SVG Export Plug-In . SVG Version: 6.00 Build 0)  -->
<svg version="1.0" id="Lager_1" xmlns="http://www.w3.org/2000/svg" xmlns:xlink="http://www.w3.org/1999/xlink" x="0px" y="0px"
	 viewBox="0 0 300 300" style="enable-background:new 0 0 300 300;" xml:space="preserve">
<style type="text/css">
	.st0{fill:#F8CA00;}
	.st1{fill:none;}
	.st2{fill:#CCCCCC;}
	.st3{fill-rule:evenodd;clip-rule:evenodd;fill:#5378BD;}
	.st4{fill-rule:evenodd;clip-rule:evenodd;fill:none;}
	.st5{fill-rule:evenodd;clip-rule:evenodd;fill:#E97F02;}
	.st6{fill-rule:evenodd;clip-rule:evenodd;fill:#F8CA00;}
</style>
<g>
	<path class="st0" d="M90,253.9l-0.1,0.1c-8.5-5-16.4-11-23.4-17.9C73.6,243,81.5,249,90,253.9z"/>
</g>
<g>
	<path d="M80,271.3l-5,8.7c-22.8-13.2-41.7-32.2-54.9-54.9C7.3,203,0,177.3,0,150C0,68.9,64.3,2.8,144.8,0.1l0.3,10l0.4,10
		C75.8,22.5,20,79.7,20,150c0,23.7,6.3,45.9,17.4,65l-8.7,5C41,241.3,58.7,259,80,271.3z"/>
</g>
<g>
	<path class="st1" d="M260,150c0,60.8-49.3,110-110,110c-20,0-38.8-5.4-55-14.7c-16.7-9.7-30.6-23.6-40.3-40.3
		C45.4,188.8,40,170,40,150C40,90.5,87.2,42.1,146.2,40.1l-0.3-9.5l-0.4-10.5l-0.4-10l-0.3-10C146.5,0,148.3,0,150,0s3.5,0,5.2,0.1
		l-0.3,10l-0.4,10l-0.4,10.5l-0.3,9.5c18.5,0.6,35.9,5.9,51,14.6c0.1,0.1,0.2,0.1,0.3,0.2C238,73.9,260,109.3,260,150z"/>
</g>
<path class="st2" d="M300,150c0,82.8-67.2,150-150,150c-27.3,0-53-7.3-75-20.1l5-8.7c-21.3-12.3-39-30-51.3-51.3l8.7-5
	c11.4,19.7,27.9,36.2,47.6,47.6c19.1,11.1,41.3,17.4,65,17.4c71.8,0,130-58.2,130-130c0-48.1-26.1-90-64.8-112.5
	c-0.1-0.1-0.2-0.1-0.3-0.2C197,27,176.5,20.8,154.5,20.1l0.4-10l0.3-10c25.3,0.9,49,8,69.6,19.9c0.1,0.1,0.2,0.1,0.3,0.2
	C269.9,46.1,300,94.5,300,150z"/>
<path class="st0" d="M64,233.7c-6.9-7.1-13-15-18-23.7l0.2-0.1C51.2,218.6,57.2,226.6,64,233.7z"/>
<path class="st3" d="M66.5,236.2c7,6.9,14.8,12.9,23.4,17.9l-4.9,8.5c-19.7-11.4-36.2-27.9-47.6-47.6C26.3,195.9,20,173.7,20,150
	C20,79.7,75.8,22.5,145.5,20.1l0.4,10.5l0.3,9.5C87.2,42.1,40,90.5,40,150c0,20,5.4,38.8,14.7,55l-8.5,4.9l-0.2,0.1
	c5,8.6,11,16.6,18,23.7c0.5,0.5,0.9,1,1.4,1.4C65.8,235.5,66.2,235.9,66.5,236.2z"/>
<path class="st4" d="M90,253.9l-0.1,0.1c-8.5-5-16.4-11-23.4-17.9C73.6,243,81.5,249,90,253.9z"/>
<path class="st5" d="M280,150c0,71.8-58.2,130-130,130c-23.7,0-45.9-6.3-65-17.4l4.9-8.5l0.1-0.1c-8.5-4.9-16.4-10.9-23.4-17.7
	c-0.4-0.4-0.8-0.7-1.1-1.1c-0.5-0.5-0.9-0.9-1.4-1.4c-6.9-7.1-12.9-15.1-17.8-23.8l8.5-4.9c9.7,16.7,23.6,30.6,40.3,40.3
	c16.2,9.4,35,14.7,55,14.7c60.8,0,110-49.3,110-110c0-40.7-22-76.1-54.8-95.2l10-17.3C253.9,60,280,101.9,280,150z"/>
<g>
	<path class="st6" d="M215.2,37.5l-10,17.3c-0.1-0.1-0.2-0.1-0.3-0.2c-15.1-8.7-32.5-13.9-51-14.6l0.3-9.5l0.4-10.5
		c21.9,0.8,42.5,6.9,60.3,17.2C215,37.4,215.1,37.4,215.2,37.5z"/>
</g>
<g>
</g>
<g>
</g>
<g>
</g>
<g>
</g>
<g>
</g>
<g>
</g>
<g>
</g>
<g>
</g>
<g>
</g>
<g>
</g>
<g>
</g>
<g>
</g>
<g>
</g>
<g>
</g>
<g>
</g>
</svg>
